<svg xmlns="http://www.w3.org/2000/svg" viewBox="0 0 201.75 124.41" fill="white"><path d="m101.16,15.49c1.77-.79,3.48-1.79,5.33-2.31,2.76-.77,4.28.21,5.61,2.72,2.12,4.02,4.1,8.15,6.65,11.88,1.73,2.57,3.97,4.76,6.58,6.44,7.66,4.74,12.75,11.46,16.68,19.37,1.61,3.23,3.79,6.17,5.74,9.23.27.37.61.69,1.01.91,1.9,1.15,3.79,2.33,5.75,3.38,1.03.55,2.17,1.22,3.27,1.23,2.39.02,3.61,1.3,4.49,3.23.27.59.57,1.17.83,1.71,3.43.3,4.1,1.09,4.19,4.72.09,3.28,1.8,5.06,5.12,5.53,2.02.29,4.02.75,6.03,1.09,4.81.8,9.62,1.56,14.43,2.39.79.21,1.56.49,2.3.83l-.84,2.43,7.37,2.04c.46,2.72-2,1.71-2.96,2.57l.62,1.91c-1.29,1.35-2.89,1.43-4.55,1.23-4.71-.58-9.42-1.18-14.13-1.77-.11-.01-.23.08-.77.55.36.15.73.29,1.08.46,2.62,1.25,5.22,2.53,7.85,3.74,3.11,1.43,6.27,2.78,9.36,4.24.44.21,1.01.97.91,1.27-.17.48-.8.88-1.31,1.15-.38.19-.89.12-1.61.2l2.69,2.94-1.63.98,1.18,2.3-.43.56c-5.25-.33-10.06-2.53-14.9-4.31s-9.43-4.24-14.29-6.47c-.31,1.09-.69,2.17-1.14,3.21-2.77,5.62-7.02,9.73-12.94,11.86-3.64,1.31-7.32,2.62-11.37,2.01-2.21-.33-3.75-1.25-4.89-3.19-2.85-4.9-5.83-9.73-8.77-14.58-.17-.28-.39-.52-.68-.91-1.88,0-4.19.39-5.26-1.66-.83-1.58-.99-3.51-1.52-5.57-2.48.48-3.11-1.43-3.77-3.65-.47-1.57-1.58-2.96-2.52-4.65-1.14-.34-2.26-.74-3.35-1.21-.65-.29-1.17-.82-1.44-1.49-.47-1.77-.77-3.58-.9-5.41-.05-.8.57-1.64.93-2.59-1.54-1.01-2.58-2.4-1.52-4.52.06-.26.03-.53-.1-.76-.85-1.87-.48-3.47,1.33-4.82-.57-1.17-1.03-2.24-1.58-3.26-2.48-4.61-3.21-9.46-1.89-14.54.79-2.75.47-5.7-.88-8.22-1.3-2.49-2.38-5.1-3.61-7.78-.45.25-.75.31-.86.49-2.22,3.66-4.57,7.25-6.55,11.04-.78,1.5-.85,3.42-1.01,5.17-.29,3.28-.18,6.6-.67,9.84-.3,2.02-1.39,3.92-2.16,5.96,1.14.34,2.17.59,3.15.95,2.33.86,3.36,2.87,3.01,5.34-.14,1.16-.12,2.34.05,3.5.29,2.07-.26,3.17-1.86,4.39-.79.64-1.34,1.53-1.55,2.53-.4,2.35-1.24,4.33-3.45,5.44-.98.47-2.01.84-3.06,1.12-.76.15-1.53.23-2.3.26.49,2.14-.32,3.61-1.85,4.78-.31.25-.54.59-.66.97-.67,2.37-2.14,3.59-4.61,3.22-1.29,2.14-2.23,4.39-3.78,6.06-1.34,1.43-2.94,2.99-5.35,2.87-1.47,0-2.94.09-4.4.27-1.28,2.09-2.3,4.1-3.63,5.88-5.65,7.53-10.24,7.42-16.93,4.19-4.99-2.41-9.44-5.48-12.4-10.48-2.06,1.62-3.99,3.15-5.94,4.67-4.31,3.38-8.59,6.78-12.94,10.1-1.58,1.19-3.23,2.28-4.96,3.25-1.61.92-2.36.63-3.29-1.22l4.28-3.27-.38-.53-1.11-1.73,1.8-2.27c-1.66-.47-3.47,1.28-4.99-.76l16.21-14.06-.29-.59c-2.64.89-5.35,1.63-7.91,2.7-2.74,1.14-5.34,2.59-8.01,3.88-1.26.61-2.4.69-3.35-1.44l2.61-1.31-1.71-1.81.37-1.6-2.44-1.86c7.59-4.95,15.61-7.26,23.25-8.35,1.48-1.73,2.53-2.92,3.53-4.14.41-.42.72-.93.9-1.49.44-2.31,1.52-4.07,3.19-4.59,1.25-1.57,2.22-2.55,2.91-3.7,1.17-1.96,2.2-4,3.22-6.05.73-1.47,1.07-3.25,2.1-4.44,1.81-2.1,3.86-3.98,6.09-5.63,1.07-.79,2.73-.81,4.14-1.11.52-.06,1.06-.06,1.58,0,3.31.08,5.6-.82,7.34-4.25,1.99-3.93,5.08-7.34,7.95-10.76,1.98-2.37,4.83-3.67,7.8-4.44,2.92-.76,5.33-2.07,7.01-4.71,2.93-4.61,6.03-9.11,8.98-13.71.63-.98.84-2.21,1.37-3.27,2.05-4.13,3.88-4.27,7.28-2.79.9.39,1.75.89,2.62,1.33-.03-.14-.06-.29-.09-.44Zm-12.55,48.82c-2.32-3.68-5.37-6.08-8.85-8.07-1.37-.79-2.24-.53-3.25.56-1.29,1.39-2.55,2.98-4.16,3.85-2.58,1.39-5.46,2.22-8.18,3.38-.9.32-1.7.86-2.33,1.58-4.64,6.49-9.19,13.05-13.76,19.59-.13.28-.22.57-.28.87,6.76,3.31,13.43,6.69,17.49,13.72l1.91-2.74c-2.4-2.5-4.68-4.85-6.94-7.21-1.08-1.06-1.66-2.51-1.62-4.02,1.24-1.09,2.35-.73,3.53-.08,1.38.75,2.77,1.63,4.26,2,1.94.48,3.65,1.1,4.78,2.84.08.13.33.15.64.28l.58-1.25c-2.63-2.15-5.11-4.19-7.61-6.21-1.33-1.07-1.84-2.47-1.24-3.6.58-1.08,2.1-1.37,3.72-.74,1.08.49,2.19.89,3.33,1.19,2.22.46,4.48.75,7.02,1.15l.62-1c-2.28-1.12-4.42-2.11-6.5-3.23-1.93-1.03-3.46-2.46-3.62-4.84-.1-1.54.66-2.47,2.1-2.07,3.8,1.06,7.9.5,11.57,2.27.9.43,2.07.71,2.29-.7-1.89-1.11-3.63-2.11-5.34-3.14-.73-.44-1.36-1.12-2.15-1.4-2-.71-2.56-2.28-2.83-4.11.96-1.51,2.37-1.29,3.74-1.03,3.57.68,7.14,1.39,11.08,2.17Zm82.88,21.19c-.32,1.75-.32,3.34-.92,4.64-1.24,2.7-2.42,5.31-2.62,8.39-.1,1.47.2,2.17,1.27,2.9,5.94,4.07,12.55,6.67,19.33,8.9,1.23.4,2.46.79,3.61,1.15l1.3-2.35-1.76-2.16,1.38-1.7c-.45-.29-.82-.55-1.22-.76-5.57-2.85-11.13-5.7-16.7-8.54-.94-.48-1.69-1.09-.8-2.5l20.83,2.5v-3.23l-5.5-2.07v-1.9c-5.9-1.13-11.65-2.24-17.39-3.32-.27-.02-.55,0-.81.06h0Zm-17.61,5.69l-9.18-16.71c-2.63,0-5.13-.03-7.63,0-3.08.04-6.16.17-9.24.2-.6.03-1.19-.1-1.72-.39-2.33-1.56-4.58-.21-6.82.17-.81.14-1.85.61-1.32,2.23.53,0,1.14.04,1.75,0,2.72-.19,5.5.86,8.16-.46,2.94,1.21,6.02,1.17,9.12.99.27-.03.53.03.77.16.65.46,1.71.93,1.78,1.49.07.94-.27,1.86-.92,2.53-.8.66-2.03.8-3.08,1.18-1.79.65-3.57,1.31-5.35,1.96.06.21.12.43.18.64,3.43-.75,6.86,1,10.33-.35,1.11-.43,2.43-.26,3,1.15.6,1.28.08,2.8-1.18,3.44-2.3,1.25-4.7,2.31-7.18,3.15-1.99.66-4.15.83-6.57,1.28,1.26,1.1,2.4.93,3.57.94,1.43-.02,2.85.15,4.23.5,1.37.38,2.64,1.14,3.95,1.73,1.22.55,2.21.39,3.19-.63,2.38-2.42,5.43-4.05,8.76-4.69.48-.14.94-.31,1.4-.51h0ZM7.02,102.58c.77-.35,1.4-.7,2.07-.93,4.1-1.41,8.19-2.87,12.33-4.14,1.09-.33,2.36-.05,3.49-.05.46,1.85-.67,2.5-1.54,3.25-3.65,3.13-7.34,6.22-10.99,9.35-.52.5-1.01,1.04-1.47,1.6l2.37.46q.29,1.27-1.18,3.76l1.01,1.69c-.47.6-.88,1.13-1.29,1.66,6.16-5.48,13.32-9.77,19.12-15.95-2.24-2.27-2.27-5.01-2.39-7.72-.02-.46-.07-.92-.16-1.37-.4-1.96-1.68-3.01-3.64-2.7-3.38.53-6.81.97-10.09,1.89-2.93.81-5.71,2.21-8.75,3.43l2.58,1.64c-.72.86-1.25,1.48-1.77,2.11l.32,2.05Zm105.99-37.38c.62-.1,1.17-.16,1.71-.29,2.56-.6,5.1-1.33,7.68-1.81,2.5-.49,5.05-.58,7.58-.27.66.03,1.31-.07,1.93-.31,1.26-.41,2.44-1.59,3.82-.31,1.37,1.27.45,2.66.04,4.01l.3.39,3.37-1.58c-2.56-4.55-4.9-8.71-7.13-12.68-7.13-.66-18.57,8.38-19.3,12.85h0Zm-73.07,16.74c2.58-1.86,4.34-4.64,4.95-7.76.32-1.76,1.23-3.37,2.58-4.54.56-.56,1.07-1.16,1.53-1.8-1.18-2.51-3.27-2.97-5.38-3.06-1.94-.08-2.79,1.49-3.47,3.05-.42.96-.81,1.94-1.19,2.92-1.03,2.64-1.95,5.33-4.34,7.16-.32.25-.47.73-.83,1.32l6.14,2.71Zm105.79-9.72c4.48-1.11,6.43,1.34,8.14,4.33.55.89,1.29,1.65,2.16,2.24,1.01.73,2.42.49,3.14-.52.08-.11.15-.23.21-.36.63-1.34,1.25-2.68,1.95-4.2-.53-2.63-.84-2.84-3.48-3.43-1.33-.35-2.6-.88-3.79-1.57-1.04-.55-1.9-1.44-2.93-2.01-2.14-1.17-4.36-1.68-7.13-.32l1.74,5.82Zm19.99,23.97c.88-1.99,1.43-3.54,2.23-4.96,1.58-2.82,1.35-5.49-.67-7.88-1.4-1.66-2.19-3.76-2.24-5.93-.04-.81-.46-1.61-.71-2.41l-.78-.17c-.78,1.04-1.85,1.98-2.28,3.15-.76,2.08-1.14,4.3-1.9,7.35l6.33,10.85Zm-101.42-39.98c-.89.2-1.76.46-2.61.78-1.33.57-2.61,1.26-3.9,1.91-2.88,1.44-6.04,1.18-9.1,1.54-1.55.18-2.97.52-3.68,2.07.09.2.12.39.2.43,1.83.81,3.78,1.35,5.25,2.86.27.27,1.15.12,1.67-.07.73-.3,1.42-.69,2.06-1.15,2.02-1.33,4.14-2.29,6.63-2.23.99-.02,1.98-.1,2.96-.24,1.59-.17,2.49-1.02,2.63-2.47l-2.1-3.43Zm-33.06,38.97l8.02-11.37c-1.76-.86-3.24-1.69-4.8-2.33-2.23-.91-3.89-.05-4.51,2.3-.4,1.5-.83,2.92-2.38,3.67-.46.32-.89.69-1.28,1.1,1.08,1.02,2.2,1.83,2.98,2.9.83,1.12,1.33,2.49,1.97,3.74Zm91.86-29.65l-.42-.76c-3.94,1.44-8.25,1.63-11.79,3.58.16,2.07.28,3.65.42,5.54,1.08.92,2.61,1.05,4.14.4,1.81-.77,3.54-1.73,5.38-2.65-.29-.11-.57-.26-.81-.46-.54-.65-1.53-1.48-1.4-2.02.2-.85,1.09-1.6,1.83-2.23.34-.29,1.06-.08,1.51-.31.43-.3.81-.67,1.13-1.09h0Zm37.3,43.35c.48.05.96.04,1.44-.01,1.57-.51,2.55-2.28,2.32-4.13-.28-2.22-1.34-3.36-3.37-3.41-6.27-.14-11.52,2.41-16.14,6.39-1.57,1.38-2.4,3.42-2.23,5.5.11,1.83,1.36,3.4,3.12,3.9,1.94.56,4.03-.1,5.3-1.67-1.22.19-2.18.27-3.1.49-1.4.34-2.45-.17-3.32-1.2-.91-.93-1.1-2.36-.44-3.49.46-.86.92-1.83,1.64-2.44,4.05-3.55,9.2-5.59,14.58-5.77.79-.03,2.09.69,2.29,1.33.25.8-.31,1.92-.68,2.84-.2.51-.73.89-1.41,1.67Zm-64.73-32.06c.2-.75.34-1.52.43-2.3.04-1.11-.21-2.24-.09-3.33.27-2.39-.34-3.47-2.72-3.91-1.99-.37-4.02-.5-6.27-.77v3.53c1.26,1.32,2.36,2.75,3.74,3.84,1.36,1.08,3,1.81,4.91,2.93Zm17.67,7.29c.84.15,1.8.52,2.73.44,2.61-.21,5.2-.61,7.93-.95.89-.87,1.21-1.94.38-3.23-1.01-1.56-2.41-2.39-3.97-1.81-2.59.96-5.07,1.27-7.57-.17-.08-.05-.25.05-.79.18.39,1.68.79,3.37,1.29,5.53h0Zm16.51,2.41c-2.03.35-3.92.65-5.81,1-1.86.34-3.76-1.15-5.75-.08l2.76,5.64,10.51-1.81c-.41-.96-.68-1.54-.89-2.14-.24-.67-.43-1.36-.81-2.61h0Zm-81.56,25.4l-.24.4c.08.24.19.46.33.67,1.14,1.17,2.95,1.39,4.34.52,1.72-1.02,2.37-2.45,1.73-4.12-2.23-5.8-6.58-9.59-11.94-12.34-.94-.48-2.18-.52-3.28-.5-2.39.05-3.94,1.38-4.39,3.53-.45,2.18.94,5.49,3.06,6.57-.35-.85-.59-1.41-.8-1.98-.4-.9-.72-1.83-.95-2.79-.44-2.76,1.33-4.52,4.08-3.99,1.16.23,2.27.66,3.28,1.28,3.2,2,5.93,4.66,8.03,7.79.43.66.81,1.36,1.13,2.08.45.99.83,2.2-.22,2.88-.7.46-1.81.34-2.75.37-.48-.06-.96-.18-1.4-.37h0Zm45.01-33.58c-3.03-2.33-6.95-1-10.15-3.34l-.91,3.41c1.99,1.59,3.65,2.89,5.29,4.22.32.32.66.63,1.02.92,1.86,1.19,3.29.66,3.89-1.46.32-1.13.53-2.3.86-3.74h0Zm38.56-10.15c.33,1.78.61,3.35.91,4.97,2.17-.27,3.92-.57,5.67-.67,1.8-.11,3.6-.02,5.45-.02-.58-1.99-1.04-3.58-1.66-5.74-.45-.64-1.47-.39-2.42.2-2.05,1.28-4.18,1.86-6.57,1.13-.23-.07-.51.04-1.39.13h0Zm4.35,28.66c-.9-.17-1.81-.27-2.73-.3-2.21.12-4.3,0-6.19-1.4-.4-.3-1.73-.15-1.85.14-.49,1.13-1.06,2.47-.88,3.6.23,1.42,1.68,1.53,3.03,1.5,1.62-.03,3.24.14,4.86.24.76.05,1.52.16,2.29.24.49-1.34.91-2.49,1.47-4.03h0Zm-59.79-7.5c.25.58.58,1.23.81,1.91s.3,1.42.55,2.09c.55,1.52,2.18,1.97,3.05.79,1.06-1.44,1.93-3.02,2.86-4.51l-5.55-5.25c-.61,1.76-1.12,3.24-1.72,4.97h0Zm2.18-37.46c-.11-.06-.23-.17-.34-.17-.26-.04-.52,0-.76.09-2.93,1.84-6.15,2.86-9.52,3.56-.51.11-.9.76-1.38,1.2l2.15,3.03c2.6-.01,8.63-4.73,9.86-7.71h0Zm-10.43,43.27c2.26,2.25,1.28,5.92,4.63,6.88l3.09-4.53-5.27-4.72-2.45,2.37Zm2.03-22.71c.75,3.04,7.57,6.21,10.31,4.92.14-.96.29-1.98.5-3.38l-10.81-1.54Zm5.77,11.01l-10.49-2.58c2.45,4.06,7.3,6.96,9.81,5.8l.68-3.22Zm50.36-5.05c-.13.44-.32.72-.26.94.31,1.19.68,2.37,1.15,3.96l10.42-3.64c-3.45-.58-6.59-1.14-9.73-1.61-.52-.08-1.09.24-1.57.36Zm-6.19-9.17c2.68,1.3,5.1,2.54,7.58,3.64,1.12.5,2.13.02,3.02-.89l-1.32-2.85c-1.57,0-3.08.12-4.56-.03-1.46-.15-2.88-1.3-4.71.14h0Zm-2.35-35.34l-.61.18c.13.64.04,1.47.41,1.88,1.18,1.28,2.34,2.9,3.85,3.48,3.17,1.22,5.31,3.32,7,6.1.38.63.87,1.19,1.49,2.02.23-.62.45-.91.38-1.07-1.52-3.38-3.45-6.45-7.15-7.75-1.9-.6-3.52-1.87-4.55-3.57-.26-.43-.55-.85-.82-1.28h0Zm-5.98,7.61l-.44.31c-.04.24-.04.48.01.72,1.09,2.5.4,4.86-.38,7.29-.46,1.44-.68,2.94-.66,4.44.04,1.59.48,3.19,2.22,4.27.04-.59.21-1.04.06-1.33-1.58-3.13-.71-6.08.29-9.16.49-1.53.25-3.33.12-5-.04-.54-.79-1.03-1.22-1.54Zm29.77,45.53h-9.82l1.53,3.42c3.01.33,7.09-1.45,8.29-3.42h0Zm-52.88-29.12l.39.22c.41-.51,1.08-.98,1.18-1.54.36-2.11.78-4.26.71-6.38-.08-2.56-.76-5.11.65-7.53.1-.17-.03-.48-.11-1.26-.57.52-1.09,1.09-1.57,1.71-1.16,1.89-.8,3.96-.51,5.97.38,2.65.41,5.25-.62,7.78-.09.34-.13.69-.13,1.04h0Zm-1.31,27.54c-1.43-2.43-3.09-4.18-5.96-4.04-.54.03-1.06.59-1.58.9,2.51,4.36,2.62,4.4,7.53,3.14h0Zm-2.31-19.84l-8.94-1.29c1.61,1.26,2.98,2.37,4.39,3.42,1.3.98,2.7,1.56,4.36.72.06-.9.12-1.74.19-2.86h0Zm49.21-1.76c-2.96,1.85-6.11.27-9.27.42v2.7c3.4.84,7.87-.51,9.27-3.12h0Zm-49.53-24.37c-2.79,1.34-5.37,2.38-7.75,3.77-1.31.77-2.31,2.09-3.35,3.24-.37.41-.46,1.08-.75,1.8.48-.08.63-.06.72-.13.22-.14.42-.31.58-.52,1.72-2.63,4.27-3.96,7.19-4.84.97-.38,1.85-.96,2.59-1.7.38-.33.48-1,.76-1.64Zm19.78-16.21l.58-.27c-.16-.57-.17-1.26-.51-1.69-2.09-2.67-4.89-4.38-8.04-5.53-.47-.17-1.14.2-1.72.32l.03.55c3.69,1.51,7.27,3.2,9.65,6.63h0Zm32.28,77.49c1.99,1.18,6.42.49,8.19-1.01l-6.7-1.42c-.47.76-.95,1.54-1.49,2.43h0Zm-67.24-9.71l-7.94-2.95-.27.33c2.47.99,2.78,4.24,5.57,5.03l2.64-2.42ZM103.27,25.73c-.4-3.19-7.39-7.94-9.75-6.72l9.75,6.72Zm34.19,77.68l-4.85-.9-.17.52,3.06,4.73,1.96-4.34Zm-76.05-.5c-1.82,1.64-2.74,3.88-3.99,6.09,1.99,0,4.34-3.56,3.99-6.09h0Zm8.87.53l-1.89-3.67-1.99,3.97c1.39,0,2.29.01,3.19,0,.24-.06.47-.16.68-.28h0ZM105.48,18.96c.99,1.46,3.44.81,4.92-1.24-1.92-.38-3.45.22-4.93,1.24h0Zm-30.08,71.93l-.74-.07c-.28.63-.93,1.39-.76,1.87.26.77,1.06,1.35,1.63,2.01l.68-.39-.81-3.41Zm27.92-73.46l5.58-2.1c-2.34-.62-4.61.14-5.58,2.1h0Zm-58.34,72.32c-1.63.93-2.18,2.32-2.83,3.89,1.75-.28,2.87-1.82,2.83-3.89Zm23.83-36.86l.27.44,2.97-.74.02-.46-2.19-.89c-.41.64-.74,1.15-1.06,1.66h0Zm89.42,45.62l.64-.39-2.02-3.22-.62.38c.03,1.44.95,2.37,2,3.23h0Z"></path><path d="m118.59,19.2c-1.38-2.47-2.51-5.29-5.99-5.87l.2-2.14c2.48.39,4.72.48,6.82,1.67,1.62.91,3.55,1.25,5.25,2.05.99.47,2.14,1.17,2.6,2.08,1,1.94,2.15,3.25,4.44,3.71,2.43.49,3.95,2.29,3.88,4.13-.03.77-.37,1.85-.93,2.19-.52.31-1.7.05-2.28-.37-1.46-1.06-2.78-1.85-4.68-1-1.19.53-2.37-.06-3.13-1.08-.58-.72-1.01-1.54-1.28-2.42-.46-1.85-1.66-2.57-3.4-2.73-.45-.04-.9-.13-1.49-.22Zm.95-1.7c3.07.13,5.15,1.3,5.68,4.6.19,1.22,1.38,2.34,2.83,1.68,1.86-.85,3.28-.33,4.72.81.44.28.9.52,1.39.73-.17-1.92-1.4-2.53-2.63-2.72-2.63-.4-4.24-1.81-5.26-4.2-.33-.69-.92-1.24-1.64-1.52-1.94-.67-3.95-1.12-6.11-1.7.33.76.66,1.5,1.02,2.32h0Z"></path><path d="m97.02,11.81c-.09,0-.19.02-.22-.02-1.93-2.43-4.55-3.08-7.5-2.87-.13.01-.27-.01-.39-.07-2.5-1.3-4.99-1.91-7.91-1.26-1.76.39-2.73-2.06-1.67-3.77.89-1.44,2.62-1.91,4.55-1.35,1.05.3,2.16.43,3.24.64.33,0,.65.06.96.16,3.16,1.83,6.49,3.43,8.86,6.36.56.69,1.01,1.44.07,2.19Zm-16.39-6.61c1.41.87,1.46.86,3.72-.11-1.92-1.43-2.57-1.43-3.72.11Zm5.61-.46l-.31.65,4,2.1.39-.79-4.08-1.95Z"></path><path d="m105.2,11.72c.05-.7,0-.89.08-.94,3.25-2.55,6.42-5.21,9.8-7.59,1.49-1.05,2.73-.71,4.2.3.43,1.18-.08,2.09-1.03,2.69-1.01.6-2.07,1.12-3.16,1.57-2.53,1.11-5.06,2.19-7.61,3.24-.66.27-1.37.45-2.27.73Zm7.13-4.64c1.76-.68,4.03-.37,5.34-2.76-2.67-.21-3.94,1.4-5.34,2.76h0Z"></path><path d="m90.15,12.82c-.55.8-.81,1.64-1.23,1.74-2.07.45-2.86,2.09-3.95,3.59-.8,1.16-1.88,2.1-3.14,2.73-1.69.73-2.88-.53-2.35-2.31.23-.79.63-1.81,1.26-2.16,2.59-1.4,5.29-2.58,7.96-3.81.19-.09.5.07,1.46.22Zm-6.18,3.66c-1.33.47-2.62.79-2.85,2.45,1.82.41,2.4-.08,2.85-2.45h0Z"></path><path d="m100.32,9.69c-1.35-1.8-2.71-3.6-4.04-5.42-.18-.28-.29-.59-.32-.92-.17-1.23-.17-2.48,1.27-2.95,1.47-.48,2.31.52,2.67,1.69.44,1.58.75,3.19.94,4.82.07.91.08,1.83.02,2.74l-.54.03Z"></path><path d="m103.71,8.31c-.67-1.9.54-2.86,1.31-3.91.92-1.27,1.96-2.45,3.09-3.53.51-.49,1.38-.6,2.07-.87,1,2.18.79,4.07-.72,5.11-1.74,1.2-3.7,2.08-5.75,3.2Z"></path><path d="m119.94,9.09c.36-.28.75-.54,1.15-.78,1.36-.62,2.75-1.15,4.08-1.83,1.05-.54,2.12-1.12,3.03,0,.7.88.54,2.17-.34,2.86-.06.05-.12.09-.18.13-1.09.79-2.39,1.24-3.74,1.27-1.25-.05-2.45-.97-3.98-1.65Z"></path></svg>