<svg xmlns="http://www.w3.org/2000/svg" viewBox="0 0 235.1 122.52"><path fill="#3D3D3D" d="m146.33,113.64c-2.12,2.6-4.06,4.96-6.39,7.8-2.61-2.11-5.09-4.11-7.92-6.39-2.2,2.4-4.25,4.66-6.82,7.48-2.45-2.32-4.77-4.51-7.36-6.96-2.53,2.31-4.93,4.49-7.6,6.92-2.3-2.49-4.36-4.74-6.78-7.36-2.65,2.17-5.15,4.23-7.94,6.52-2.04-2.54-3.95-4.95-6.32-7.9-2.72,1.94-5.31,3.8-8.26,5.89-2-2.78-3.88-5.38-5.94-8.25-2.87,1.79-5.48,3.39-8.61,5.33-1.67-2.86-3.28-5.63-5.43-9.31-2.76,1.91-5.42,3.77-8.23,5.71-1.82-4-3.08-6.79-4.57-10.1-3.35,1.26-6.36,2.4-9.83,3.71-1.03-3.16-2.05-6.22-3.18-9.68-3.34.73-6.49,1.4-9.95,2.17-.51-3.29-.98-6.32-1.55-10.15-3.26.2-6.43.4-10.11.63.22-3.38.42-6.4.67-10.18-2.96-.78-6.04-1.6-10.08-2.67,4.44-6.19,6.16-12-4.11-14.66,3.4-2.8,5.74-4.74,9.08-7.5-1.84-2.42-3.87-5.05-6.28-8.2,4.87-1.36,7.97-2.22,11.33-3.16-.29-3.34-.56-6.4-.88-9.96,3.36.09,6.55.18,10.2.28.51-3.13.99-6.14,1.59-9.86,3.17.62,6.32,1.23,9.75,1.88l3.34-9.22,9.41,3.4c1.53-3.16,2.84-5.91,4.41-9.14,2.96,1.28,5.88,2.55,9.32,4.05,1.56-2.82,3.03-5.48,4.78-8.66,2.93,1.74,5.68,3.38,8.78,5.22,1.97-2.81,3.84-5.47,5.91-8.41,2.69,1.98,5.16,3.79,8.17,5.99,2.12-2.6,4.14-5.07,6.45-7.89,2.56,2.08,4.92,4,7.89,6.41,2.18-2.36,4.34-4.7,6.84-7.41,2.5,2.32,4.86,4.5,7.43,6.89,2.55-2.33,4.95-4.51,7.51-6.85,2.33,2.53,4.42,4.78,6.79,7.34,2.66-2.17,5.16-4.21,7.91-6.45,2.11,2.63,4.03,5.03,6.3,7.86,2.75-2,5.38-3.9,8.33-6.05,1.98,2.82,3.82,5.44,5.85,8.34,3.02-1.81,5.81-3.48,8.88-5.33,1.69,3.09,3.24,5.92,4.87,8.91,3.23-1.6,5.98-2.97,9.91-4.92.92,3.41,1.76,6.57,2.69,9.98,4.08-1.59,6.94-2.72,10.4-4.06,1.02,3.12,2.01,6.17,3.23,9.86,3.26-.79,6.38-1.55,9.82-2.38.58,3.35,1.13,6.56,1.75,10.13,3.26-.13,6.31-.25,9.96-.39-.18,3.31-.35,6.49-.55,10.19,3.05.76,6,1.49,9.97,2.49-4.63,6.11-5.82,11.8,4,14.82-3.21,2.67-5.52,4.58-8.9,7.39,1.89,2.33,3.99,4.92,6.55,8.06-5.16,1.46-8.27,2.35-11.65,3.32.29,3.3.55,6.35.87,9.92-3.37-.07-6.57-.14-10.26-.21-.46,3.15-.91,6.16-1.47,9.93-3.16-.65-6.28-1.29-9.74-2.01l-3.4,9.4-9.48-3.43c-1.5,3.11-2.88,6.03-4.39,9.17-2.99-1.41-5.73-2.71-9.04-4.28-1.74,2.98-3.35,5.75-5.13,8.79-2.84-1.75-5.45-3.35-8.69-5.35-1.87,2.75-3.68,5.41-5.73,8.42-2.77-1.94-5.4-3.8-8.32-5.83v-.04Z"></path></svg>