<svg xmlns="http://www.w3.org/2000/svg" viewBox="0 0 230.02 121.62"><path d="m74.33,33.37c-.38-2.86-1.84-2.51-3-2.45-3.73.18-7.41.68-10.8,2.37-3.41,1.7-6.57,2.11-8.91-1.28-2.52.32-4.66.66-6.8.85-1.25.11-2.82.1-2.98-1.46-.1-1.05.58-2.28,1.17-3.27.36-.6,1.22-.92,1.86-1.34,7.94-5.26,16.8-7.84,26.13-9.21,6.43-.94,12.82-2.1,19.24-3.11,1.68-.29,3.38-.46,5.08-.53,3.55-.1,7.13.52,10.61-.81.63-.24,1.51.18,2.49.32,1.66-2.23,3.43-4.54,5.13-6.89,2.09-2.89,5.1-4.46,8.21-5.92,1.7-.8,3.41-1.1,4.57.66,1.03,1.57.65,3.23-.45,4.77-1.15,1.61-2.19,3.31-3.21,5.01-.21.36-.13.89-.21,1.5.94.52,1.85,1.09,2.81,1.57,5.84,2.92,5.82,2.9,10.13-1.75,2.4-2.6,5.51-4.05,8.88-4.84,1.64-.39,3.55-.51,4.58,1.34,1.05,1.87-.18,3.17-1.36,4.51-1.4,1.59-2.67,3.31-3.91,4.87.75,2.07,2.46,3.65,4.58,4.24,2.42.77,4.56,1.96,5.59,4.74-1.13,2.23-3.17,2.68-5.42,2.49-1.4-.08-2.78-.35-4.1-.79-3.29-1.22-6.39-.55-9.53.58.1,1.27,0,2.53,1.84,2.57,5.66.13,11.16,1.42,17,.9,5.33-.48,11.26,0,15.52,4.62,3.44,3.74,7.52,7.06,10.24,11.26,2.89,4.45,4.72,9.5,5.36,14.77.17,1.7.93,3.28,2.15,4.47,1.27,1.36,2.38,2.86,3.32,4.46,2.11,3.47,2.61,7.19-.33,10.29-3.07,3.24-2.41,6.73-1.99,9.62,2.05,1.96,3.82,3.22,5.01,4.9,1.89,2.66,1.05,5.14-1.88,6.31-5.47,2.19-11.24,2.2-16.99,1.92-1.75-.09-2.98-1.14-3.53-3.16-.72-2.68-1.93-5.23-3-7.81-.88-2.11-2.54-2.87-4.82-2.93-4.16-.12-8.31-.6-12.47-.73-1.67-.05-3.34.47-5.03.62-2.29.2-2.27,2.26-3.06,3.66-1.14,2.02-2.29,4.04-3.4,6.02-12.05,2.13-24.14,1.71-36.19,1.46-5.5-.11-10.99-.21-16.48.12-3.28.19-5.72-.93-7.39-3.79-1.01-1.74-2.14-3.41-3.17-5.06h-6.8c4.59,1.48,7.29,4.32,9.45,8.56,2.65,5.21.49,8.48-4.04,12.24,5.14,0,9.12-.01,13.1,0,7.91.03,15.82.04,23.72.12,1.69.02,3.38.34,5.07.51,1.07.16,2.16.24,3.24.25,5.88-.25,11.76-.53,17.64-.85,2.13-.11,4.25-.33,6.76-.54-2.58-4.36-2.54-8.62-1.29-12.9,1.91-6.53,9.88-10.59,16.32-8.38,4.11,1.41,7.81,3.26,8.56,8.18.43,2.75.06,5.56-1.07,8.11-.6,1.39-1.24,2.76-2.03,4.53,1.31.37,2.27.84,3.26.89,3.11.14,6.23.03,9.33.17,3.4.16,6.78.53,10.18.72,1.86.17,3.73.16,5.59-.02,8.47-1.09,17.04-1.09,25.51.02,2.45.3,4.98.06,7.46.11,1.62-.06,3.22.32,4.64,1.1-.7.3-1.4.83-2.12.85-4.35.14-8.71.12-13.07.22-10.94.27-21.89.54-32.83.88-7.4.24-14.79.58-22.18.93-4.89.23-9.78.54-14.68.85-4.95.31-9.89.86-14.84.94-9.02.14-18.05.23-27.07-.06-6.64-.22-13.26-1.12-19.9-1.63-2.48-.19-4.98-.06-7.46-.19-2.16-.11-4.3-.4-6.46-.58-1.08-.09-2.21-.34-3.23-.13-5.4,1.13-10.73.57-16.17.12-5.17-.43-10.44-.42-15.64-.67-3.73-.18-7.31.85-11,.41-5.21-.62-10.43-1.13-15.65-1.64-2.53-.25-5.07-.39-7.61-.58l-.12-.92c.6-.25,1.18-.68,1.79-.73,4.01-.33,8.03-.79,12.05-.8,4.15-.01,8.31.46,12.46.66,3.83.19,7.67.44,11.5.42,6.31-.04,12.61-.29,18.99-.45-1.38-2.69-3.27-5.1-3.77-7.77-.48-2.53.5-5.34.82-7.95-2.57.67-1.32,3.54-2.26,5.68-3.55,0-7.34.59-10.81-.21-2.27-.53-4.23-2.92-5.96-4.81-.52-.57-.23-2.61.41-3.39,3.42-4.16,2.77-9.02,2.69-13.78-.06-6.66.49-13.31,1.64-19.88.49-2.89.6-5.86,1.08-8.75,1.41-8.47,6.37-14.53,14.07-17.65,4-1.62,8.8-1.26,13.23-1.85,2.08-.27,4.16-.65,6.38-1.01Zm19.85,35.16c0,10.05-.35,19.57,1.11,29.22,12.44.97,24.52.34,36.91.13-.29-10.07-.56-19.55-.83-29.35h-37.18Zm-51.16,21.97c2.41.22,4.37.42,6.34.58,1.23.1,2.52.41,3.68.16,7.12-1.53,14.37-.92,21.54-1.54,2.06-.18,3.43.86,4.51,2.65,4.29,7.07,4.33,7.05,12.2,5.41.13-.03.23-.19.74-.65.3-9.29-.24-18.89-1.07-28.69-5.61-.27-10.89-1.22-15.97-.56-5.45.7-10.63-.8-15.98-.48-5.21.31-10.46.07-15.99.07v23.04Zm125.67-47.35c-2.25-2.84-4.42-4.63-6.58-4.7-5.26-.18-10.53-.15-15.79-.27-4.17-.09-8.35-.29-12.52-.41-2.32-.07-4.64-.16-6.96-.08-6.27.21-12.47,1.67-18.82.39-2.64-.53-5.47-.28-8.2-.2-4.46.12-8.92.36-13.37.63-1.69.1-3.36.48-5.05.59-5.56.38-11.17,1.32-16.66.85-4.45-.38-8.09.82-11.87,2.56,3.8.54,7.68,1.51,11.34.96,7.06-1.07,14.1-.86,21.15-.81,9.62.07,19.24.71,28.86.66,6.32-.03,12.63-.67,18.92.35.77.05,1.55.02,2.32-.1,2.13-.13,4.27-.37,6.4-.38,9.03-.05,18.06-.02,26.84-.02h0Zm-29.11,25.38c.52,2.89.2,5.7,1.45,7.25,3.19,3.97,6.96,7.58,12.77,7.22,4.45-.28,8.87-.86,13.34.01,2.9.56,5.39,1.42,6.45,4.53.21.63.77,1.15,1.37,2,.79-1.04,1.82-1.76,1.8-2.46-.13-5.09-.41-10.18-.79-15.26-.08-1.14-.75-2.23-1.13-3.3h-35.27Zm28.72-22.36c.99,1.55,1.94,2.89,2.75,4.32,1.45,2.55,3.29,5,4.13,7.75,2.95,9.69,4.09,19.68,4.23,29.8.02,1.47-.33,2.54-1.55,3.04-1.64.66-3.41,1-5.32,1.53-.4-1.57-.43-2.72-.97-3.53-.74-1.1-1.76-2.57-2.86-2.76-3.48-.6-7.11-1.21-10.56-.81-4.73.55-8.78.63-13.18-2.2-5.24-3.37-8.48-7-7.31-13.48.07-.38-.24-.83-.44-1.42l-3.13.27c.28,4.29.57,8.28.79,12.27.08,1.53,0,3.07-.05,4.61-.11,3.09-.35,6.18-.34,9.27,0,.89.67,1.78,1.34,3.43,1.57-3.07,2.89-5.34,3.92-7.74,1.13-2.65,3.01-3.82,5.81-3.69,4.13.2,8.26.41,12.39.64.61.11,1.23.18,1.84.21,5.69-.41,10.02,1.56,11.87,6.46h11.87v-9.93c-3.42-3.41-4.83-7.93-1.55-13.26-.72-2.61-1.52-4.94-1.98-7.34-1.1-5.76-3.87-10.75-6.84-15.68-1.02-1.68-2.31-2.42-4.87-1.76h0Zm-73.73-1.2c-.98,6.59-.59,18.06.52,20.56,12.04-.62,24.05,1.78,35.9.14v-19.98c-6.31-.93-12.26.32-18.19.13-5.98-.19-11.97-.55-18.23-.85h0Zm-50.69,20.12h47.95c-.24-6.73-.46-13.15-.71-20.16-3.5,0-6.57-.07-9.63.01-9.91.28-19.82.58-29.73.92-3.19.1-5.44,1.45-6.15,4.46-1.09,4.62-2.53,9.26-1.72,14.76h0Zm130.59,1.04c-.31-7.93-4.13-13.67-8.89-18.93-.48-.59-1.12-1.01-1.85-1.22-1.96-.38-3.96-.58-5.96-.61-4.17.05-8.35.3-12.52.47-1.65.07-3.3.12-4.74.17-.21.42-.39.86-.51,1.32-.54,5.38,1.65,10.69.21,16.15-.44,1.66,1.05,2.67,2.98,2.66,10.38-.04,20.76-.01,31.28-.01h0ZM106.97,31.34c-1.55-.87-2.83-2.21-4.12-2.22-7.68-.05-15.43-.98-23.2,1.26.36,1.05.7,2.01,1.1,3.15,2.92-.22,5.65-.61,8.38-.6,5.25,0,10.5.24,15.74.38,2.63.07,5.27.3,7.9.19,3.85-.17,7.68-.61,11.53-.91,1.22-.1,2.43-.13,3.8-.19.4-1.29.75-2.43,1.25-4.06-2.31-.08-4.29-.29-6.25-.18-2.93.16-5.84.7-8.76.79-2.81.09-5.62-.12-7.36,2.4h0Zm-30.32-6.43c1.07,1.2,1.39,1.91,1.79,1.96,1.37.17,2.82.37,4.15.1,5.98-1.23,11.95-1.16,17.98-.51.99.11,2.04-.36,3.22-.6-.25-1.4-.46-2.57-.75-4.18-3.23.28-6.25.51-9.27.83-1.84.19-3.83,1.12-5.45.66-3.99-1.15-7.15,1.05-11.67,1.73h0Zm51.35-3.48c-1.9-.22-3.54-.53-5.18-.57-3.7-.09-7.41-.13-11.11.01-1.19.04-2.55.65-2.5,2.22.03.84.35,1.94.94,2.43.61.5,1.73.57,2.61.53,5.07-.24,10.13-.56,15.19-.88.35-.1.69-.25.99-.45-.32-1.11-.65-2.26-.94-3.28h0Zm-83.79,8.67c9.8-.66,18.36-5.83,28.04-7.37.04-.78.08-1.51.13-2.58-10.33,1.39-19.86,3.92-28.17,9.96Zm93.46,16.14c-3.53.05-4.27.48-4.22,3.57.09,5.34.59,10.68.93,16.2l3.29-.16v-19.6Zm15.76,63c3.54,0,6.51-2.08,6.56-4.59.07-3.02-1.92-4.63-5.7-4.64-3.25,0-5.06,1.29-4.95,3.55.19,3.82,1.53,5.68,4.08,5.68h0Zm-87.68-8.29c-1.62.03-4.67,1.98-4.98,3.55-.22,1.18-.05,2.39.48,3.46.72,1.28,5.87,2.26,7.35,1.72,1.88-.69,2.52-2.19,2.43-4-.21-2.74-2.54-4.82-5.29-4.73Zm12.17-79.95c8.12-.54,16.1-1.04,24.06-1.64.46-.03.87-.87,1.96-2.05-2.8-.3-4.74-.81-6.64-.67-6.11.46-12.21,1.09-18.29,1.82-1.69.2-1.48,1.57-1.09,2.54h0Zm111.11,79.1c.12-2.5-1.4-2.81-3.03-2.84-3.09-.06-6.18-.06-9.27-.01-1.29.02-2.57.26-4,.41.3,1.23.45,1.97.66,2.7.2.68.45,1.35.69,2.05,4.99-1.54,10.2.41,14.94-2.32h0Zm-137.81-5.12c-8.73-1.79-11.39-.47-11.7,5.29,2.89,2.29,5.9.2,8.91.44.93-1.91,1.78-3.64,2.8-5.73h0ZM141.34,20.27c-.23-4.09,2.08-6.78,4.96-9.68-6.7-.69-9.66,3.27-12.41,7.58,2.32.65,4.52,1.27,7.45,2.1h0Zm9.96,6.56c-6.02-3.29-11.53-4.62-17.62-5.33-.13,1.04-.19,2.09-.2,3.14.02.4.41.78.61,1.12l17.21,1.07ZM124.5,3.48c-5.4.58-8.76,3.8-11.83,8,2.21,2.47,4.91,1.13,7.44,2.11-.46-4.59,1.33-7.6,4.39-10.11Zm2.82,14.97c-6.63-3.16-12.92-3.26-17.99-.49,2.91.17,5.69.4,8.48.47,2.91.08,5.83.02,9.5.02h0Zm-70.7,12.93c2.95-.77,5.86-1.71,8.84-2.29,6.83-1.32,6.85-1.25,7.74-3.15-6.15.18-11.68,1.9-16.57,5.44h0Zm127.61,41.19c-1.18,2.43-1.23,2.65-.48,6.44.13.72.47,1.38.98,1.91.35.32,1.13.17,1.56.21.52-3.1,1.34-6.16-2.05-8.55h0Z"></path><path d="m67.34,81.1c-1.34,2.36-3.25,3.31-5.85,3.13-2.16-.15-4.34-.04-6.51-.09-1.59-.04-2.82-.78-2.87-2.43-.11-3.98-.04-7.97-.04-12.51,3.82-.07,7.5-.19,11.17-.18,1.92,0,2.6,1.3,2.82,3.05.36,2.91.82,5.81,1.29,9.04Z"></path><path d="m142.21,72.39c2.46-.57,4.2-1.09,5.97-1.32.71.05,1.35.47,1.69,1.1.14.45-.44,1.42-.96,1.74-2.12,1.31-3.83.99-6.69-1.52Z"></path><path d="m98.95,63.64c-2.15-4.01-1.27-8.85-.86-13.55.19-2.25,2.29-3.32,4.46-3.36,7.26-.11,14.53-.17,21.79-.03,3.45.07,4.3,1.14,4.41,4.59.08,2.64.05,5.28,0,7.91-.06,3.69-.66,4.38-4.31,4.44-4.81.08-9.62,0-14.43,0-3.54,0-7.09,0-11.06,0Z"></path><path d="m49.84,47.5c9.62-.27,19-.59,28.38-.76,2,.04,4,.3,5.94.77,3.81.8,4.66,1.75,5.22,5.41.07.46.04.93.07,1.39q.43,7.85-7.29,8.5c-1.69.15-3.35.65-5.04.73-7.34.37-14.68.73-22.02.91-1.96.05-3.97-.47-5.91-.92-2.85-.68-3.93-2.58-3.29-5.51.13-.61.3-1.2.52-1.78,1.05-2.73,2.13-5.45,3.42-8.74Z"></path><path d="m143.57,63.54c.11-5.64-1.2-10.7,1.3-15.49,5.14-1.82,10.23-.59,15.22-.27,4.15.27,6.85,3.32,8.86,6.79.77,1.34,1.39,2.75,1.86,4.22.8,2.49-.43,4.67-2.84,4.71-7.88.12-15.76.04-24.4.04Z"></path></svg>