<svg xmlns="http://www.w3.org/2000/svg" xmlns:xlink="http://www.w3.org/1999/xlink" viewBox="0 0 170 182" width="170" height="182" preserveAspectRatio="xMidYMid meet" style="width: 100%; height: 100%; transform: translate3d(0px, 0px, 0px); content-visibility: visible;"><defs><clipPath id="__lottie_element_32"><rect width="170" height="182" x="0" y="0"></rect></clipPath><clipPath id="__lottie_element_34"><path d="M0,0 L147,0 L147,157 L0,157z"></path></clipPath><clipPath id="__lottie_element_41"><path d="M0,0 L147,0 L147,157 L0,157z"></path></clipPath><clipPath id="__lottie_element_48"><path d="M0,0 L147,0 L147,157 L0,157z"></path></clipPath><clipPath id="__lottie_element_55"><path d="M0,0 L147,0 L147,157 L0,157z"></path></clipPath></defs><g clip-path="url(#__lottie_element_32)"><g clip-path="url(#__lottie_element_55)" transform="matrix(0.8660249710083008,0.4999997615814209,-0.4999997615814209,0.8660249710083008,63.097145080566406,-13.732940673828125)" opacity="1" style="display: block;"><g transform="matrix(1,0,0,1,0,0)" opacity="1" style="display: block;"><g opacity="1" transform="matrix(1,0,0,1,73.5,83.56099700927734)"><path fill="rgb(16,16,16)" fill-opacity="1" d=" M0,-67.76300048828125 C-37.3650016784668,-67.76300048828125 -67.76399993896484,-37.36399841308594 -67.76399993896484,0.0010000000474974513 C-67.76399993896484,37.3650016784668 -37.3650016784668,67.76300048828125 0,67.76300048828125 C37.3650016784668,67.76300048828125 67.76399993896484,37.3650016784668 67.76399993896484,0.0010000000474974513 C67.76399993896484,-37.36399841308594 37.3650016784668,-67.76300048828125 0,-67.76300048828125z M0,73.36299896240234 C-40.452999114990234,73.36299896240234 -73.36299896240234,40.452999114990234 -73.36299896240234,0.0010000000474974513 C-73.36299896240234,-40.45199966430664 -40.452999114990234,-73.36299896240234 0,-73.36299896240234 C40.452999114990234,-73.36299896240234 73.36299896240234,-40.45199966430664 73.36299896240234,0.0010000000474974513 C73.36299896240234,40.452999114990234 40.452999114990234,73.36299896240234 0,73.36299896240234z"></path></g></g></g><g clip-path="url(#__lottie_element_34)" transform="matrix(0.9999995827674866,0,0,0.9999995827674866,11.500030517578125,12.500030517578125)" opacity="1" style="display: block;"><g clip-path="url(#__lottie_element_48)" transform="matrix(1,0,0,1,0,0)" opacity="1" style="display: block;"><g transform="matrix(1,0,0,1,0,0)" opacity="1" style="display: block;"><g opacity="1" transform="matrix(1,0,0,1,93.78099822998047,82.03500366210938)"><path fill="rgb(16,16,16)" fill-opacity="1" d=" M12.597000122070312,-8.493000030517578 C12.324999809265137,-7.244999885559082 12.076000213623047,-6.107999801635742 11.831000328063965,-4.9710001945495605 C11.531999588012695,-3.5759999752044678 11.244999885559082,-2.178999900817871 10.9399995803833,-0.7839999794960022 C10.656000137329102,0.5120000243186951 10.345000267028809,1.8009999990463257 10.069999694824219,3.0999999046325684 C10.003999710083008,3.4079999923706055 9.84000015258789,3.4560000896453857 9.586000442504883,3.4679999351501465 C8.180999755859375,3.5399999618530273 6.769000053405762,3.572999954223633 5.369999885559082,3.7079999446868896 C4.107999801635742,3.8310000896453857 2.8580000400543213,4.054999828338623 1.6050000190734863,4.251999855041504 C0.5640000104904175,4.414000034332275 -0.4819999933242798,4.558000087738037 -1.5069999694824219,4.788000106811523 C-3.381999969482422,5.206999778747559 -5.236000061035156,5.701000213623047 -7.0329999923706055,6.4070000648498535 C-8.425999641418457,6.954999923706055 -9.73799991607666,7.627999782562256 -11.008999824523926,8.493000030517578 C-11.53499984741211,8.041000366210938 -12.062000274658203,7.583000183105469 -12.602999687194824,7.116000175476074 C-11.848999977111816,5.96999979019165 -11.121999740600586,4.85699987411499 -10.383999824523926,3.753000020980835 C-9.298999786376953,2.128000020980835 -8.201000213623047,0.5090000033378601 -7.10699987411499,-1.1130000352859497 C-6.201000213623047,-2.4600000381469727 -5.296000003814697,-3.809000015258789 -4.38700008392334,-5.156000137329102 C-4.249000072479248,-5.359000205993652 -4.060999870300293,-5.535999774932861 -3.9679999351501465,-5.757999897003174 C-3.740999937057495,-6.309000015258789 -3.2739999294281006,-6.328999996185303 -2.7869999408721924,-6.394999980926514 C-1.4859999418258667,-6.567999839782715 -0.19200000166893005,-6.783999919891357 1.1089999675750732,-6.9670000076293945 C1.9249999523162842,-7.084000110626221 2.747999906539917,-7.170000076293945 3.563999891281128,-7.2779998779296875 C4.769000053405762,-7.435999870300293 5.9710001945495605,-7.611999988555908 7.176000118255615,-7.76800012588501 C8.33899974822998,-7.918000221252441 9.501999855041504,-8.048999786376953 10.664999961853027,-8.199000358581543 C11.137999534606934,-8.258999824523926 11.604000091552734,-8.35200023651123 12.072999954223633,-8.427000045776367 C12.21399974822998,-8.447999954223633 12.354999542236328,-8.463000297546387 12.602999687194824,-8.489999771118164 C12.602999687194824,-8.489999771118164 12.597000122070312,-8.493000030517578 12.597000122070312,-8.493000030517578z"></path></g><g opacity="1" transform="matrix(1,0,0,1,53.17499923706055,82.0459976196289)"><path fill="rgb(16,16,16)" fill-opacity="1" d=" M-12.5600004196167,-8.479000091552734 C-12.144000053405762,-8.446000099182129 -11.770000457763672,-8.428000450134277 -11.39900016784668,-8.380000114440918 C-9.668000221252441,-8.152000427246094 -7.936999797821045,-7.915999889373779 -6.205999851226807,-7.683000087738037 C-4.493000030517578,-7.453000068664551 -2.7820000648498535,-7.216000080108643 -1.069000005722046,-6.986000061035156 C-0.0430000014603138,-6.8480000495910645 0.9819999933242798,-6.72599983215332 2.005000114440918,-6.578999996185303 C2.5220000743865967,-6.504000186920166 3.0490000247955322,-6.429999828338623 3.5450000762939453,-6.270999908447266 C3.750999927520752,-6.204999923706055 3.9179999828338623,-5.939000129699707 4.056000232696533,-5.735000133514404 C5.107999801635742,-4.190999984741211 6.151000022888184,-2.6410000324249268 7.189000129699707,-1.0880000591278076 C8.319000244140625,0.6029999852180481 9.437999725341797,2.299999952316284 10.5649995803833,3.99399995803833 C11.187000274658203,4.931000232696533 11.824000358581543,5.857999801635742 12.4399995803833,6.797999858856201 C12.51200008392334,6.908999919891357 12.5600004196167,7.1620001792907715 12.496999740600586,7.218999862670898 C12.119999885559082,7.572000026702881 11.675000190734863,7.85699987411499 11.315999984741211,8.225000381469727 C11.059000015258789,8.484999656677246 10.857999801635742,8.345000267028809 10.66100025177002,8.234000205993652 C10.206000328063965,7.982999801635742 9.789999961853027,7.6529998779296875 9.321000099182129,7.432000160217285 C8.345999717712402,6.973999977111816 7.366000175476074,6.513000011444092 6.3520002365112305,6.1539998054504395 C5.113999843597412,5.7170000076293945 3.8529999256134033,5.328000068664551 2.5789999961853027,5.0229997634887695 C1.2419999837875366,4.703000068664551 -0.12200000137090683,4.48199987411499 -1.4819999933242798,4.263000011444092 C-2.555000066757202,4.089000225067139 -3.638000011444092,3.9700000286102295 -4.71999979019165,3.8529999256134033 C-5.802000045776367,3.7360000610351562 -6.888000011444092,3.6500000953674316 -7.96999979019165,3.556999921798706 C-8.513999938964844,3.51200008392334 -9.057999610900879,3.490999937057495 -9.60200023651123,3.446000099182129 C-9.876999855041504,3.424999952316284 -10.017999649047852,3.305000066757202 -10.083999633789062,2.990999937057495 C-10.347000122070312,1.746000051498413 -10.666999816894531,0.5099999904632568 -10.942000389099121,-0.7319999933242798 C-11.133000373840332,-1.597000002861023 -11.277000427246094,-2.4760000705718994 -11.458999633789062,-3.3440001010894775 C-11.812000274658203,-5.0320000648498535 -12.180000305175781,-6.716000080108643 -12.557000160217285,-8.484999656677246 C-12.557000160217285,-8.484999656677246 -12.5600004196167,-8.479000091552734 -12.5600004196167,-8.479000091552734z"></path></g></g></g><g clip-path="url(#__lottie_element_41)" transform="matrix(1,0,0,1,0,0)" opacity="1" style="display: block;"><g transform="matrix(1,0,0,1,0,0)" opacity="1" style="display: block;"><g opacity="1" transform="matrix(1,0,0,1,73.51899719238281,132.86700439453125)"><path fill="rgb(16,16,16)" fill-opacity="1" d=" M-9.656000137329102,-10.031999588012695 C-9.595999717712402,-9.708999633789062 -9.536999702453613,-9.388999938964844 -9.479999542236328,-9.065999984741211 C-9.064000129699707,-6.829999923706055 -7.798999786376953,-5.164000034332275 -6.059000015258789,-3.7660000324249268 C-4.552000045776367,-2.553999900817871 -2.818000078201294,-1.8930000066757202 -1.0240000486373901,-1.2669999599456787 C0.13600000739097595,-0.8629999756813049 1.1100000143051147,-1.3209999799728394 2.124000072479248,-1.649999976158142 C3.440000057220459,-2.078000068664551 4.663000106811523,-2.7190001010894775 5.769000053405762,-3.559999942779541 C7.201000213623047,-4.64900016784668 8.387999534606934,-5.945000171661377 8.994999885559082,-7.677000045776367 C9.215999603271484,-8.312000274658203 9.37600040435791,-8.967000007629395 9.564000129699707,-9.61299991607666 C9.602999687194824,-9.748000144958496 9.644000053405762,-9.883000373840332 9.770000457763672,-10.013999938964844 C9.817999839782715,-9.762999534606934 9.895000457763672,-9.515000343322754 9.904000282287598,-9.262999534606934 C9.95199966430664,-8.119999885559082 10.045000076293945,-6.9710001945495605 9.996999740600586,-5.830999851226807 C9.937000274658203,-4.380000114440918 9.777999877929688,-2.930999994277954 9.619999885559082,-1.4859999418258667 C9.520999908447266,-0.5910000205039978 9.407999992370605,0.31299999356269836 9.192999839782715,1.187000036239624 C8.972000122070312,2.0869998931884766 8.6850004196167,2.984999895095825 8.307999610900879,3.8289999961853027 C7.888999938964844,4.769000053405762 7.416999816894531,5.710999965667725 6.818999767303467,6.543000221252441 C5.909999847412109,7.806000232696533 4.74399995803833,8.817000389099121 3.236999988555908,9.350000381469727 C2.0290000438690186,9.777999877929688 0.7789999842643738,10.03499984741211 -0.49799999594688416,9.942999839782715 C-2.9800000190734863,9.760000228881836 -5.098999977111816,8.852999687194824 -6.671999931335449,6.815000057220459 C-7.673999786376953,5.517000198364258 -8.390999794006348,4.09499979019165 -8.815999984741211,2.5239999294281006 C-9.097000122070312,1.4830000400543213 -9.321999549865723,0.4230000078678131 -9.534000396728516,-0.6330000162124634 C-10.029999732971191,-3.0989999771118164 -10.045000076293945,-5.599999904632568 -10.003000259399414,-8.10200023651123 C-9.991000175476074,-8.739999771118164 -9.883999824523926,-9.376999855041504 -9.817999839782715,-10.017000198364258 C-9.763999938964844,-10.02299976348877 -9.706999778747559,-10.029000282287598 -9.652999877929688,-10.03499984741211 C-9.652999877929688,-10.03499984741211 -9.656000137329102,-10.031999588012695 -9.656000137329102,-10.031999588012695z"></path></g></g></g><g transform="matrix(1,0,0,1,0,0)" opacity="1" style="display: block;"><g opacity="1" transform="matrix(1,0,0,1,73.5,77.16600036621094)"><path fill="rgb(16,16,16)" fill-opacity="1" d=" M48.27399826049805,12.47599983215332 C49.08100128173828,13.642999649047852 49.85300064086914,14.833999633789062 50.64799880981445,16.010000228881836 C51.45500183105469,17.20400047302246 52.277000427246094,18.392000198364258 53.09000015258789,19.579999923706055 C53.595001220703125,20.319000244140625 54.11000061035156,21.055999755859375 54.60300064086914,21.801000595092773 C54.79999923706055,22.097000122070312 54.79499816894531,22.429000854492188 54.465999603271484,22.624000549316406 C53.41899871826172,23.240999221801758 52.361000061035156,23.832000732421875 51.305999755859375,24.424999237060547 C49.433998107910156,25.475000381469727 47.553001403808594,26.517000198364258 45.683998107910156,27.56999969482422 C44.41299819946289,28.288000106811523 43.154998779296875,29.030000686645508 41.887001037597656,29.753999710083008 C40.4640007019043,30.565000534057617 39.034000396728516,31.357999801635742 37.61399841308594,32.17499923706055 C37.051998138427734,32.499000549316406 36.74399948120117,32.51900100708008 36.358001708984375,32.183998107910156 C35.959999084472656,31.836999893188477 35.55500030517578,31.50200080871582 35.15999984741211,31.14900016784668 C34.31700134277344,30.395000457763672 33.47600173950195,29.63800048828125 32.641998291015625,28.878000259399414 C31.533000946044922,27.871999740600586 30.43199920654297,26.857999801635742 29.322999954223633,25.851999282836914 C29.226999282836914,25.764999389648438 29.111000061035156,25.64299964904785 29,25.639999389648438 C28.874000549316406,25.639999389648438 28.652999877929688,25.72599983215332 28.631999969482422,25.81599998474121 C28.533000946044922,26.229000091552734 28.48900032043457,26.656999588012695 28.420000076293945,27.07900047302246 C28.190000534057617,28.52400016784668 27.97100067138672,29.969999313354492 27.719999313354492,31.41200065612793 C27.5049991607666,32.66299819946289 27.268999099731445,33.90800094604492 27.014999389648438,35.150001525878906 C26.749000549316406,36.44900131225586 26.466999053955078,37.74700164794922 26.149999618530273,39.0369987487793 C25.871999740600586,40.1619987487793 25.538000106811523,41.27299880981445 25.226999282836914,42.388999938964844 C24.993999481201172,43.22100067138672 24.792999267578125,44.06399917602539 24.51799964904785,44.88100051879883 C23.809999465942383,46.99399948120117 23.091999053955078,49.104000091552734 22.326000213623047,51.19599914550781 C21.913000106811523,52.32099914550781 21.405000686645508,53.40999984741211 20.909000396728516,54.50199890136719 C20.416000366210938,55.595001220703125 19.948999404907227,56.70500183105469 19.360000610351562,57.74300003051758 C18.53499984741211,59.19200134277344 17.643999099731445,60.606998443603516 16.711000442504883,61.98699951171875 C15.956999778747559,63.10300064086914 15.177000045776367,64.2249984741211 14.267999649047852,65.21199798583984 C12.86299991607666,66.74500274658203 11.38599967956543,68.20500183105469 9.616000175476074,69.35700225830078 C7.966000080108643,70.4280014038086 6.264999866485596,71.35600280761719 4.34499979019165,71.79299926757812 C3.0739998817443848,72.08300018310547 1.7790000438690186,72.31700134277344 0.48100000619888306,72.43299865722656 C0.32100000977516174,72.4469985961914 0.16099999845027924,72.44599914550781 0,72.44499969482422 C-0.16099999845027924,72.44599914550781 -0.32100000977516174,72.4469985961914 -0.48100000619888306,72.43299865722656 C-1.7790000438690186,72.31700134277344 -3.072999954223633,72.08300018310547 -4.343999862670898,71.79299926757812 C-6.263999938964844,71.35600280761719 -7.966000080108643,70.4280014038086 -9.616000175476074,69.35700225830078 C-11.38599967956543,68.20500183105469 -12.86299991607666,66.74500274658203 -14.267999649047852,65.21199798583984 C-15.177000045776367,64.2249984741211 -15.958000183105469,63.10300064086914 -16.711000442504883,61.98699951171875 C-17.643999099731445,60.606998443603516 -18.53499984741211,59.19200134277344 -19.360000610351562,57.74300003051758 C-19.948999404907227,56.70500183105469 -20.416000366210938,55.595001220703125 -20.909000396728516,54.50199890136719 C-21.405000686645508,53.40999984741211 -21.913000106811523,52.32099914550781 -22.326000213623047,51.19599914550781 C-23.090999603271484,49.104000091552734 -23.80900001525879,46.99399948120117 -24.51799964904785,44.88100051879883 C-24.792999267578125,44.06399917602539 -24.993999481201172,43.22100067138672 -25.226999282836914,42.388999938964844 C-25.538000106811523,41.27299880981445 -25.87299919128418,40.1619987487793 -26.150999069213867,39.0369987487793 C-26.468000411987305,37.74700164794922 -26.749000549316406,36.44900131225586 -27.014999389648438,35.150001525878906 C-27.268999099731445,33.90800094604492 -27.5049991607666,32.66299819946289 -27.719999313354492,31.41200065612793 C-27.97100067138672,29.969999313354492 -28.190000534057617,28.52400016784668 -28.420000076293945,27.07900047302246 C-28.48900032043457,26.656999588012695 -28.533000946044922,26.229000091552734 -28.631999969482422,25.81599998474121 C-28.652999877929688,25.72599983215332 -28.874000549316406,25.639999389648438 -29,25.639999389648438 C-29.111000061035156,25.64299964904785 -29.226999282836914,25.764999389648438 -29.322999954223633,25.851999282836914 C-30.43199920654297,26.857999801635742 -31.533000946044922,27.871999740600586 -32.641998291015625,28.878000259399414 C-33.47600173950195,29.63800048828125 -34.316001892089844,30.395000457763672 -35.159000396728516,31.14900016784668 C-35.55400085449219,31.50200080871582 -35.959999084472656,31.836999893188477 -36.358001708984375,32.183998107910156 C-36.74399948120117,32.51900100708008 -37.051998138427734,32.499000549316406 -37.61399841308594,32.17499923706055 C-39.034000396728516,31.357999801635742 -40.4640007019043,30.565000534057617 -41.887001037597656,29.753999710083008 C-43.154998779296875,29.030000686645508 -44.41299819946289,28.288000106811523 -45.683998107910156,27.56999969482422 C-47.553001403808594,26.517000198364258 -49.43299865722656,25.475000381469727 -51.30500030517578,24.424999237060547 C-52.36000061035156,23.832000732421875 -53.41999816894531,23.240999221801758 -54.465999603271484,22.624000549316406 C-54.79499816894531,22.429000854492188 -54.79999923706055,22.097000122070312 -54.60300064086914,21.801000595092773 C-54.11000061035156,21.055999755859375 -53.595001220703125,20.319000244140625 -53.09000015258789,19.579999923706055 C-52.277000427246094,18.392000198364258 -51.45500183105469,17.20400047302246 -50.64799880981445,16.010000228881836 C-49.85300064086914,14.833999633789062 -49.08100128173828,13.642999649047852 -48.27399826049805,12.47599983215332 C-48.08300018310547,12.201000213623047 -48.05799865722656,12.050999641418457 -48.34199905395508,11.829999923706055 C-49.340999603271484,11.057999610900879 -50.31800079345703,10.26099967956543 -51.30500030517578,9.47700023651123 C-52.30699920654297,8.680999755859375 -53.30500030517578,7.888000011444092 -54.310001373291016,7.0980000495910645 C-54.43600082397461,6.999000072479248 -54.6150016784668,6.946000099182129 -54.70500183105469,6.822999954223633 C-54.79499816894531,6.697000026702881 -54.8849983215332,6.47599983215332 -54.83399963378906,6.359000205993652 C-54.30500030517578,5.173999786376953 -53.736000061035156,4.006999969482422 -53.207000732421875,2.822000026702881 C-52.551998138427734,1.3559999465942383 -51.926998138427734,-0.12600000202655792 -51.28099822998047,-1.5950000286102295 C-50.9370002746582,-2.375999927520752 -50.56999969482422,-3.1449999809265137 -50.2140007019043,-3.9230000972747803 C-49.643001556396484,-5.173999786376953 -49.069000244140625,-6.421000003814697 -48.50699996948242,-7.675000190734863 C-47.66400146484375,-9.54800033569336 -46.8380012512207,-11.428000450134277 -45.992000579833984,-13.29800033569336 C-45.47200012207031,-14.449999809265137 -44.90999984741211,-15.581999778747559 -44.395999908447266,-16.733999252319336 C-43.722999572753906,-18.2450008392334 -43.0890007019043,-19.770999908447266 -42.42499923706055,-21.28499984741211 C-42.10200119018555,-22.020999908447266 -41.737998962402344,-22.739999771118164 -41.40299987792969,-23.472999572753906 C-40.832000732421875,-24.726999282836914 -40.27199935913086,-25.986000061035156 -39.70100021362305,-27.243000030517578 C-39.0099983215332,-28.760000228881836 -38.31399917602539,-30.277999877929688 -37.619998931884766,-31.79199981689453 C-37.46200180053711,-32.141998291015625 -37.46200180053711,-32.42399978637695 -37.78200149536133,-32.722999572753906 C-38.558998107910156,-33.45000076293945 -39.27399826049805,-34.249000549316406 -40.060001373291016,-34.96699905395508 C-40.40999984741211,-35.290000915527344 -40.41299819946289,-35.59199905395508 -40.28099822998047,-35.98099899291992 C-39.86199951171875,-37.22600173950195 -39.446998596191406,-38.47100067138672 -39.042999267578125,-39.72200012207031 C-38.54399871826172,-41.26300048828125 -38.0620002746582,-42.8129997253418 -37.566001892089844,-44.356998443603516 C-37.24599838256836,-45.36000061035156 -36.88800048828125,-46.34700012207031 -36.595001220703125,-47.35599899291992 C-36.17599868774414,-48.79499816894531 -35.85100173950195,-50.262001037597656 -35.393001556396484,-51.68899917602539 C-35.04899978637695,-52.75400161743164 -34.5620002746582,-53.775001525878906 -34.137001037597656,-54.816001892089844 C-34.08599853515625,-54.8129997253418 -34.03799819946289,-54.80699920654297 -33.9900016784668,-54.80400085449219 C-33.93600082397461,-54.57699966430664 -33.891998291015625,-54.34600067138672 -33.823001861572266,-54.12200164794922 C-33.4010009765625,-52.7239990234375 -33.04199981689453,-51.29999923706055 -32.51900100708008,-49.941001892089844 C-32.25299835205078,-49.24700164794922 -31.7450008392334,-48.61899948120117 -31.246000289916992,-48.047000885009766 C-30.309999465942383,-46.972999572753906 -29.34600067138672,-45.9109992980957 -28.305999755859375,-44.9379997253418 C-27.44499969482422,-44.132999420166016 -26.476999282836914,-43.44499969482422 -25.52899932861328,-42.744998931884766 C-24.715999603271484,-42.143001556396484 -23.875,-41.58100128173828 -23.025999069213867,-41.029998779296875 C-22.413000106811523,-40.63199996948242 -21.773000717163086,-40.2760009765625 -21.13599967956543,-39.91400146484375 C-20.356000900268555,-39.47100067138672 -19.577999114990234,-39.01300048828125 -18.777000427246094,-38.60900115966797 C-17.59600067138672,-38.01100158691406 -16.393999099731445,-37.45100021362305 -15.194999694824219,-36.88800048828125 C-14.348999977111816,-36.49300003051758 -13.494000434875488,-36.11000061035156 -12.638999938964844,-35.736000061035156 C-12.204999923706055,-35.547000885009766 -11.765000343322754,-35.35599899291992 -11.310999870300293,-35.22700119018555 C-10.934000015258789,-35.12200164794922 -10.77299976348877,-34.87099838256836 -10.694999694824219,-34.54199981689453 C-10.276000022888184,-32.814998626708984 -9.885000228881836,-31.079999923706055 -9.456999778747559,-29.356000900268555 C-9.170000076293945,-28.191999435424805 -8.829000473022461,-27.042999267578125 -8.532999992370605,-25.881999969482422 C-8.131999969482422,-24.308000564575195 -7.752999782562256,-22.72800064086914 -7.363999843597412,-21.15399932861328 C-6.999000072479248,-19.67300033569336 -6.629000186920166,-18.19099998474121 -6.261000156402588,-16.709999084472656 C-5.895999908447266,-15.244000434875488 -5.5289998054504395,-13.777000427246094 -5.160999774932861,-12.310999870300293 C-4.828999996185303,-10.991000175476074 -4.5,-9.675000190734863 -4.164999961853027,-8.357999801635742 C-3.799999952316284,-6.913000106811523 -3.430000066757202,-5.4670000076293945 -3.062000036239624,-4.021999835968018 C-2.5959999561309814,-2.194000005722046 -2.128000020980835,-0.3610000014305115 -1.6679999828338623,1.4700000286102295 C-1.2970000505447388,2.947999954223633 -0.9419999718666077,4.428999900817871 -0.5680000185966492,5.9039998054504395 C-0.3919999897480011,6.5980000495910645 -0.19499999284744263,7.284999847412109 0,7.9710001945495605 C0.19499999284744263,7.284999847412109 0.3919999897480011,6.5980000495910645 0.5680000185966492,5.9039998054504395 C0.9419999718666077,4.428999900817871 1.2970000505447388,2.947999954223633 1.6679999828338623,1.4700000286102295 C2.128000020980835,-0.3610000014305115 2.5959999561309814,-2.194000005722046 3.062000036239624,-4.021999835968018 C3.430000066757202,-5.4670000076293945 3.799999952316284,-6.913000106811523 4.164999961853027,-8.357999801635742 C4.5,-9.675000190734863 4.828999996185303,-10.991000175476074 5.160999774932861,-12.310999870300293 C5.5289998054504395,-13.777000427246094 5.895999908447266,-15.244000434875488 6.261000156402588,-16.709999084472656 C6.629000186920166,-18.19099998474121 6.999000072479248,-19.67300033569336 7.363999843597412,-21.15399932861328 C7.752999782562256,-22.72800064086914 8.131999969482422,-24.308000564575195 8.532999992370605,-25.881999969482422 C8.829000473022461,-27.042999267578125 9.170000076293945,-28.191999435424805 9.456999778747559,-29.356000900268555 C9.883999824523926,-31.079999923706055 10.276000022888184,-32.814998626708984 10.694999694824219,-34.54199981689453 C10.77299976348877,-34.87099838256836 10.934000015258789,-35.12200164794922 11.310999870300293,-35.22700119018555 C11.765999794006348,-35.35599899291992 12.204999923706055,-35.547000885009766 12.638999938964844,-35.736000061035156 C13.494000434875488,-36.11000061035156 14.348999977111816,-36.49300003051758 15.194999694824219,-36.88800048828125 C16.393999099731445,-37.45100021362305 17.59600067138672,-38.01100158691406 18.777000427246094,-38.60900115966797 C19.577999114990234,-39.01300048828125 20.356000900268555,-39.47100067138672 21.13599967956543,-39.91400146484375 C21.773000717163086,-40.2760009765625 22.413000106811523,-40.63199996948242 23.025999069213867,-41.029998779296875 C23.875,-41.58100128173828 24.715999603271484,-42.143001556396484 25.52899932861328,-42.744998931884766 C26.476999282836914,-43.44499969482422 27.44499969482422,-44.132999420166016 28.305999755859375,-44.9379997253418 C29.34600067138672,-45.9109992980957 30.309999465942383,-46.972999572753906 31.246000289916992,-48.047000885009766 C31.7450008392334,-48.61899948120117 32.25299835205078,-49.24700164794922 32.51900100708008,-49.941001892089844 C33.04199981689453,-51.29999923706055 33.4010009765625,-52.7239990234375 33.823001861572266,-54.12200164794922 C33.891998291015625,-54.34600067138672 33.93600082397461,-54.57699966430664 33.9900016784668,-54.80400085449219 C34.03799819946289,-54.80699920654297 34.08599853515625,-54.8129997253418 34.137001037597656,-54.816001892089844 C34.5620002746582,-53.775001525878906 35.04899978637695,-52.75400161743164 35.393001556396484,-51.68899917602539 C35.85100173950195,-50.262001037597656 36.176998138427734,-48.79499816894531 36.595001220703125,-47.35599899291992 C36.88800048828125,-46.34700012207031 37.24599838256836,-45.36000061035156 37.566001892089844,-44.356998443603516 C38.0620002746582,-42.8129997253418 38.54399871826172,-41.26300048828125 39.042999267578125,-39.72200012207031 C39.446998596191406,-38.47100067138672 39.86199951171875,-37.22600173950195 40.28099822998047,-35.98099899291992 C40.41299819946289,-35.59199905395508 40.40999984741211,-35.290000915527344 40.060001373291016,-34.96699905395508 C39.27399826049805,-34.249000549316406 38.558998107910156,-33.45000076293945 37.78200149536133,-32.722999572753906 C37.46200180053711,-32.42399978637695 37.46200180053711,-32.141998291015625 37.619998931884766,-31.79199981689453 C38.31399917602539,-30.277999877929688 39.0099983215332,-28.760000228881836 39.70100021362305,-27.243000030517578 C40.27199935913086,-25.986000061035156 40.832000732421875,-24.726999282836914 41.40299987792969,-23.472999572753906 C41.737998962402344,-22.739999771118164 42.10200119018555,-22.020999908447266 42.42499923706055,-21.28499984741211 C43.0890007019043,-19.770999908447266 43.722999572753906,-18.2450008392334 44.395999908447266,-16.733999252319336 C44.90999984741211,-15.581999778747559 45.47200012207031,-14.449999809265137 45.992000579833984,-13.29800033569336 C46.8380012512207,-11.428000450134277 47.66400146484375,-9.54800033569336 48.50699996948242,-7.675000190734863 C49.069000244140625,-6.421000003814697 49.643001556396484,-5.173999786376953 50.2140007019043,-3.9230000972747803 C50.56999969482422,-3.1449999809265137 50.9379997253418,-2.375999927520752 51.28200149536133,-1.5950000286102295 C51.928001403808594,-0.12600000202655792 52.551998138427734,1.3559999465942383 53.207000732421875,2.822000026702881 C53.736000061035156,4.006999969482422 54.30500030517578,5.173999786376953 54.83399963378906,6.359000205993652 C54.8849983215332,6.47599983215332 54.79499816894531,6.697000026702881 54.70500183105469,6.822999954223633 C54.6150016784668,6.946000099182129 54.43600082397461,6.999000072479248 54.310001373291016,7.0980000495910645 C53.30500030517578,7.888000011444092 52.30699920654297,8.680999755859375 51.305999755859375,9.47700023651123 C50.319000244140625,10.26099967956543 49.340999603271484,11.057999610900879 48.34199905395508,11.829999923706055 C48.05799865722656,12.050999641418457 48.08300018310547,12.201000213623047 48.27399826049805,12.47599983215332z M6.734000205993652,76.56800079345703 C6.734000205993652,76.56800079345703 8.253999710083008,76.38700103759766 8.253999710083008,76.38700103759766 C10.123000144958496,75.53299713134766 11.230999946594238,74.48600006103516 12.494999885559082,73.50199890136719 C13.36299991607666,72.82599639892578 14.22599983215332,72.14600372314453 15.057999610900879,71.4280014038086 C16.32900047302246,70.33599853515625 17.535999298095703,69.16000366210938 18.698999404907227,67.9540023803711 C19.665000915527344,66.9540023803711 20.562000274658203,65.87999725341797 21.426000595092773,64.79100036621094 C22.520000457763672,63.4109992980957 23.538000106811523,61.97200012207031 24.61400032043457,60.57699966430664 C25.562000274658203,59.34700012207031 26.496999740600586,58.0989990234375 27.52899932861328,56.944000244140625 C28.458999633789062,55.9010009765625 29.44700050354004,54.9010009765625 30.485000610351562,53.96500015258789 C31.391000747680664,53.14899826049805 32.98899841308594,51.95800018310547 34.00199890136719,51.279998779296875 C35.47600173950195,50.292999267578125 36.952999114990234,49.29499816894531 38.52000045776367,48.474998474121094 C40.242000579833984,47.571998596191406 41.99399948120117,46.72800064086914 43.847999572753906,46.077999114990234 C45.72600173950195,45.41999816894531 47.630001068115234,44.89899826049805 49.57400131225586,44.56999969482422 C51.194000244140625,44.29499816894531 52.861000061035156,44.270999908447266 54.507999420166016,44.13600158691406 C54.61600112915039,44.12699890136719 54.720001220703125,44.099998474121094 54.768001556396484,44.090999603271484 C54.66899871826172,43.4900016784668 54.48699951171875,42.926998138427734 54.507999420166016,42.374000549316406 C54.555999755859375,41.125999450683594 55.439998626708984,40.5 56.49300003051758,40.150001525878906 C57.72200012207031,39.7400016784668 58.98699951171875,39.4379997253418 60.23699951171875,39.09400177001953 C60.40399932861328,39.04899978637695 60.58100128173828,39.04100036621094 60.75400161743164,39.013999938964844 C60.75400161743164,39.013999938964844 60.75400161743164,39.01300048828125 60.75400161743164,39.01300048828125 C60.75400161743164,39.01300048828125 60.75699996948242,39.01300048828125 60.75699996948242,39.01300048828125 C60.75600051879883,39.01300048828125 60.755001068115234,39.013999938964844 60.75400161743164,39.013999938964844 C60.792999267578125,39.053001403808594 60.83399963378906,39.090999603271484 60.87300109863281,39.132999420166016 C60.87300109863281,39.132999420166016 72.07499694824219,18.582000732421875 72.07499694824219,18.582000732421875 C72.30400085449219,16.878000259399414 72.47799682617188,15.159000396728516 72.59300231933594,13.427000045776367 C72.59300231933594,13.427000045776367 67.82099914550781,5.895999908447266 67.82099914550781,5.895999908447266 C67.78800201416016,5.909999847412109 67.75499725341797,5.923999786376953 67.7239990234375,5.936999797821045 C67.26599884033203,5.179999828338623 66.79299926757812,4.432000160217285 66.35399627685547,3.6630001068115234 C66.21700286865234,3.4240000247955322 66.08499908447266,3.183000087738037 65.94999694824219,2.943000078201294 C65.94999694824219,2.943000078201294 65.91600036621094,2.8889999389648438 65.91600036621094,2.8889999389648438 C65.91600036621094,2.8889999389648438 65.91400146484375,2.878999948501587 65.91400146484375,2.878999948501587 C65.28199768066406,1.7549999952316284 64.66200256347656,0.6240000128746033 64.01899719238281,-0.49300000071525574 C63.104000091552734,-2.0820000171661377 62.159000396728516,-3.6540000438690186 61.237998962402344,-5.236999988555908 C60.16999816894531,-7.067999839782715 59.10900115966797,-8.902999877929688 58.05400085449219,-10.743000030517578 C57.10900115966797,-12.392000198364258 56.1879997253418,-14.052000045776367 55.22200012207031,-15.689000129699707 C55.03099822998047,-16.011999130249023 55.06399917602539,-16.180999755859375 55.314998626708984,-16.402000427246094 C56.20899963378906,-17.19499969482422 57.09400177001953,-17.996999740600586 57.981998443603516,-18.792999267578125 C58.777000427246094,-19.5049991607666 59.56999969482422,-20.216999053955078 60.36800003051758,-20.926000595092773 C60.53099822998047,-21.070999145507812 61.11199951171875,-21.57900047302246 61.577999114990234,-21.882999420166016 C61.577999114990234,-21.882999420166016 55.16899871826172,-39.32400131225586 55.16899871826172,-39.32400131225586 C54.777000427246094,-40.47600173950195 54.417999267578125,-41.637001037597656 54.047000885009766,-42.79800033569336 C53.736000061035156,-43.779998779296875 53.430999755859375,-44.76100158691406 53.11399841308594,-45.7400016784668 C52.71900177001953,-46.96699905395508 52.319000244140625,-48.191001892089844 51.92100143432617,-49.415000915527344 C51.53499984741211,-50.60599899291992 51.150001525878906,-51.797000885009766 50.763999938964844,-52.987998962402344 C50.321998596191406,-54.35300064086914 49.875999450683594,-55.7140007019043 49.44300079345703,-57.082000732421875 C49.15599822998047,-57.983001708984375 48.891998291015625,-58.891998291015625 48.608001708984375,-59.792999267578125 C48.42599868774414,-60.36800003051758 48.2130012512207,-60.93000030517578 48.034000396728516,-61.50400161743164 C47.75600051879883,-62.38999938964844 47.505001068115234,-63.28499984741211 47.21500015258789,-64.16799926757812 C46.90700149536133,-65.10800170898438 46.55699920654297,-66.03199768066406 46.24300003051758,-66.97200012207031 C46.073001861572266,-67.48400115966797 45.9630012512207,-68.01599884033203 45.79199981689453,-68.53099822998047 C45.3849983215332,-69.75499725341797 44.95199966430664,-70.96700286865234 44.54199981689453,-72.19100189208984 C44.209999084472656,-73.17900085449219 43.88399887084961,-74.16899871826172 43.582000732421875,-75.16500091552734 C43.39099884033203,-75.79900360107422 43.244998931884766,-76.44599914550781 43.07699966430664,-77.08899688720703 C43.01100158691406,-77.08899688720703 42.94300079345703,-77.08899688720703 42.87699890136719,-77.08899688720703 C42.85599899291992,-76.7750015258789 42.880001068115234,-76.4489974975586 42.80500030517578,-76.14700317382812 C42.46099853515625,-74.7770004272461 41.7140007019043,-73.60299682617188 40.790000915527344,-72.58300018310547 C39.229000091552734,-70.86199951171875 37.494998931884766,-69.31800079345703 35.58100128173828,-67.99199676513672 C34.34000015258789,-67.13300323486328 33.090999603271484,-66.2770004272461 31.808000564575195,-65.48100280761719 C30.399999618530273,-64.60700225830078 28.954999923706055,-63.78799819946289 27.507999420166016,-62.97700119018555 C26.297000885009766,-62.29800033569336 25.065000534057617,-61.65700149536133 23.82699966430664,-61.02899932861328 C23.82699966430664,-61.02899932861328 15.300000190734863,-57.257999420166016 15.300000190734863,-57.257999420166016 C14.336999893188477,-56.83599853515625 13.380000114440918,-56.404998779296875 12.41100025177002,-56.000999450683594 C11.489999771118164,-55.6150016784668 10.560999870300293,-55.25 9.633999824523926,-54.8849983215332 C8.763999938964844,-54.54399871826172 7.881999969482422,-54.233001708984375 7.01800012588501,-53.882999420166016 C5.807000160217285,-53.391998291015625 4.607999801635742,-52.86800003051758 3.3970000743865967,-52.37099838256836 C2.321000099182129,-51.928001403808594 1.2400000095367432,-51.49800109863281 0.1550000011920929,-51.07899856567383 C0.10899999737739563,-51.06100082397461 0.05400000140070915,-51.0620002746582 0,-51.05799865722656 C-0.05400000140070915,-51.0620002746582 -0.10899999737739563,-51.06100082397461 -0.1550000011920929,-51.07899856567383 C-1.2400000095367432,-51.49800109863281 -2.321000099182129,-51.928001403808594 -3.3970000743865967,-52.37099838256836 C-4.607999801635742,-52.86800003051758 -5.807000160217285,-53.391998291015625 -7.01800012588501,-53.882999420166016 C-7.881999969482422,-54.233001708984375 -8.763999938964844,-54.54399871826172 -9.633999824523926,-54.8849983215332 C-10.560999870300293,-55.25 -11.489999771118164,-55.6150016784668 -12.41100025177002,-56.000999450683594 C-13.380000114440918,-56.404998779296875 -14.336999893188477,-56.83599853515625 -15.300000190734863,-57.257999420166016 C-15.300000190734863,-57.257999420166016 -23.82699966430664,-61.02899932861328 -23.82699966430664,-61.02899932861328 C-25.065000534057617,-61.65700149536133 -26.297000885009766,-62.29800033569336 -27.507999420166016,-62.97700119018555 C-28.954999923706055,-63.78799819946289 -30.399999618530273,-64.60700225830078 -31.808000564575195,-65.48100280761719 C-33.090999603271484,-66.2770004272461 -34.34000015258789,-67.13300323486328 -35.58100128173828,-67.99199676513672 C-37.494998931884766,-69.31800079345703 -39.229000091552734,-70.86199951171875 -40.790000915527344,-72.58300018310547 C-41.7140007019043,-73.60299682617188 -42.46099853515625,-74.7770004272461 -42.80500030517578,-76.14700317382812 C-42.880001068115234,-76.4489974975586 -42.85599899291992,-76.7750015258789 -42.87699890136719,-77.08899688720703 C-42.94300079345703,-77.08899688720703 -43.01100158691406,-77.08899688720703 -43.07699966430664,-77.08899688720703 C-43.24399948120117,-76.44599914550781 -43.39099884033203,-75.79900360107422 -43.582000732421875,-75.16500091552734 C-43.88399887084961,-74.16899871826172 -44.209999084472656,-73.17900085449219 -44.54199981689453,-72.19100189208984 C-44.95199966430664,-70.96700286865234 -45.3849983215332,-69.75499725341797 -45.79199981689453,-68.53099822998047 C-45.96200180053711,-68.01599884033203 -46.073001861572266,-67.48400115966797 -46.24300003051758,-66.97200012207031 C-46.55699920654297,-66.03199768066406 -46.90700149536133,-65.10800170898438 -47.21500015258789,-64.16799926757812 C-47.505001068115234,-63.28499984741211 -47.75600051879883,-62.38999938964844 -48.034000396728516,-61.50400161743164 C-48.2130012512207,-60.93000030517578 -48.42599868774414,-60.36800003051758 -48.608001708984375,-59.792999267578125 C-48.891998291015625,-58.891998291015625 -49.15599822998047,-57.983001708984375 -49.44300079345703,-57.082000732421875 C-49.87699890136719,-55.7140007019043 -50.32099914550781,-54.35300064086914 -50.763999938964844,-52.987998962402344 C-51.150001525878906,-51.797000885009766 -51.53499984741211,-50.60599899291992 -51.92100143432617,-49.415000915527344 C-52.319000244140625,-48.191001892089844 -52.71900177001953,-46.96699905395508 -53.11399841308594,-45.7400016784668 C-53.430999755859375,-44.76100158691406 -53.736000061035156,-43.779998779296875 -54.047000885009766,-42.79800033569336 C-54.417999267578125,-41.637001037597656 -54.777000427246094,-40.47600173950195 -55.16899871826172,-39.32400131225586 C-55.16899871826172,-39.32400131225586 -61.60100173950195,-21.832000732421875 -61.60100173950195,-21.832000732421875 C-61.44200134277344,-21.701000213623047 -60.53099822998047,-21.070999145507812 -60.36800003051758,-20.926000595092773 C-59.56999969482422,-20.216999053955078 -58.777000427246094,-19.5049991607666 -57.981998443603516,-18.792999267578125 C-57.09400177001953,-17.996999740600586 -56.20899963378906,-17.19499969482422 -55.314998626708984,-16.402000427246094 C-55.06399917602539,-16.180999755859375 -55.03099822998047,-16.011999130249023 -55.22200012207031,-15.689000129699707 C-56.1879997253418,-14.052000045776367 -57.10900115966797,-12.392000198364258 -58.05400085449219,-10.743000030517578 C-59.10900115966797,-8.902999877929688 -60.16999816894531,-7.067999839782715 -61.237998962402344,-5.236999988555908 C-62.159000396728516,-3.6540000438690186 -63.104000091552734,-2.0820000171661377 -64.01899719238281,-0.49300000071525574 C-64.66200256347656,0.6240000128746033 -65.28199768066406,1.7549999952316284 -65.91400146484375,2.878999948501587 C-65.91400146484375,2.878999948501587 -65.91600036621094,2.8889999389648438 -65.91600036621094,2.8889999389648438 C-65.91600036621094,2.8889999389648438 -65.94999694824219,2.943000078201294 -65.94999694824219,2.943000078201294 C-66.08499908447266,3.183000087738037 -66.21700286865234,3.4240000247955322 -66.35399627685547,3.6630001068115234 C-66.79399871826172,4.432000160217285 -67.26699829101562,5.179999828338623 -67.7239990234375,5.936999797821045 C-67.75499725341797,5.923999786376953 -67.78800201416016,5.909999847412109 -67.82099914550781,5.895999908447266 C-67.82099914550781,5.895999908447266 -72.59300231933594,13.427000045776367 -72.59300231933594,13.427000045776367 C-72.47799682617188,15.159000396728516 -72.30400085449219,16.878000259399414 -72.07499694824219,18.582000732421875 C-72.07499694824219,18.582000732421875 -60.874000549316406,39.132999420166016 -60.874000549316406,39.132999420166016 C-60.834999084472656,39.090999603271484 -60.792999267578125,39.053001403808594 -60.75400161743164,39.013999938964844 C-60.755001068115234,39.013999938964844 -60.75600051879883,39.01300048828125 -60.75699996948242,39.01300048828125 C-60.75699996948242,39.01300048828125 -60.75400161743164,39.01300048828125 -60.75400161743164,39.01300048828125 C-60.75400161743164,39.01300048828125 -60.75400161743164,39.013999938964844 -60.75400161743164,39.013999938964844 C-60.58100128173828,39.04100036621094 -60.40399932861328,39.04899978637695 -60.23699951171875,39.09400177001953 C-58.98699951171875,39.4379997253418 -57.72200012207031,39.7400016784668 -56.49300003051758,40.150001525878906 C-55.441001892089844,40.5 -54.555999755859375,41.125999450683594 -54.507999420166016,42.374000549316406 C-54.48699951171875,42.926998138427734 -54.66899871826172,43.4900016784668 -54.768001556396484,44.090999603271484 C-54.720001220703125,44.099998474121094 -54.61600112915039,44.12699890136719 -54.507999420166016,44.13600158691406 C-52.861000061035156,44.270999908447266 -51.194000244140625,44.29499816894531 -49.57400131225586,44.56999969482422 C-47.630001068115234,44.89899826049805 -45.72600173950195,45.41999816894531 -43.847999572753906,46.077999114990234 C-42.069000244140625,46.70199966430664 -40.38399887084961,47.50400161743164 -38.729000091552734,48.36600112915039 C-37.91999816894531,48.7869987487793 -37.130001068115234,49.24300003051758 -36.3650016784668,49.7400016784668 C-34.483001708984375,50.9630012512207 -32.499000549316406,52.1870002746582 -30.78499984741211,53.696998596191406 C-29.636999130249023,54.70899963378906 -28.548999786376953,55.80099868774414 -27.52899932861328,56.944000244140625 C-26.496999740600586,58.0989990234375 -25.562000274658203,59.34700012207031 -24.61400032043457,60.57699966430664 C-23.538000106811523,61.97200012207031 -22.520000457763672,63.4109992980957 -21.426000595092773,64.79100036621094 C-20.562000274658203,65.87999725341797 -19.665000915527344,66.9540023803711 -18.698999404907227,67.9540023803711 C-17.535999298095703,69.16000366210938 -16.32900047302246,70.33599853515625 -15.057999610900879,71.4280014038086 C-14.63700008392334,71.79100036621094 -14.208999633789062,72.14399719238281 -13.776000022888184,72.49199676513672 C-11.720999717712402,74.14399719238281 -9.105999946594238,76.25700378417969 -6.486999988555908,76.56800079345703 C-6.486999988555908,76.56800079345703 -6.486999988555908,76.56800079345703 -6.486999988555908,76.56800079345703 C-2.0950000286102295,77.08999633789062 2.3420000076293945,77.08999633789062 6.734000205993652,76.56800079345703z"></path></g></g></g></g></svg>