<svg width="122" height="49" viewBox="0 0 122 49" fill="white" xmlns="http://www.w3.org/2000/svg"><path d="M21.3386 46.0481L19.261 43.9035L21.3386 41.8272V46.0481V46.0481ZM3.02207 46.9555L5.24245 44.6517H18.0099L20.2998 46.9555H3.02207V46.9555ZM5.68602 5.27381L8.17936 2.82849V39.9342L5.68602 42.31V5.27381ZM22.5872 40.1768C22.5872 39.9468 22.5063 39.785 22.3433 39.6928C22.1802 39.6005 22.0539 39.5538 21.9604 39.5538H9.35716V1.29305C9.35716 1.01377 9.32304 0.86212 9.25353 0.838109C9.18403 0.815362 9.12716 0.779977 9.08167 0.733219C8.98941 0.640967 8.89843 0.592945 8.80744 0.592945H7.15827C6.51756 0.592945 5.85283 0.582835 5.16536 0.558824C4.47789 0.536077 3.80306 0.52344 3.13834 0.52344H1.45505C1.22505 0.431188 1.05318 0.51333 0.938182 0.768604C0.824446 1.02514 0.767578 1.22228 0.767578 1.36129V48.3519H22.6554L22.5859 40.1768H22.5872Z"></path><path d="M54.985 34.6101C54.985 36.3363 54.6539 37.9438 53.9904 39.435C53.3282 40.9275 52.4411 42.2317 51.3277 43.3513C50.2156 44.471 48.9089 45.3442 47.4089 45.9748C45.9076 46.6042 44.3267 46.9188 42.6636 46.9188C39.9845 46.9188 37.6301 46.1518 35.5981 44.6163C35.8281 44.3358 36.0833 44.0325 36.3601 43.7064C36.6368 43.3817 36.8681 43.0784 37.0526 42.7991C37.9296 43.4512 38.8193 43.9048 39.7191 44.1601C40.6189 44.4166 41.5995 44.5443 42.6623 44.5443C44.0474 44.5443 45.3288 44.289 46.5066 43.7759C47.6844 43.2641 48.7232 42.5539 49.6242 41.6466C50.5253 40.7392 51.2279 39.6802 51.7372 38.4695C52.2452 37.2601 52.4992 35.956 52.4992 34.5595V5.23466L54.9837 2.7906V34.6101H54.985ZM34.007 5.23466L36.5004 2.7906V34.5595C36.5004 35.3974 36.6495 36.2239 36.9503 37.0377C37.2498 37.8528 37.7009 38.539 38.3012 39.0976L36.8466 40.9136C34.9523 39.2379 34.007 37.1199 34.007 34.5595V5.23466ZM56.1729 0.486816H48.0736C47.7463 0.625827 47.5846 0.835606 47.5846 1.11489V34.5595C47.5846 35.956 47.0955 37.1199 46.1199 38.0512C45.143 38.9826 43.9817 39.4477 42.632 39.4477C41.1913 39.4477 40.0047 38.9599 39.0746 37.9817C38.1445 37.0036 37.6794 35.8637 37.6794 34.5595V1.25517C37.6794 1.16291 37.5998 1.01126 37.4393 0.801486C37.2788 0.591706 37.1512 0.486816 37.0602 0.486816H29.7773C29.5018 0.486816 29.2958 0.673849 29.1581 1.04539L29.0898 34.5595C29.0898 36.4223 29.4475 38.1801 30.1653 39.8318C30.8831 41.4848 31.8549 42.9393 33.082 44.1955C34.3091 45.4516 35.7447 46.4538 37.3875 47.1981C39.0304 47.9437 40.8021 48.3153 42.7002 48.3153C44.5984 48.3153 46.312 47.9551 47.9788 47.2335C49.6457 46.5119 51.08 45.5351 52.2844 44.3004C53.4874 43.067 54.4479 41.6124 55.1657 39.9367C55.8835 38.261 56.2424 36.4703 56.2424 34.5608L56.1729 0.486816Z"></path><path d="M87.5369 18.9196C86.8899 20.4095 86.0141 21.715 84.9084 22.8359C83.8026 23.9568 82.501 24.8414 81.006 25.4885C79.5097 26.1368 77.9326 26.4603 76.2746 26.4603H70.9568L68.7465 24.1565H76.2746C77.6558 24.1565 78.9335 23.8899 80.1087 23.354C81.2827 22.8195 82.319 22.0966 83.2175 21.1893C84.1148 20.2819 84.8174 19.2242 85.3241 18.0122C85.8309 16.8029 86.0836 15.4987 86.0836 14.1023C86.0836 12.7058 85.7841 11.4257 85.1851 10.1228C84.5874 8.81986 83.8279 7.70272 82.9054 6.77135L84.2879 4.88713C85.6224 6.05103 86.6599 7.43608 87.3992 9.04101C88.1372 10.6472 88.5075 12.3343 88.5075 14.1035C88.5075 15.8727 88.184 17.4322 87.5369 18.9209V18.9196ZM70.1505 46.0102L67.5877 43.4967V25.0639L70.1505 27.4384V46.0102ZM64.992 46.8481L67.0417 44.8236L69.1635 46.8481H64.992V46.8481ZM70.1505 8.93992V19.3644L67.6976 21.8135L67.5889 6.42004L70.1518 8.93865L70.1505 8.93992ZM81.1639 14.1364C81.1639 15.5442 80.6825 16.7157 79.7182 17.6533C78.7553 18.591 77.6091 19.0599 76.2796 19.0599H71.3966V9.28491H76.2796C77.6546 9.28491 78.8121 9.77777 79.7524 10.7622C80.6913 11.7467 81.1627 12.8726 81.1627 14.1376L81.1639 14.1364ZM76.2948 5.58345C77.1251 5.58345 77.9566 5.73004 78.7881 6.02449C79.6197 6.31894 80.4044 6.66899 81.1437 7.07465C80.9125 7.43608 80.6698 7.76717 80.4158 8.06668C80.1618 8.36618 79.9192 8.65558 79.6892 8.93486C78.6731 8.23602 77.5408 7.88723 76.2948 7.88723H70.9618L68.7452 5.58345H76.2948V5.58345ZM88.4026 8.06162C87.5016 6.22289 86.2429 4.67482 84.6266 3.41867L84.4875 3.27966C82.0865 1.41819 79.3378 0.486816 76.2455 0.486816H63.2923C63.061 0.486816 62.8992 0.580333 62.807 0.766101C62.7147 0.953133 62.668 1.09214 62.668 1.18566V47.5482C62.668 48.0145 62.831 48.247 63.157 48.247H71.2563L71.3953 27.8592H76.2948C78.1348 27.8592 79.8711 27.4991 81.5039 26.7775C83.1379 26.0559 84.5634 25.079 85.7816 23.8456C86.9998 22.6122 87.9666 21.1577 88.6794 19.482C89.3934 17.8063 89.7497 16.0155 89.7497 14.106C89.7497 11.9185 89.2998 9.90541 88.4001 8.06668L88.4026 8.06162Z"></path><path d="M119.868 34.5595C119.868 36.282 119.544 37.8882 118.897 39.3769C118.25 40.8668 117.373 42.1697 116.266 43.2869C115.158 44.404 113.853 45.2772 112.353 45.9053C110.851 46.5334 109.27 46.8481 107.607 46.8481C104.883 46.8481 102.504 46.1037 100.473 44.6138L101.928 42.7296C103.635 43.9402 105.53 44.5443 107.607 44.5443C108.946 44.5443 110.216 44.2776 111.416 43.7418C112.617 43.2073 113.667 42.4844 114.568 41.5783C115.468 40.6709 116.172 39.6119 116.681 38.4013C117.189 37.1919 117.443 35.9117 117.443 34.5608V14.1023C117.443 12.1473 116.889 10.3325 115.781 8.65558L117.582 6.91036C118.228 7.98201 118.77 9.13327 119.21 10.3667C119.648 11.6001 119.868 12.8448 119.868 14.1023V34.5595V34.5595ZM112.526 14.1023V34.5595C112.526 35.956 112.048 37.1199 111.095 38.0512C110.141 38.9826 108.99 39.4476 107.641 39.4476C106.293 39.4476 105.177 38.9826 104.153 38.0512C103.13 37.1211 102.619 35.956 102.619 34.5595V14.1023C102.619 12.7526 103.107 11.6127 104.084 10.6813C105.06 9.75123 106.246 9.28491 107.641 9.28491C108.943 9.28491 110.083 9.75123 111.058 10.6813C112.035 11.6127 112.524 12.7526 112.524 14.1023H112.526ZM98.9494 34.5595V14.1023C98.9494 12.9396 99.1744 11.8326 99.6255 10.7862C100.077 9.73859 100.7 8.83629 101.496 8.07805C102.291 7.31981 103.209 6.71448 104.248 6.26207C105.287 5.80965 106.407 5.58471 107.607 5.58471C110.285 5.58471 112.409 6.56157 113.98 8.51657L112.318 10.1228C111.671 9.47195 110.967 8.93612 110.205 8.51657C109.443 8.09701 108.578 7.88849 107.608 7.88849C105.853 7.88849 104.387 8.49382 103.211 9.70447C102.033 10.9151 101.444 12.3811 101.444 14.1035V34.5608C101.444 35.3987 101.593 36.2138 101.894 37.0049C102.193 37.7972 102.643 38.4708 103.245 39.0294L101.79 40.9148C100.798 40.077 100.078 39.1229 99.6268 38.0525C99.1756 36.9821 98.9507 35.8182 98.9507 34.5608L98.9494 34.5595ZM120.041 8.76047C119.325 7.10877 118.344 5.66559 117.097 4.43219C115.851 3.19878 114.406 2.23329 112.768 1.53445C111.129 0.835606 109.409 0.486816 107.608 0.486816C105.714 0.486816 103.937 0.848244 102.276 1.56983C100.612 2.29142 99.1693 3.27966 97.946 4.53708C96.7214 5.79322 95.7635 7.24904 95.071 8.90074C94.3785 10.5537 94.0322 12.2875 94.0322 14.1023V34.5595C94.0322 36.4223 94.3785 38.1801 95.071 39.8318C95.7635 41.4848 96.7214 42.9393 97.946 44.1955C99.1693 45.4516 100.612 46.4411 102.276 47.1627C103.937 47.8843 105.714 48.2445 107.608 48.2445C109.503 48.2445 111.199 47.8843 112.838 47.1627C114.476 46.4411 115.907 45.4643 117.132 44.2296C118.355 42.9962 119.325 41.553 120.041 39.9013C120.756 38.2496 121.115 36.469 121.115 34.5595V14.1023C121.115 12.194 120.756 10.4134 120.041 8.76047Z"></path></svg>