<svg xmlns="http://www.w3.org/2000/svg" viewBox="0 0 149.69 189.38" fill="white"><path d="m29.95,130.79c-1.73-3.17-3.6-6.45-5.33-9.8-1.64-3.18-.41-6.08,1.4-8.78-4.89-6.27-5.96-13.33-5.32-20.76.13-2.15.61-4.26,1.42-6.25,1.92-4.33,4.27-8.46,6.29-12.74.92-2.1,1.72-4.25,2.39-6.44,1.09-3.27,2.1-6.56,3.2-10.04-2.84-5.7-1.65-10.86,3.51-15.05,3.95-3.21,8.73-3.77,13.48-4.36,2.45-.31,4.95-.2,7.43-.37,1.56-.11,3.11-.38,4.67-.58l.08-1.04c-2.16-.86-4.32-1.73-6.6-2.64,9.26-11.31,31.89-15.37,52.86-7.48,22.05,8.3,37.87,29.83,34.73,47.38-3.08,1.52-4.68-1.16-6.79-2.48-2.18-1.36-4.43-2.6-6.66-3.89l-.7.82c.78.87,1.5,1.78,2.33,2.6,4.49,4.4,9.19,8.59,13.45,13.19,5.97,6.44,4.86,15.65-1.83,21.29-1.89,1.6-3.11,4.2-4.16,6.55-1.96,4.37-3.29,9.02-5.37,13.32-5.83,12-14.53,20.8-28,23.94-.96.22-1.96.32-2.93.51-.95.19-1.88.45-3.23.78,0,2.86.03,5.61,0,8.36-.11,8.34-4.32,13.87-12.1,16-1.27.35-2.54.69-3.87,1.05-1.9,3.22-.79,6.46,0,9.6.51,2.01,1.01,3.85-1.18,5.83-4.06.95-4.57-7.37-6.96-10.79-.57.03-.97-.08-1.19.07-6.49,4.47-13.67,4.25-21.01,3.2-3.76-.54-7.59-.63-11.31-1.34-6.97-1.33-10.78-6.41-10.37-13.49.28-3.06.09-6.15-.54-9.16-3.2,2.17-5.23,4.3-5.46,7.77-.1,2.15-.35,4.28-.74,6.4-.61,2.99-3.24,9.61-4.44,8.21-2.25-17.69,1.48-33.68,8.87-49.39Zm71.55-30.2c2.86,3.89-1,8.41,2.66,11.21.2.28,2.51-.16,3.66-.23.54,3.13-4.42,3.89-2.27,7.39l8-2.91c-.76,5.55-6.94,5.53-8.26,9.77-.21.87,1.13.87,1.49.8,6.37-1.2,9.15-7.57,15.09-10.85-1.23,5.14-4.42,8.12-7.41,10.92-3.02,2.82-6.73,4.88-10.14,7.28,0,0-.9.89.43,1.02s3.52-.41,4.96-1.2c2.3-1.25,4.73-2.65,6.4-4.59,4.08-4.74,7.76-9.83,11.59-14.79.85-1.1,1.61-2.27,2.41-3.41l1.1.46c-.35,1.65-.43,3.42-1.1,4.93-4.66,10.67-11.63,19.15-22.86,23.46-.77.3-2.11.96-2.07,1.57s.49.66.61.68c.45.16.93.22,1.4.17,5.66-1.65,10.7-4.39,14.72-8.76,7.6-8.25,11.97-18.12,14.18-29.02.11-.57-.37-1.26-.62-2.04-1.82,1.5-1.12,4.82-4.8,4.46,0-1.78-.13-3.49.03-5.18.18-1.83.64-3.64.98-5.46l-.91-.32c-1.08,1.96-2.16,3.92-3.24,5.89l-1.26-.33c-.05-1.7-.47-3.48-.07-5.07.8-3.23-.47-5.56-2.73-7.43-2.41-2-5.01-3.78-7.61-5.54-10.42-7.04-21.06-13.7-32.68-18.64-5.1-2.21-10.46-3.77-15.95-4.65,2.28,3.27,4.15,6.17,6.25,8.9,1.99,2.59,5.86,3.56,6.36,7.53-3.87-2.36-8.05-4.22-10.49-8.39-.71-1.29-1.7-2.4-2.88-3.27-2.22-1.5-4.4-.93-5.11,1.61-1.58,5.61-7.04,8.05-9.82,12.62-.41-.07-.8-.18-1.18-.34-.21-2.65,1.02-5.21,3.24-6.69,4.74-3.11,4.89-8.96,9.7-13.18-5.39-.7-9.44-1.28-13.5-1.75-2.49-.29-4.47.46-5.84,2.8-.77,1.32-2.02,2.36-3.85,4.41-.26-2.84-.41-4.42-.62-6.65-2.59,2.82-3.49,5.42-3.29,8.29,1.46,1.81,4.72.56,5.07,3.63-2.85,2.32-7.89,1.78-9.16,6.87,9.83,1.65,14.39,8.21,16.25,17.01,3.27.48,6.15.9,9.09,1.33.98-2.58,1.75-4.92,2.76-7.14,1.64-3.63,4.38-6.31,8.19-7.42,7.16-2.07,14.89,1.3,18.73,7.87.9,1.54,1.7,3.14,2.64,4.88,4.45-1.35,8.67-2.8,12.99-3.89,3.03-.76,6.13-1.26,9.25-1.49,3.13-.23,5.8,1.18,7.91,3.48,2.26,2.46,2.57,5.47.81,8.45-.67-.95-1.26-1.95-1.77-3-1.59-4.1-4.74-5.32-8.76-4.72-6.86,1.03-13.27,3.59-19.07,5.4-1.05,4.8-1.36,9.03-2.92,12.73-4.31,10.22-15.64,12.81-24.3,5.99-3.61-2.85-5.11-6.79-6.12-11.03-1.46-6.17-3.27-7.37-10.13-6.28-1.99,8.38-6.43,14.54-16.05,15.41-1.85.17-3.29,1.61-2.45,4.25l3.25,1.18q.64,8.87,9.52,10l-.55,3.28,3.63,2.75c3.61-3.5,7.45-3.08,11.62-1.42,2.53,1,5.34,1.32,8.67,2.1-1.55-3.27-5.34-4.83-3.37-9.1,1.01.92,2.07,1.78,3.18,2.58,1.32.93,2.75,1.7,4.25,2.29,2.63.92,5.37,1.51,8.05,2.33,2.14.65,4.04.75,5.46-1.22-1.54-2.93-6.72-1.39-6.42-6.54,3.45.69,7.02.59,9.67,2.1,5.52,3.15,9.26,1.65,12.54-3.06.11-.12.24-.22.39-.31,1.94-1.56,2.26-3.48,1.41-5.77-.81-1.99-1.44-4.05-1.88-6.15-.76-4.46-.55-8.79,2.92-12.86h0Zm-28.55,73.91c-4.43-4.27-8.35-8.19-14.58-9.24-3-.5-5.75-2.99-8.4-4.88-1.38-.99-2.3-2.63-2.97-3.43-3.76.9-6.88,1.65-10.37,2.48,0,2.66-.09,5.43.02,8.19.2,4.96,2.81,8.07,7.78,8.65,6.06.71,12.17,1.17,18.27,1.42,3.46.14,6.91-.47,10.25-3.19h0Zm20.03-28.28c-1.18.27-1.19-4.96-1.65-7.32-1.83,3.18-.54,6.83-3.48,10.59-1.69,1.54-1.4-7.17-2.17-11.1-3.03,6.1-1.14,13.19-6.62,16.59l5.66,14.03c7.95-.85,11.56-4.6,10.81-11.27-1.58-.66-3.36,2.07-5.01-.49-.49-.75,3.68-6.79,5.8-10.07,2.4-3.73,2.1-7.36.06-12.16,0,0-2.22,10.92-3.39,11.19Zm26.66-86.62l.75-.78c-.39-.66-.64-1.51-1.2-1.94-3.13-2.39-6.12-5.12-9.58-6.9-6.58-3.39-13.4-6.36-20.24-9.22-3.32-1.39-6.88-2.23-10.39-3.12-1.29-.33-3-.77-3.81,1.91,5.05,1.75,10.16,3.32,15.12,5.28,5.2,2.06,10.35,4.32,15.35,6.84,4.78,2.41,9.34,5.27,13.99,7.93h0Zm6.3-16.26c-6-12.59-29.4-20.66-43.29-15.72,15.85,1.28,30.94,4.63,43.29,15.72h0Zm-71.65,96.24c-.83-.87-1.08.18-1.08.18-.25,5.08,1.39,9.47,5.5,12.78,4.5,3.63,12.05,13.37,11,12.04s.44,1.32,1.67.77.21-3.54-.84-4.77c-2.8-3.4-5.82-6.62-9.03-9.64-2.49-2.27-4.62-4.6-5.66-7.86-.45-1.2-1.15-3.07-1.57-3.51Zm-4.93-.61c-1.48-.99-1.14,5.25-.84,7.56.75,5.81,3.14,10.72,8.66,13.49.81.41,3.33,1.15,3.79.41s-6.23-6.32-7.99-9.62c-1.8-3.35-2.33-7.39-3.62-11.84h0Zm28.08,22.98c.86-5.01-9.07-14.91-16.01-20.84-2.7,0,12.02,17.67,16.01,20.84h0Zm-8.53-72.67c.62,5.6,6.05,14.77,9.92,17.3.22-.82.81-1.76.55-2.23-2.92-5.4-6.43-10.46-10.47-15.07h0Zm-38.32,63.46c6.37-1.68,9.9-9.85,7.37-14.26-.44-1.32-9.05,14.43-7.37,14.26Zm12.43-13.41s-.6-.47-1.11.04c-.31.2-.5,4.54-1.08,6.72-.57,2.14-3.36,5.91-2.47,6.44,2.3,1,3.41-.15,4.12-1.69,1.72-3.79,2.63-7.64.55-11.51h0Zm-5.16-42.32c-.66-5.18-4.32-9.22-8.36-9.59,2.45,3.83,4.09,7.83,8.36,9.59h0Zm90.3-24.36c-2.58,3.54-3.43,6.76-2.67,10.96,3.96-3.51,4.83-7.06,2.67-10.96h0Zm-25.55-3.49c3.09-2.45,4.02-5.65,4.42-9.42-4.47,1.94-5.95,5.13-4.42,9.43h0Zm37.39,28.18c4.43-4.54,4.98-7.09,2.52-10.13-2.37,2.81-2.95,5.93-2.51,10.13h0Zm-66.84-40.33c2.6-3.26,3.87-6.15,3.83-9.79-4.43,1.98-5.43,4.3-3.83,9.79h0Z"></path><path d="m53.36,130.72c-1.84-1.76-3.69-3.72-5.73-5.45-2.65-2.24-5.23,1.1-8.63.37,2.72-7.88,5.27-15.44,10.57-21.53,6.23,1.55,7.14,2.7,7.15,8.65h-2.66c.51,2.38.97,4.57,1.57,7.41l2.32-2.89c2.64,5.58,1.17,10.19-4.59,13.44Z"></path><path d="m63.67,174.58c-1.56.43-2.72,1.08-3.85,1.01-4.74-.29-9.52-.48-14.17-1.35-2.02-.38-3.88-2.16-5.54-3.61-.57-.5-.31-1.94-.49-3.4,6.61,4.66,13.66,4.53,20.6,4.96.8.11,1.57.34,2.3.69.24.1.36.5,1.15,1.7Z"></path><path d="m36.39,24.32l-2.38-.82c-.18-.94-.38-2-.59-3.06-.27-1.34-.33-2.78-.88-3.99-.75-1.66-2.29-2.87-1.99-5.07.26-1.87,0-3.82-.06-5.73-.13-1.88-.09-3.77.12-5.65,2.19,2.35,2.59,5.45,3.76,8.43l2.25,1.02,2.49,7.65,2.56.86c.29,1.73.49,3.35.83,4.94.97,4.51.5,5.17-4.64,6.13-.38-.66-.72-1.34-.99-2.05-.21-.88-.37-1.77-.46-2.67Z"></path><path d="m30.53,35.78l-9.88-5.67.68-2.28c-.92-.77-2.02-1.55-2.95-2.49-1.6-1.59-4.54-2.07-4.23-5.36.06-.65-1.48-1.46-2.3-2.18-1.17-1.03-2.35-2.05-3.52-3.07l.58-.9,12.64,5.2-.27,2.34c1.25.73,2.45,1.54,3.6,2.42,1.42,1.19,3.62,1.36,4.01,4.05.17,1.16,2.7,1.98,4.6,3.25l-2.97,4.69Z"></path><path d="m23.97,45.22h-6.95l.27-1.97c-1.25-.96-2.55-1.85-3.89-2.67-1.9-1.05-4.58-.6-5.6-3.39-.24-.66-1.93-.77-2.94-1.16-1.62-.63-3.24-1.27-4.86-1.91l.14-.84c2.42.05,4.86-.08,7.25.19,2.29.26,4.6-.36,6.84,1.58,1.55,1.34,4.37,1.21,6.97,1.82l.76,1.9,4.35,1.3c.35,2.18-2.35,5.15-2.35,5.15Z"></path></svg>