<svg width="326" height="253" viewBox="0 0 326 253" xmlns="http://www.w3.org/2000/svg" fill="white"><path d="M249.664 146.65C251.676 147.838 253.43 149.66 255.361 149.863C261.058 150.443 266.93 151.172 272.546 150.416C280.767 149.323 285.02 144.368 286.059 136.498C286.41 133.906 286.559 131.301 286.478 128.682C286.302 123.714 283.211 119.164 279.269 118.84C269.32 118.03 261.476 117.922 256.535 130.045C255.536 132.489 252.499 134.095 250.501 136.16C249.637 137.051 248.368 138.172 248.395 139.157C248.625 141.682 249.057 144.179 249.678 146.636M141.586 240.945L141.329 242.295C139.656 241.93 137.55 242.079 136.362 241.107C132.001 237.583 129.612 233.061 131.826 226.891C125.616 229.578 127.344 234.357 127.722 238.92C126.412 238.785 124.914 238.947 124.738 238.555C123.631 235.95 122.808 233.223 121.539 229.483C121.283 231.211 120.932 232.926 120.473 234.613C120.068 235.396 119.528 236.098 118.907 236.706C118.232 236.098 117.138 235.572 116.99 234.856C116.625 233.142 116.841 231.306 116.585 229.551C116.423 228.39 116.112 226.513 115.437 226.284C113.858 225.758 111.617 225.38 110.348 226.135C107.432 227.89 108.836 238.42 112.103 239.608C118.637 242.16 125.305 244.346 132.082 246.169C142.301 248.666 150.442 244.225 153.871 234.154C155.315 229.605 155.936 224.826 155.666 220.061C155.329 212.663 151.724 211.043 144.691 214.485C145.474 216.078 148.619 217.253 145.352 219.629C135.822 226.581 134.917 232.21 141.599 240.918M296.886 45.1054C295.482 43.4044 294.415 41.339 292.728 40.205C285.398 35.2777 277.743 32.3212 269.414 38.1801C269.306 38.2746 269.185 38.3286 269.05 38.3691C267.929 38.4096 266.809 38.4096 265.675 38.4366C265.864 37.2216 266.255 36.0336 266.836 34.9402C267.983 33.5632 269.306 32.3347 270.737 31.2683C273.194 29.2838 272.505 27.5424 270.062 26.6919C266.215 25.3419 262.151 23.506 258.25 23.6815C253.849 23.8705 249.529 26.0574 244.791 27.4884C240.538 22.507 247.126 21.076 249.232 17.6741C248.058 16.7157 246.829 15.8247 245.574 14.9877C238.581 10.8973 231.642 11.5993 224.73 15.2712C222.746 16.3242 220.248 18.3491 218.655 15.5007C218.034 14.3802 219.87 11.9098 220.559 10.0468C220.64 9.83084 220.532 9.54735 220.505 9.29086C211.136 8.31889 202.334 13.8807 199.189 22.7635C197.866 26.2869 199.189 30.2558 202.348 32.2807C204.926 34.1302 208.477 34.6837 211.663 35.5341C212.068 35.6421 213.04 34.1842 213.539 33.3202C214.403 31.8622 215.091 30.2963 215.847 28.7843L216.954 28.4468C219.843 37.6671 222.044 47.5623 234.126 47.2788L237.096 35.1697L238.81 35.0212C240.322 43.9174 241.051 53.2727 251.095 57.9975C251.527 54.9736 251.77 52.4087 252.31 49.8978C252.715 48.9528 253.282 48.1023 253.984 47.3598C254.618 48.0753 255.631 48.6963 255.806 49.5063C256.481 52.5842 256.913 55.7026 257.372 58.821C258.169 64.3559 261.949 68.6623 265.985 68.8513L269.104 59.658C274.166 66.4348 272.06 76.762 282.158 78.4225C282.09 72.6851 282.9 70.2822 285.992 68.0683C286.302 69.7017 286.464 71.0787 286.842 72.4017C287.882 76.0736 288.597 79.8939 290.19 83.3094C292.201 87.6022 299.046 91.3416 302.691 90.5857C308.401 89.3977 312.775 86.4008 315.151 80.8254C317.446 75.4661 318.053 69.5397 316.865 63.8429C314.786 52.9892 306.822 47.6973 295.995 50.0193C294.631 50.2218 293.254 50.3432 291.877 50.3567L291.472 49.2768L296.845 45.0649L296.886 45.1054ZM67.5675 217.712L67.5 217.712C72.4409 221.033 77.8677 223.004 83.8345 222.558C93.1628 221.87 102.451 220.709 111.779 219.98C114.398 219.777 117.543 219.507 119.622 220.695C123.645 222.977 124.32 223.031 127.384 219.291C129.963 216.146 132.609 212.366 136.092 210.773C145.393 206.534 155.234 203.456 164.738 199.622C168.464 198.124 171.825 195.721 175.47 193.979C177.967 192.791 180.735 191.171 183.286 191.333C185.878 191.495 187.201 190.834 188.268 188.917C189.199 187.243 189.577 185.137 190.792 183.747C192.696 181.573 195.234 178.09 197.299 178.239C203.225 178.644 205.156 174.945 206.911 170.881C210.637 161.999 217.697 154.925 226.58 151.172C233.141 148.405 238.297 143.086 240.849 136.444C242.158 133.177 245.088 130.842 248.571 130.288C250.191 129.816 251.594 128.776 252.526 127.372C253.754 125.374 254.726 123.228 255.401 120.987C257.399 115.168 261.665 110.417 267.227 107.811C270.44 106.245 273.788 104.963 277.217 103.95C282.077 102.452 285.857 99.8059 288.165 95.2025C290.298 90.9771 287.085 85.8743 282.468 84.8888C278.702 84.0788 274.517 82.8369 271.736 80.4069C268.321 77.41 264.149 76.2896 260.666 73.9946C253.66 69.3642 247.329 63.6674 241.092 57.984C239.283 56.3371 237.933 55.2841 235.516 55.6486C229.793 56.5666 224.015 54.4066 220.302 49.9518C218.507 47.7108 216.914 45.3079 215.537 42.7835C210.272 41.5145 205.831 40.367 201.349 39.4625C200.242 39.3815 199.135 39.665 198.19 40.2725C190.441 44.5654 185.325 51.2207 181.153 58.8885C176.348 67.7308 170.003 75.1421 160.661 79.705C152.683 83.3634 146.432 89.9647 143.219 98.1454C140.654 104.571 136.659 109.985 129.544 112.847C126.466 114.089 124.09 117.598 121.985 120.501C119.204 124.308 116.733 128.047 112.035 129.991C105.326 132.705 100.034 138.077 97.4152 144.827C93.5948 153.912 87.3445 160.73 77.3142 163.646C72.1169 165.158 67.2705 167.844 62.2351 169.923C57.0648 172.056 52.0024 174.877 46.6026 175.984C38.2868 177.685 29.782 177.969 21.6282 181.047C17.0789 182.761 13.0695 184.584 9.88355 188.202C6.81913 191.671 6.91363 193.885 11.301 195.262C16.9439 197.03 20.9532 200.851 25.5026 204.091C27.6356 205.616 30.457 206.291 33.0624 207.061C38.4623 208.64 43.9701 209.855 49.343 211.515C55.4583 213.405 61.4792 215.619 67.5405 217.698M277.73 112.037C280.808 113.724 284.061 114.831 286.451 116.91C296.116 125.334 295.792 141.061 286.626 150.443C279.026 158.219 269.832 157.584 260.45 156.693C257.858 156.302 255.293 155.748 252.782 155.019C246.735 153.615 245.358 152.562 242.361 147.068C238.797 149.971 235.638 153.696 231.615 155.573C222.219 159.974 216.05 167.048 211.42 175.998C209.962 178.657 208.018 181.02 205.669 182.95C204.184 184.192 201.443 185.34 199.864 184.8C196.219 183.531 195.571 185.61 194.059 187.945C191.778 191.117 189.267 194.128 186.567 196.949C186.216 197.395 185.703 197.678 185.149 197.746C179.682 197.273 176.699 201.566 172.716 203.996C170.705 205.225 168.126 205.589 165.75 206.183C160.931 207.385 160.215 208.869 161.66 213.567C165.345 225.515 161.997 235.666 153.844 244.832C144.677 255.133 133.486 253.472 122.241 250.489C116.868 248.923 111.711 246.709 106.878 243.887C100.75 240.472 101.155 234.073 101.02 227.701C97.8607 227.931 94.6747 227.769 91.6913 228.457C81.6341 230.779 72.7784 227.512 63.8416 223.517C57.1998 220.56 50.3824 218.036 43.4301 215.943C38.5838 214.485 33.2649 214.566 28.459 213.041C24.8006 211.88 21.5607 209.355 18.1993 207.344C15.4184 205.684 12.9075 203.294 9.92405 202.255C-2.02313 198.083 -1.78014 191.374 4.94268 182.316C8.85757 177.037 14.5544 174.945 21.2772 173.23C31.3075 170.665 41.2837 170.004 51.3949 169.316C52.3534 169.208 53.3119 169.046 54.2434 168.803C54.9318 168.762 55.6068 168.573 56.2143 168.263C62.9506 163.254 71.1044 161.202 78.3942 157.517C83.2946 155.046 87.6954 149.917 90.2874 144.922C94.6342 136.552 100.048 129.721 108.026 124.74C110.159 123.471 111.995 121.756 113.385 119.704C117.786 112.631 124.279 108.203 131.164 103.977C133.297 102.56 134.944 100.535 135.943 98.1725C140.209 87.9532 145.892 79.1245 156.692 74.7911C164.927 71.4972 170.084 64.9904 174.822 57.9165C178.642 52.2197 182.085 46.0099 186.945 41.3255C191.602 36.8301 194.761 33.9007 193.465 26.0304C191.305 12.8818 205.493 -0.0643872 218.966 0.543096C219.236 0.543096 219.573 0.475598 219.776 0.610595C226.58 5.06547 234.747 2.28455 241.794 4.74148C245.938 6.38844 249.718 8.84537 252.904 11.9773C255.604 14.4882 257.642 16.7697 261.895 16.3647C268.456 15.7437 273.383 19.6046 277.77 23.911C279.687 26.0169 282.266 27.4209 285.074 27.8664C291.688 28.9058 295.9 33.5632 299.302 38.9226C301.449 42.311 303.433 44.6464 308.212 45.3619C318.661 46.9008 329.055 62.1014 324.101 76.6C320.173 88.0882 311.06 95.459 298.924 96.3635C297.601 96.431 296.359 97.025 295.468 98.0105C291.526 104.112 286.572 108.81 279.458 110.943C278.837 111.227 278.256 111.605 277.73 112.05"></path><path d="M183.611 215.957C182.95 217.199 182.585 218.791 181.586 219.615C178.009 222.612 174.269 225.406 170.382 227.998C169.369 228.673 167.533 228.066 166.075 228.052C166.615 226.837 166.818 225.163 167.736 224.515C172.501 221.167 177.469 218.076 182.356 214.904L183.598 215.97L183.611 215.957Z"></path><path d="M306.525 104.207C305.917 105.274 305.539 106.624 304.662 107.339C301.395 110.066 297.993 112.617 294.456 114.993C293.538 115.587 291.851 114.993 290.514 114.926C290.973 113.805 291.108 112.239 291.932 111.659C296.252 108.608 300.76 105.814 305.202 102.925L306.525 104.207Z"></path><path d="M312.059 110.349C311.667 111.537 311.087 112.644 310.358 113.67C307.428 116.775 304.31 119.691 301.03 122.404C299.842 123.336 297.695 123.039 295.994 123.309C296.696 121.932 297.061 120.136 298.168 119.218C302.258 115.803 306.591 112.671 310.83 109.431L312.059 110.363L312.059 110.349Z"></path><path d="M178.426 228.471C177.508 230.347 177.224 231.805 176.333 232.588C173.593 235.072 170.663 237.354 167.572 239.392C166.573 240.026 164.737 239.324 163.292 239.243C163.819 238.042 164.035 236.368 164.953 235.72C168.422 233.304 172.121 231.211 175.766 229.038C176.63 228.754 177.521 228.565 178.426 228.484"></path><path d="M306.86 127.98C304.97 130.234 303.175 132.61 301.096 134.689C300.678 135.108 298.815 134.73 298.248 134.136C297.829 133.231 297.924 132.178 298.491 131.368C300.556 129.532 302.878 128.007 305.105 126.36L306.874 127.993L306.86 127.98Z"></path><path d="M171.379 218.063L166.371 216.996C166.709 216.105 166.844 214.688 167.438 214.445C169.233 213.878 171.082 213.473 172.945 213.203L171.366 218.049L171.379 218.063Z"></path><path d="M67.5675 217.712C66.042 216.078 64.584 214.364 62.9641 212.838C62.0056 211.772 60.8041 210.949 59.4677 210.449C50.9224 208.262 42.2421 206.602 33.8184 204.077C29.89 202.903 26.4071 200.216 22.7217 198.205L23.5047 196.315C27.4736 197.327 31.4424 198.407 35.4248 199.352C44.1186 201.391 52.8799 203.159 61.4926 205.468C63.7201 206.143 65.583 207.722 66.609 209.815C67.689 212.65 69.1739 213.662 71.4014 212.177C78.5157 207.466 86.7774 210.463 94.3372 208.613C96.1597 208.168 98.8191 211.124 101.722 212.893C102.37 212.326 103.746 211.043 105.191 209.855C106.946 208.397 108.579 206.264 111.077 209.032C111.414 209.41 112.994 208.856 113.912 208.519C116.409 207.56 118.826 206.386 121.323 205.468C125.791 203.821 130.53 202.754 134.742 200.635C140.884 197.53 146.932 194.56 155.356 194.479C153.628 196.288 152.858 197.557 151.738 198.178C146.662 200.918 141.586 203.753 136.294 206.035C131.947 207.911 127.263 208.978 122.794 210.584C120.999 211.192 119.312 212.096 117.827 213.27C115.235 215.417 112.845 217.037 109.281 215.201C108.444 214.769 106.716 215.498 105.677 216.146C99.9261 219.737 99.7911 219.723 95.0932 215.052C94.2022 214.229 93.0413 213.783 91.8263 213.81C86.8989 214.256 81.9986 214.863 77.0982 215.619C73.8583 216.119 70.6724 217.01 67.4595 217.725L67.527 217.725L67.5675 217.712Z"></path><path d="M145.595 145.016C151.184 141.317 153.425 134.905 150.644 130.585C147.606 125.86 141.491 124.159 137.468 126.9C131.933 130.68 130.165 137.403 133.378 142.397C135.835 146.447 141.113 147.757 145.176 145.3C145.325 145.219 145.46 145.124 145.595 145.03M128.788 145.394C123.752 137.875 125.777 127.696 133.31 122.661L133.553 122.499C139.061 118.773 149.51 121.81 153.749 128.385C159.108 136.714 157.137 145.219 148.578 150.646C141.531 155.114 133.702 153.035 128.801 145.394"></path><path d="M96.8892 177.104C91.4083 180.655 89.5994 186.271 92.4748 190.807C95.6877 195.869 101.56 197.232 106.474 194.06C110.996 191.144 112.481 183.247 109.43 178.4C107.014 174.526 101.709 173.986 96.8892 177.104ZM108.58 198.366C100.656 203.388 93.4603 201.525 87.9389 193.034C83.3356 185.947 85.401 177.239 92.7853 172.636C100.062 168.1 109.201 168.802 112.481 174.148C118.934 184.678 117.665 192.616 108.58 198.366Z"></path><path d="M174.539 104.558C178.481 105.274 179.048 103.168 179.034 100.319C179.115 99.1852 179.277 98.0647 179.52 96.9443C180.735 97.3223 181.883 97.8892 182.909 98.6182C184.758 100.468 186.324 99.9547 187.89 98.4427C190.469 95.9318 190.118 93.4614 187.58 90.6669C183.908 86.617 179.358 86.86 175.133 88.4395C173.081 89.209 171.853 92.2329 169.976 94.5818C176.577 96.2153 176.807 96.8093 174.539 104.531L174.539 104.558ZM192.116 88.7095C196.287 95.1353 193.398 102.047 187.08 104.369C185.015 105.125 183.341 106.947 181.275 107.69C179.115 108.473 176.24 109.512 174.499 108.689C172.028 107.528 170.246 104.828 168.343 102.641C167.843 102.061 168.316 100.603 167.816 100.036C164.279 96.1208 164.482 91.9224 167.101 87.8725C169.787 83.3231 174.957 80.8392 180.195 81.6087C185.555 82.3242 189.996 85.1051 192.129 88.723"></path><path d="M170.165 155.465C169.976 157.126 169.341 158.786 169.814 160.015C170.097 160.757 172.176 161.283 173.337 161.108C176.604 160.609 180.883 153.116 180.235 149.485C179.763 146.879 174.822 144.449 170.975 145.462C169.436 145.867 166.992 147.824 167.141 148.729C167.505 151.091 169.085 153.251 170.178 155.492L170.165 155.465ZM164.913 163.983C162.902 165.725 160.391 165.941 158.326 162.39C155.234 157.045 155.477 155.33 159.419 152.522C160.337 151.604 160.944 150.416 161.133 149.134C162.807 142.438 166.29 139.414 172.473 139.252C177.104 139.131 179.493 142.573 182.314 145.246C185.608 148.378 186.445 152.131 184.312 156.343C181.923 161.054 178.669 165.077 173.256 165.9C170.853 166.265 168.194 164.807 164.913 163.983Z"></path><path d="M164.454 190.82C166.411 189.551 168.234 187.85 170.366 187.067C179.384 183.76 185.918 177.496 191.925 170.287C194.288 167.453 197.825 165.603 200.822 163.295C202.118 162.296 203.738 161.526 204.588 160.244C208.597 154.142 213.444 149.039 220.18 145.934C226.309 143.099 230.17 137.888 234.112 132.731C235.07 131.57 236.42 130.801 237.892 130.531C235.408 136.957 232.168 142.681 226.781 146.879C224.824 148.391 222.732 149.741 220.531 150.902C215.874 153.372 212.121 157.233 209.799 161.958C208.692 164.105 206.437 166.548 204.278 167.075C199.404 168.262 196.421 171.489 193.613 174.999C187.214 183.18 178.372 189.106 168.355 191.873C167.208 192.049 166.047 192.076 164.899 191.968L164.454 190.834L164.454 190.82Z"></path><path d="M237.338 73.104C232.006 73.563 227.146 77.8828 227.227 82.9452C227.389 85.3211 228.496 87.5486 230.292 89.101C233.491 91.585 239.539 89.101 242.644 84.6462C245.155 81.0283 244.615 77.5048 240.092 73.5899C243.629 78.4633 242.738 82.1082 239.552 85.1726C238.553 86.1311 236.785 86.2526 235.354 86.7656L234.476 85.6856C237.5 81.8787 239.903 77.9503 237.338 73.1175M245.897 73.6709C250.838 81.7707 248.8 87.9536 239.323 93.6099C234.422 96.5258 227.713 94.0959 223.906 88.0211C220.383 82.4052 222.745 73.4685 228.645 69.8505C234.665 66.1516 243.926 68.1091 245.911 73.6575"></path><path d="M201.699 125.617C199.445 128.303 197.379 131.125 195.503 134.081C194.963 135.647 195.179 137.375 196.083 138.779C200.295 144.773 209.556 143.382 213.187 136.363C214.618 133.568 213.471 128.182 210.879 125.806C207.963 123.133 205.101 124.105 201.713 125.617M210.73 145.785C203.292 149.916 194.355 147.743 190.953 140.251C190.103 138.266 189.954 136.066 190.535 133.987C192.654 127.588 196.731 122.769 203.373 120.474C207.085 119.191 210.757 119.556 213.444 122.121C217.237 125.738 219.411 130.463 218.412 135.877C217.683 140.264 214.794 143.99 210.744 145.785"></path><path d="M145.298 186.771C141.923 187.365 139.115 186.676 137.617 183.112C136.213 179.778 137.347 177.375 139.871 175.093C140.654 174.121 140.951 172.839 140.708 171.61C139.574 166.683 144.259 160.487 149.118 161.054C149.739 161.121 150.752 163.349 150.482 164.24C150.131 165.387 148.403 166.062 147.768 167.21C147.053 168.506 146.081 170.72 146.648 171.489C149.253 175.053 147.755 177.294 144.893 179.454C144.394 179.94 143.948 180.493 143.57 181.087C152.507 181.735 152.601 181.816 151.872 188.04C154.383 186.649 156.557 185.245 158.892 184.233C159.824 183.828 161.12 184.26 162.24 184.3C161.849 185.475 161.781 187.027 160.971 187.729C159.216 189.255 157.259 190.523 155.139 191.495C149.051 194.263 147.269 193.358 145.298 186.784"></path><path d="M56.1056 194.128C58.9 194.344 61.6674 194.708 64.4213 195.235C65.4743 195.491 66.2843 196.733 67.2023 197.53C66.2708 198.178 65.3123 199.433 64.4078 199.393C60.7089 199.325 57.037 198.893 53.4191 198.097C49.2477 197.017 48.5188 192.967 51.8937 190.281C54.0401 188.58 55.5521 187.405 53.7161 184.327C53.2166 183.463 54.7961 180.507 56.1461 179.602C58.009 178.36 60.5604 178.144 62.8284 177.496C62.7879 178.536 63.1659 179.967 62.6259 180.534C60.7089 182.559 60.1959 184.192 62.3829 186.46C62.9634 187.054 62.5989 189.403 61.8564 190.227C60.6414 191.604 58.7515 192.4 56.1056 194.128Z"></path><path d="M239.107 108.23C240.902 106.272 242.806 104.423 244.831 102.681C245.803 101.925 247.369 101.925 248.665 101.588C248.516 102.924 248.827 104.639 248.111 105.516C246.019 108.041 243.71 110.39 241.199 112.509C238.675 114.656 236.07 114.453 234.274 111.429C232.938 109.175 231.588 108.135 229.077 109.877C228.091 110.376 227.038 110.7 225.945 110.822C223.312 111.416 220.181 111.146 219.884 108.351C219.641 106.11 221.639 103.586 222.826 101.291C222.961 101.034 224.824 101.183 224.919 101.453C225.31 102.938 225.567 104.463 225.715 106.002C227.038 105.314 228.577 104.639 229.995 103.761C234.652 100.926 235.8 101.237 238.108 106.178C238.324 106.65 238.567 107.123 239.107 108.23Z"></path><path d="M194.761 61.184C201.551 60.887 202.564 61.7645 202.618 68.3253C203.914 67.0968 205.345 66.0169 206.87 65.0854C207.761 64.6534 209.071 65.0989 210.191 65.1529C209.975 66.1248 210.029 67.3263 209.462 68.0148C208.234 69.6753 206.749 71.1332 205.061 72.3077C203.252 73.4417 200.647 74.9941 199.108 74.4271C197.501 73.8331 196.718 70.9442 195.652 69.0138C195.49 68.4873 195.436 67.9338 195.476 67.3938C195.071 67.1508 194.72 66.7863 194.383 66.7863C191.251 66.7863 188.835 65.5984 188.524 62.264C188.2 58.754 190.59 56.6886 193.465 55.4331C194.464 55.0012 195.949 55.7166 197.218 55.9056C196.961 57.0126 196.637 58.0926 196.246 59.159C195.827 59.888 195.328 60.5765 194.761 61.1975"></path><path d="M170.259 122.162C173.918 123.026 174.592 126.158 173.027 130.937C174.916 129.587 176.874 128.345 178.899 127.211C179.655 126.833 180.789 127.211 181.747 127.238C181.626 128.223 181.855 129.573 181.302 130.113C179.439 132.124 177.292 133.839 174.916 135.202C173.216 136.053 170.084 136.539 169.031 135.594C167.492 134.217 167.181 131.422 166.506 129.182C166.344 128.655 166.844 127.913 167.06 127.224C164.427 125.253 160.364 123.674 163.172 119.664C164.279 118.085 167.289 117.855 169.436 117.005C169.665 118.449 169.895 119.894 170.259 122.148"></path><path d="M150.954 105.031C149.834 103.303 147.431 101.116 147.863 99.9548C148.767 97.4439 151.076 95.4189 152.979 93.34C153.155 93.151 154.572 94.123 155.423 94.555C152.79 99.0504 156.908 101.453 158.325 104.086L162.2 104.734C161.903 106.057 161.538 107.366 161.106 108.649C160.742 109.229 160.256 109.729 159.702 110.134C157.637 112.199 155.018 114.048 152.52 111.875C151.049 110.606 150.995 107.69 150.306 105.53L150.941 105.031L150.954 105.031Z"></path><path d="M111.414 155.033C113.142 153.966 114.951 153.035 116.814 152.238C117.759 151.901 119.015 152.454 120.122 152.616C119.784 153.669 119.784 155.222 119.069 155.681C116.463 157.449 113.655 158.921 110.712 160.068C107.445 161.243 104.57 157.598 105.825 153.777C106.568 151.523 107.459 149.808 105.691 147.46C104.381 145.732 108.431 140.885 110.672 141.277C111.279 141.466 111.792 141.871 112.116 142.424C110.415 146.366 116.922 151.05 110.159 154.466L111.401 155.033L111.414 155.033Z"></path><path d="M282.766 88.1015C285.628 92.8804 283.211 95.2293 280.943 96.9303C278.365 98.8742 275.044 99.8192 272.263 101.547C268.591 103.829 265.162 106.501 261.558 108.891C260.478 109.471 259.344 109.93 258.169 110.268C258.291 109.147 258.034 107.73 258.615 106.974C260.748 104.207 262.678 100.724 265.581 99.1982C271.494 96.0933 278.851 95.6343 282.752 88.1015"></path><path d="M205.372 53.8804C203.779 52.9894 201.606 52.4764 200.755 51.113C200.161 50.168 201.349 48.089 201.754 46.5096C203.401 47.0901 205.52 47.2521 206.533 48.386C207.329 49.2905 206.762 51.3964 206.803 52.9759L205.385 53.8669L205.372 53.8804Z"></path><path d="M275.165 84.6863C274.247 87.3187 274.112 89.6271 273.153 90.0456C271.56 90.5721 269.805 90.2751 268.469 89.2626C267.78 88.5742 268.158 85.4962 269.022 84.8887C270.156 84.0923 272.276 84.6863 275.165 84.6863Z"></path><path d="M209.706 99.3877L208.194 104.936C206.682 104.356 204.819 104.126 203.739 103.087C202.241 101.629 202.484 99.5902 204.684 98.8612C205.858 98.4697 207.37 99.0907 209.706 99.3877Z"></path><path d="M45.6296 190.537C45.1031 191.887 44.9006 193.885 43.9421 194.398C42.8622 194.951 40.8642 194.479 39.6898 193.763C39.2308 193.48 39.4603 190.658 40.1757 190.159C41.3367 189.362 43.1727 189.524 44.7116 189.295L45.6161 190.537L45.6296 190.537Z"></path><path d="M130.395 168.411C129.369 170.8 129.139 172.582 128.167 173.23C127.33 173.77 124.604 173.23 124.509 172.771C124.118 171.205 124.293 169.545 125.009 168.087C125.36 167.52 127.708 168.195 130.395 168.411Z"></path><path d="M77.6381 173.892C76.7066 176.389 76.4771 177.982 75.5862 178.927C75.1812 179.346 72.6568 178.752 72.4408 178.131C72.1033 176.862 72.3193 175.512 73.0617 174.418C73.5207 173.811 75.1812 174.108 77.6381 173.892Z"></path><path d="M234.761 120.555C234.127 122.512 234.073 124.186 233.276 124.699C232.142 125.131 230.873 124.929 229.928 124.173C229.469 123.052 229.645 121.783 230.374 120.825C231.103 120.204 232.709 120.622 234.761 120.555Z"></path><path d="M309.495 58.943L300.68 65.4498C307.875 67.0023 310.116 69.3917 310.602 75.0751C311.115 79.6245 308.496 83.9578 304.217 85.6048C299.154 87.4542 293.606 84.7408 293.187 79.611C292.607 72.4966 293.336 65.5443 299.114 60.1985C302.516 57.0396 305.918 56.4726 309.495 58.97"></path><path d="M209.07 32.1863C203.211 32.5643 199.85 30.0399 200.525 25.5715C200.984 24.748 201.754 24.1405 202.671 23.8705C205.479 26.098 209.354 27.5829 209.07 32.1863Z"></path><path d="M259.047 50.2085C259.695 47.9271 260.249 45.6051 261.059 43.3777C261.207 42.9727 262.422 42.7162 263.07 42.8242C263.57 43.2022 263.853 43.8097 263.799 44.4441C262.962 46.6176 261.936 48.71 260.978 50.8295L259.061 50.2085L259.047 50.2085Z"></path><path d="M290.191 55.2167L286.924 62.1015L285.372 61.764C285.601 59.847 285.507 57.8086 286.195 56.0806C286.546 55.1897 288.341 54.8927 289.475 54.3257C289.705 54.6227 289.948 54.9197 290.177 55.2167"></path><path d="M145.946 225.812C146.702 228.457 147.566 230.388 147.728 232.372C147.903 234.694 144.866 236.112 142.908 234.505C141.72 233.493 141.018 232.008 141.005 230.428C141.45 228.633 142.368 226.986 143.678 225.663C144.056 225.218 145.581 225.758 145.959 225.798"></path><path d="M279.525 122.931C274.705 125.482 271.884 128.938 272.518 133.488C273.045 137.268 275.151 140.832 276.568 144.503C274.084 145.421 269.454 142.208 266.281 136.674C263.946 132.597 265.498 126.279 269.994 123.093C272.626 121.217 275.664 119.799 279.525 122.931Z"></path><path d="M265.891 144.8C264.663 144.503 263.218 144.503 262.247 143.842C259.371 141.884 257.9 135.58 259.655 132.651C260.357 131.773 261.383 131.206 262.503 131.085C263.299 131.611 263.799 132.489 263.866 133.434C262.895 137.376 263.34 140.899 266.539 143.909L265.891 144.787L265.891 144.8Z"></path><path d="M275.569 128.79C277.162 128.588 278.242 128.25 278.391 128.48C279.876 130.667 281.104 133.016 282.09 135.472C282.279 136.039 280.065 138.321 279.241 138.172C277.635 137.902 275.272 136.701 274.962 135.459C274.449 133.407 275.299 131.004 275.583 128.804"></path><path d="M257.669 146.879C256.589 145.84 254.996 144.976 254.564 143.707C254.011 141.56 253.687 139.36 253.579 137.133C254.726 137.119 256.792 136.836 256.873 137.133C257.723 140.049 258.236 143.072 258.857 146.056L257.669 146.893L257.669 146.879Z"></path><path d="M144.393 127.966C145.392 128.25 146.432 128.25 147.026 128.763C151.008 132.151 149.51 141.304 144.65 143.14C143.894 143.423 142.908 143.072 142.031 143.018C142.098 142.289 141.923 141.425 142.247 140.831C145.446 134.959 145.473 134.972 144.393 127.966Z"></path><path d="M95.8618 190.064C101.275 190.132 104.988 188.458 105.649 182.747L106.878 182.599C107.566 183.895 108.997 185.326 108.808 186.473C108.214 189.956 105.501 192.697 102.018 193.318C99.6012 193.912 97.1308 193.858 95.8753 190.051"></path><path d="M206.816 139.563L203.94 139.306C204.332 138.199 204.669 137.065 205.142 135.999C206.114 133.825 207.167 131.692 208.179 129.546C208.476 128.898 208.773 128.25 209.057 127.602C209.894 127.899 210.65 128.345 211.325 128.912C213.228 131.355 211.203 136.714 206.829 139.563"></path></svg>