<svg xmlns="http://www.w3.org/2000/svg" viewBox="0 0 117.78 208.34" fill="white"><path d="m75.52,130.77c.24,3.55.43,6.79.71,10.03.13.67.38,1.31.74,1.89,1.91,3.63,3.11,7.59,3.55,11.66.36,3.77.76,7.54,1.36,11.27.37,2.3,1.19,4.53,1.76,6.8.74,2.93,1.54,5.85,2.09,8.82.31,1.68.59,3.24,1.97,4.41.57.49.96,1.2,1.55,1.65,2.59,1.97,2.42,4.46,1.45,7.12-.39,1.06-.83,2.1-1.28,3.21-3.67,1.14-7.32,1.05-11,.21-3.6-.82-6.66.17-9.19,2.83-.57.5-1.08,1.06-1.52,1.68-1.96,3.42-5.46,4.38-8.82,5.47-.82.27-1.93-.05-2.81-.37-.99-.39-1.92-.92-2.75-1.58-1.53-1.15-2.92-.91-4.37.13-.85.62-1.8,1.11-2.71,1.64-2.27,1.32-4.25.58-6.02-.99-.8-.7-1.48-1.53-2.03-2.44-.56-.89-1.38-1.59-2.35-2-1.77-.87-3.48-1.27-5.42-.49-.94.3-1.92.46-2.9.48-1.85.22-3.68-.48-4.9-1.89-1.59-1.82-3.14-3.67-4.69-5.53-1.44-1.6-2.17-3.72-2.03-5.86,0-.59-.05-1.18-.17-1.76-2.06-1.62-3.68-3.09-5.5-4.27-2.2-1.45-4.5-2.74-6.89-3.85-1.73-.78-2.69-1.85-2.83-3.71-.08-.45-.19-.89-.33-1.32-.1-.36-.16-.74-.19-1.12-.04-2.15,4.04-6.3,6.21-6.34.82-.02,1.64-.05,2.63-.08,2.02-5.47,6.74-8.66,10.4-12.76,1.5-1.68,3.01-3.45,4.03-5.42,2.47-4.79,6.13-8.42,10.39-11.54,2.93-2.04,5.33-4.75,6.99-7.91,1.09-2.12,2.72-3.97,4.34-6.28-1.14-1.29-2.4-2.86-3.81-4.28-1.65-1.67-3.45-3.19-5.14-4.81-3.09-2.97-4.26-6.57-3.28-10.77.28-.95-.04-1.99-.83-2.6-3.24-3.08-4.39-6.84-3.33-11.18.59-2.42,1.37-4.8,2.13-7.18.64-2.02.83-4.15.55-6.25-.39-3.69-.57-7.39-.54-11.09,0-1.43-.35-2.49-1.35-3.42-.47-.5-.96-.96-1.49-1.4-1.66-1.12-2.68-2.96-2.77-4.96-.02-.22-.12-.42-.28-.57-2.01-1.49-2.24-3.87-3.03-5.97-.92-2.46-1.76-4.94-2.73-7.38-1.16-2.92-1.62-5.96-1.94-9.05-.14-1.41-.4-2.8-.59-4.2-.06-.29-.07-.6-.02-.9.7-2.76.76-5.7,2.67-8.1.84-1.16,1.54-2.42,2.07-3.75,1.78-4.02,5.23-6.38,8.56-8.89,4.64-3.5,10.18-4.1,15.64-4.88C48.86.47,52.27-.02,55.66,0c4.09-.02,8.17.3,12.21.96,8.08,1.41,15.87,4.02,23.52,6.95,1.88.81,3.64,1.86,5.24,3.14,3.32,2.44,4.4,6.08,4.68,9.94.13,1.89-.04,3.79-.49,5.63-.44,1.8-.02,2.89,1.54,3.75.84.52,1.64,1.09,2.4,1.73,1.91,1.46,3.45,3.14,3.79,5.69.14.74.48,1.43.99,1.98,2.14,2.46,4.36,4.84,6.54,7.26,1.1,1.22,1.85,2.57,1.67,4.29-.27,2.63-.71,5.26-.75,7.89-.05,2.64.14,5.29.57,7.9.59,3.54-.35,6.94-.54,10.4-.02.23-.13.44-.29.61-1.75,1.73-1.67,4.12-2.35,6.25-.8,2.5-1.8,5.06-3.27,7.2-2.36,3.4-3.01,7.2-3.7,11.09-.39,2.15-.97,4.27-1.73,6.33-1.27,3.49-3.96,5.7-7.28,7.1-1.52.65-2.82,1.73-3.75,3.1-3.41,4.7-8.09,7.66-13.51,9.56-1.91.67-3.8,1.37-5.64,2.04ZM43.56,14.15c.36,2.3,1.63,3.59,4.03,3.71.39.02,1.24-.18,1.57.71s-.3,1.91-.84,1.89l-4.24.22-.71,3.06c2.24-.03,4.23-.05,6.22-.11.3-.06.57-.21.78-.42,1.07-.93,1.94-4.6,1.42-5.95-.49-1.28-1.24-2.23-2.74-2.38-.69-.11-1.67.21-2.24-.07s.21-1.13.21-1.13c.85-.38,1.85-.36,2.5-.95.71-.64,1.73-1.88.31-2.66s-5.29,1.42-6.25,4.49c-.48-1.3.62-4.04-.88-4.35s-2.75,1.13-2.44,3.31c.25,2.01.22,6.04.22,6.04l-1.05.02-.62-6.42-2.22,1.3c0,2.14-.06,4.03,0,5.92.07,2.14,1.11,3.03,3.16,2.83,2.18-.22,3-.78,3.37-2.96.34-1.99.3-4.05.42-6.08Zm50.54,31.75c.16.89.36,1.78.48,2.67.7,4.96,1.64,9.86,3.63,14.5.77,1.8,1.74,3.44,3.89,4.7-.22-.72-.29-1.05-.42-1.36-1.95-4.59-4.13-9.07-4.87-14.12-.89-6.11-1.44-12.12.4-18.21,1.15-3.82,1.72-7.83,2.39-11.78.52-3.03-1.04-5.58-2.36-8.12-.31-.59-1.01-.99-1.53-1.47-.08.71.03,1.43.31,2.08,1.11,3.09,1.93,6.22,1.25,9.56-.3,1.48-.44,3-.74,4.48-.59,2.94-.77,5.99-2.39,8.68-.4.65-.4,1.62-.37,2.44.07,1.73.28,3.46.43,5.19l-1.24-1.32c-.61,4.21-.45,8.5.48,12.65.84,3.53,2.17,6.92,3.95,10.08.21.39.81.57,1.24.85l.32-.36c-.35-.73-.73-1.46-1.06-2.2-2.7-5.94-4-12.43-3.8-18.95h0Zm-27.03-18.86c2.08-.24,2.05-1.01,1.55-2.67-3.66.08-6.8.56-10.28,1.13l-.36,2.46,4.17-.24-.3,5.65c2.42.11,2.68-.05,3.01-1.93.17-.96.2-1.95.31-2.92.14-1.18.04-1.18,1.99-1.51.04.02-.86,4.83-.64,7.5l2.38.03s.22-2.32,2.19-2.32c-.32,2.73.2,2.79,2.11,2.77.34-.98.71-2,1.07-3.02,1.41.97.82,2.04.37,4.02,2.48.19,4.2.63,7.67.57.96-3.75-3.79-1.9-3.68-2.9.09-1.65,3.94,1.02,3.32-2.27l-2.97-.43c.02-.18.25-1.07.27-1.25.92.09,1.75.43,2.61.31,1.58-.24,1.98-1.2,1.09-1.93q-.44-.24-.67-.31c-1.12-.16-2.25-.34-3.38-.43-1.95-.16-2.31.14-2.91,2.06-.18.57.03,1.46-1.24,1.38.21-.92.42-1.77.6-2.64.22-1.05-.1-1.78-1.24-2.02-1-.21-1.61.16-1.88,1.13-.1.37-.19.73-.3,1.1-.27,1.59-.99,1.52-2.41,1.39v-2.97s-2.45.25-2.45.25Zm-30.58,66.72l.62.06c0,.62-.05,1.25-.16,1.86-.53,1.97-1.09,3.94-1.72,5.89-2.12,6.65,1.79,12.78,8.71,13.55,1.8.2,3.61.27,5.42.4.87-.54,1.25-1.61.91-2.58-.31-1.32-.7-2.62-1.17-3.9-.55-1.38-1.27-2.69-1.92-4.02,3.28,1.43,4.42,4.22,4.86,7.44,2.89-.28,2.35,2.4,3.35,3.82l1.58-.39,4.44,2.47c1.36-.24,2.38-.71,3.25-.51,1.7.44,3.51.04,4.86-1.08,1.64-1.21,3.01-.7,3.77,1.21.34,1,.58,2.03.73,3.08.12.63.16,1.28.27,2.24,1.76-2.04,4.15-3.44,6.8-3.99l-3.61,7.6-2.04,1.76c5.48-1.82,15.06-6.03,16.01-8.95-2.11-.59-4.44.58-6.67-.7.33-.29.68-.55,1.06-.76,2.61-1.01,5.17-2.16,7.85-2.93,2.82-.8,4.99-2.37,7-4.41,2.91-2.97,4.08-6.69,4.87-10.58.6-2.93,1.4-5.77,3.09-8.25,3.06-4.48,4.1-9.35,3.37-14.69-.45-3.27-3.63-5.95-6.96-5.73-1.05.04-2.1,0-3.14-.08-1.43-.08-2.85-.2-4.28-.31-.53-.01-1.05-.08-1.56-.2-2.65-.78-5.3-1.6-7.87-2.38-1.82-1.24-3.61-2.55-5.5-3.71-2.11-1.3-4.32-2.43-6.45-3.69-.97-.57-1.79-1.46-2.81-1.88-5.94-2.47-11.95-4.77-18.35-5.79-.67-.08-1.32-.32-1.87-.71-1.19-.95-2.47-.78-4.04-.75,1.36.83,1.42.9,1.77,2-1.6-.03-3.14-.08-4.68-.09-2.91-.02-5.52,1.24-8.2,2.12-1.85.59-3.28,2.08-3.81,3.95-.54,1.81-1.23,3.64-1.33,5.49-.15,3.25-.1,6.51.14,9.76.26,2.79,0,5.61-.79,8.31-.53,1.66-.95,3.35-1.27,5.07-.72,4.03.56,7.18,3.7,9.11l1.74-4.12Zm44.71,78.28c-1.66-4.01-2.43-8.34-2.26-12.68.2-5.17-.92-10.3-3.25-14.92-.97-2.05-1.6-4.25-1.86-6.5-.66-5.48-1-11-1.54-16.5-.22-1.44-.52-2.87-.9-4.29-.58.27-.91.33-1.09.52-1.58,1.75-3.45,1.98-5.6,1.24-.55-.2-1.17-.17-1.7.08-1.43.97-2.65.45-3.74-.43-1.09-.95-2.55-1.36-3.97-1.11-.41,0-.81-.06-1.21-.17l-.84-3.58c-2.75,3.6-4.24,7.75-4.33,11.25-.11,1.2-.32,2.4-.62,3.57-.08.4-.18.8-.27,1.2,2.03-.94,2.38-2.9,2.77-4.6.4-1.72.14-3.59.17-5.39.76,1.23,1.85,2.67,1.61,3.83-.51,2.4-1.33,4.93-2.73,6.91-2.32,3.31-5.92,3.42-9.41,2.53-1.74,1.69-3.36,3.27-5,4.83-1.81,1.72-3.71,3.36-5.45,5.15-2.32,2.4-4.41,4.98-5.72,8.13-1.22,2.94-3.3,5.2-5.8,7.16-2.32,1.82-4.54,3.77-6.75,5.73-.84.74-1.55,1.65-1.47,3.11,3.86.99,5.79,5.09,10.08,6.22-.48-4.77,3.22-6.68,5.94-9.31-2.25-5.42-.72-10.04,2.9-14.13.76-.93,1.78-1.61,2.93-1.96,3.45-.75,6.8.12,9.96,1.45,1.03.43,1.93,1.48,2.57,2.45,3.67,5.5,1.43,11.7-2.54,15.64-.34.29-.72.54-1.13.72-.86.44-1.72.9-2.61,1.27-.72.34-1.48.58-2.26.72-2.71.37-4.62,2.11-6.56,3.77-.39.47-.62,1.04-.66,1.65-.16,1.04-.17,2.1-.26,3.23l2.44,1.61c3.24-4.9,8.17-4.11,13.18-4,.04-1.48.17-2.73.08-3.96-.24-3.33-.29-6.51,2.96-8.7,1.69-1.14,3.49-1.26,5.4-1.03-.57-5.31,5.77-10.99,10.92-9.75,2.96.71,5.88,1.32,8.04,3.82,2.42,2.8,3.27,9.56.4,12.5-.2.28-.36.58-.46.91,2.62,1.75,2.61,2.01,2.76,5.1.15,3.23.59,6.45.92,9.8l8.71-.64c-.03-.96-.06-1.8-.08-2.67-.93-.14-1.6-.21-2.26-.34-2.13-.42-4.07-1.48-4.62-3.53-.6-2.22-.48-4.64-.6-6.98-.08-1.72.95-2.88,2.29-4.18-1.39,4.08-.69,9.5,1.57,11.4l-.43-4.96,1.39-1.18Zm-44.19,27.71l.48-.16c.58,1.13,1.22,2.22,1.92,3.28.85,1.13,1.81,2.19,2.86,3.14.47.37,1.09.51,1.67.38,2.16-.76,4.33-1.76,5.29-3.99,1.25-2.91,2.55-5.89,3.2-8.97.95-4.28,1.51-8.64,1.68-13.03.1-3.52.81-6.91,1.17-10.36.12-1.05.07-2.11-.15-3.14-.42-1.81-2.17-2.97-4.3-3.08-1.84-.09-3.27.69-3.88,2.48-.35,1.03-.3,2.21-.34,3.33-.07,1.8.06,3.62-.14,5.41-.19,1.72-.7,3.4-1.02,5.1-.22,1.19-.22,2.43-.55,3.58-1.06,3.63-2.2,7.23-3.36,10.83-.59,1.86-1.71,3.5-3.22,4.72.01-.94.02-1.89.04-3.08-3,.07-4.94-3.82-8.23-1.58-1.73-1.36-2.16-3.18-2.47-5.07-.27-1.63-.43-3.35-2.18-4.33-.75.27-1.52.58-2.3.84-1.89.62-5.21-.5-4.36-1.55l1.95.45-2.41-1.86.19-.34,4.19.97-1.36,1.46c1.89,0,3.04-.64,3.95-1.9,1.52-2.01,2.41-4.43,2.53-6.94.09-2.21,1.09-3.83,2.87-5.14,1.18-.94,2.3-1.96,3.35-3.04,1.2-1.13,1.5-2.6,1.4-4.16-.09-1.47-.33-3.02-1.83-3.67-1.51-.65-2.52.59-3.54,1.47-2.11,1.82-4.17,3.71-6.29,5.52-1.09.93-1.87,2-1.99,3.44-.26,2.5-1.09,4.9-2.45,7.01-2.15,3.54-2.57,7.4-1.88,11.39.23,1.34.72,2.62,1.43,3.78,1.26,1.9,2.61,3.72,4.07,5.47,1.3,1.62,2.95,2.35,5.03,1.57,1.69-.63,3.38-1.3,5.07-1.95.47-.18.93-.37,1.61-.63-.1.96-.18,1.68-.26,2.49.4.25.76.52,1.16.71s.82.32,1.31.51l.11-1.4Zm26.59-3.58l.23-.49c.82.27,1.67.48,2.47.83,2.47,1.08,4.57.26,5.29-2.4.89-3.29,1.55-6.64,2.26-9.97.08-.6.08-1.21,0-1.81-.15-2.34-.31-4.67-.47-7.01-.04-.53-.09-1.06-.15-1.58-.17-1.44-1.23-2.15-2.43-2.38-1.29-.25-2.77-.47-3.71.93-1.02,1.52-1.91,3.08-1.65,5.05.27,2.02.44,4.07.62,6.1.07.88.04,1.78.06,2.76l-1.54.05c-.66,2.04-2.59,3.74-1.44,6.36-2.33.49-4.34,1.96-5.52,4.02-1.14,1.83-2.51,3.53-3.71,5.2l-1.45-.33-.84,1.55c1.15.62,2.14,1.06,3.02,1.65,1.81,1.21,3.6,2.01,5.6.38.37-.27.78-.47,1.22-.6,3.01-1.02,4.56-3.51,6.15-5.86l-4-2.46ZM2.74,177.08c1.49.6,3.11,1.23,4.71,1.91,2.09.89,4.18,1.76,5.46,3.84.46.76,1.12,1.42,1.9,1.25l5.01-9.98s-4.27-1.61-5.24-1.7-1.45-2.04-1.97-2.45c-2.27-1.78-4.17-1.83-7-2.12-.58-.04-1.16.16-1.59.55-1.08,1.13-3.05,2.43-3.05,3.64s1.76,5.06,1.76,5.06ZM89.07,60.65c.29-.33.13-.7.13-1.05-.66-4.45-.57-8.9-.27-13.37.08-1.97-.01-3.94-.28-5.89-.1-.73-.47-1.39-1.03-1.85-1.66-1.19-4.67-.54-5.81,1.16-1.1,1.63-2.13,3.3-2.91,4.51-1.26.62-2.49.84-2.8,1.49-.29.62.38,1.69.72,2.88-.12.4-.77,1.17-1.02,2l3.71,1.49,1.65-2.81c2.94.47,3.56,1.17,3.45,3.76-.04.91-.02,1.82,0,2.73.07,2.97,1.79,6.55,4.46,4.98Zm-25.38-8.98l13.94,4.41,1.45-3.27-9.08-3.59c2.17-2.46,4.66-4.83,6.75-6.57s2.11-2.65,2.09-4.33c-.85-.15-1.21-.13-1.68-.23-3.22-.41-6.44-.83-9.67-1.18-2.62-.28-3.27.53-2.71,3.71l6.78.72c-2.25,2.18-4.1,4.15-6.15,5.88-1.37,1.16-1.92,2.44-1.72,4.45h0Zm31.5-36.37c-1.38-3.01-2.71-5.5-5.72-6.54-1.22-.42-2.41-.94-3.65-1.26-5.79-1.52-11.6-2.95-17.39-4.49-5.3-1.36-10.81-1.65-16.23-.86-3.83.52-7.68.85-11.5,1.36-1.78.24-3.8.27-5.26,1.15-3.48,2.11-6.73,4.61-10,7.06-.79.59-1.28,1.57-2.15,2.66.67-.11.91-.08,1.07-.19,2.55-1.74,4.97-3.7,7.65-5.19,2.66-1.41,5.43-2.61,8.29-3.58,3.32-1.2,6.86-.97,10.33-1.18,6.33-.36,12.67-.01,18.92,1.04,3.63.6,7.2,1.68,10.74,2.73,3.17.94,6.43,1.67,9.21,3.64,1.7,1.2,3.5,2.26,5.68,3.64h0Zm-15.29,181.6c2.27.98,4.41.6,6.61-.02,2.46-.69,2.98-2.76,3.7-4.69.09-.52-.03-1.05-.33-1.47-1.15-1.84-4.28-4.91-4.28-4.91,0,0-7.24-.22-10.53,2.19l-.93,8.22c2.57-.71,5.08-.99,7.86.09l-2.12.59Zm-6.19-180.73c-.31-.86-.14-2.1,2.03-1.96,1.39.17,1.97-.17,1.61-2.86-1.13-.08-2.31-.23-3.48-.22-1.62.01-2.54.9-2.46,4.35-.02.41-.81-.05-1.12,1.01s.81,1.83.81,1.83c0,0-.39,2.33-.38,3.82,0,.54.48,1.42.91,1.55,2,.61,4.77,1,6.77,1.46,0,0,.92-5.65,2.23-5.49s.39,2.62.38,3.65c-.01,2.71-.01,2.76,2.91,3.47-.01-1.24-.38-2.41-.38-3.59q-.29-3.06,1.31-4.42c.95-.81,1.27-3.12.37-4.1-1.75-1.91-3.58-3.07-6.6-2.78-.22.28-.38.59-.49.92-.4,3.04-.75,6.08-1.12,9.15l-2.96-.68c-.02-.7-.03-1.28-.05-2,1.6-.1,2.43-.84,2.09-2.61l-2.36-.51Zm-38.31,29.85c1.92-.6,3.62-1.21,5.36-1.66,2.46-.64,3.21-1.89,3.38-4.71,0-2.88-2.14-4.31-3.93-4.36-3.39-.1-6.78.11-10.17.27-1.07.05-1.51.91-1.72,1.85-.18.81-.39,1.59.66,2.13.39.2.58.96.71,1.5.81,3.22,1.58,6.46,2.36,9.69.11.43.25.86.42,1.43l3.83-1.87-.9-4.27Zm1.68-12.53c-.69-2.8.23-2.49,1.85-2.94,1.09-.3.96-1.37.64-2.28l-2.65.32.14-.92,4.12-.85c-.64,1.95-2,4.02-.19,5.69,1.01.93,2.24,1.54,3.88.88,2.62-1.07,2.41-3.33,2.59-5.54.21.22.34.5.38.81.02,1.06.1,2.11.25,3.16.16.54.58.97,1.11,1.15.43.05.71-.12,1.04-.54.27-.35.58-1.26.71-1.8,2.04.05,1.77,2.87,4.72,1.96.39-.47.04-.81-.03-.92-.79-1.27-2.19-1.38-1.35-3.13.91-1.39.77-3.08-1.2-3.08-.98-.02-2.28-.07-3.85-.03-1.8-.13-1.23.96-1.8,2.11l-4.72-1.52c-.01-.74.07-1.68-1.05-1.58-2.45.21-4.99.09-7.23,1.41-.14,1.42-.32,2.7-.39,3.98-.07,1.32-.02,2.64-.02,4.25l3.05-.59Zm20.26,4.74c-.94,1.24-1.49,2.03-2.11,2.75-1.56,1.84-3.16,3.65-4.73,5.48-.93,1.09-1.16,2.24-.32,3.47l11.49.47.82-3.57-6.04-.65c.14-.47.35-.92.61-1.33,1.57-1.72,3.06-3.56,4.82-5.06,1.48-1.25,1.93-2.57,1.37-4.55-4.22-.47-8.54-.68-13.18-.78l.85,3.26,6.4.51Zm-19.52,154.32l5.14-8.1c-2.05-1.19-7-2-7.19-1.11l1.66,1.07c-3.57-.16-6-2.5-9.07-3.65-.47,1.17-.88,2.2-1.3,3.23l.45-.05c.43,1.79.79,3.61,1.31,5.38.19.66.59,1.51,1.13,1.77,2.43,1.23,5.16,1.73,7.87,1.46Zm76.48-115.75l.77-.13c.47-2.06,1.01-4.1,1.4-6.18.23-.96.26-1.95.08-2.92-1.12-4.41-.98-8.85-.54-13.32.12-.67.13-1.36.03-2.04-.31-1.31-.51-2.77-1.25-3.82-1.74-2.45-3.77-4.68-6-7.41l.21,2.51,1.75,1.14c-.17.56-.26.82-.33,1.04l2.72,1.77.36,3.91-1.18.39,1.89,1.75-1.49.35,1.53,1.95-.87.25.34,6.18-.73.07c1.9,1.07.69,3.11,1.6,4.38l-.86.05-.81,2.26.73,1.66c-1.38-.28-1.92-1.44-2.88-2.03-1.1-.68-2.27-1.26-3.41-1.88l.04-.2,3.44.79c-.13-.62-.11-1.18-.28-1.24-1.24-.46-2.51-.82-3.74-1.2l-.81,1.15-1.02-.53c.43,2,1.4,3.43,3.28,4.1,2.3.83,3.73,2.48,4.66,4.68.37.86.89,1.65,1.35,2.48ZM65.5,9.01c-2.45-.27-2.5-.25-2.93,1.44-.2.73-.34,1.47-.44,2.23-.24,2.17-.47,4.35-.62,6.53-.09,1.26-.51,2.56.39,3.8l2.89-.23.36-6.51c1.88-.25,1.59.36,1.46,1.88s-.21,3.28-.21,3.28c0,0-.05.62.05,1.73l2.74-.12c.15-.65.11-2.27.05-2.68-.45-3.16.79-4.98,1.36-8.02.38-2.02.09-2.77-1.08-2.97-1.68-.29-1.73,2.12-2.05,3.18-.25.81-.84.97-2.14.67l.16-4.19Zm-3.72,168.5c-1.54-1.92-2.78-4.4-5.4-5.58-1.9,4.38.19,8.93-1.07,13.27l7.34,1.69c.57-1.4,1.18-2.58-.26-3.76-.34-.4-.52-.9-.52-1.42-.08-1.34-.06-2.68-.08-4.2h0ZM37.02,10.16l-7.61,2.7.82,2.68,1.92-.13s.56,4.48-.19,6.42c-.45,1.18-2.12,1.91-2.36.77l-.78-2.61-2.42,1.59c.31,3.23.24,3.79,2.29,4.63,2.41.75,6.65-1.5,6.86-4.01.12-1.96.13-3.92.03-5.87-.04-1.25-.59-1.88,1.45-2.77,1.27-.58,1.32-1.49.4-2.81l-.41-.58Zm54.27,14.78c.51-1.34.33-2.25-1.05-2.59-1.14-.28-1.44-.91-.99-1.96l2.44.39c.74-2.51-.88-4.19-4.33-4.68-.19.21-.35.44-.48.69-.46,1.3-.96,4.19-.96,4.19,0,0-.82-.3-1.31.61s.73,2.4.73,2.4c0,0-.71,2.52-.59,4.58,1.21.47,2.59,1.06,4.01,1.54,1.03.35,1.95.23,2.37-1.01.41-1.21.08-1.85-1.25-2.43-.54-.24-1.06-.52-1.67-.82.17-.44.07-.96.17-.97.81-.11,1.98.16,2.92.06h0Zm-21.5,144.12c.38-.22.73-.49,1.05-.79,2.08-2.63,2.26-6.38.74-9.39-1.42-2.83-4.07-3.68-6.69-4.63-3.08-1.16-6.56-.1-8.47,2.59-.13.17-.06.5-.07.72.85-.18,1.64-.62,2.26-.44,2.74.76,5.55,1.26,8.39,1.48,1.74.1,3.18,1.4,3.44,3.12.32,2.14,1.14,4.48-.69,6.46-.07.07,0,.28.03.88h0Zm-28.06-3.82c1.2-.45,2.14-1.43,2.52-2.65.39-1.15.73-2.31,1.05-3.48.96-3.46-1.04-5.92-2.92-8.4-.26-.28-.61-.46-.99-.52-2.45-.48-4.89-1.04-7.36-1.34-1.27-.15-2.61.14-3.35,1.62,2.73-.63,5.18.22,7.64,1.22l-4.31.38c0,.15,0,.31,0,.46.33.08.67.18,1,.23,1.98.28,4.34-.49,5.48,2.03.01.03.15,0,.21.02,1.34.6,1.77,1.34,1.45,2.66-.2.63-.45,1.24-.74,1.83l1.71-.16-1.41,6.1Zm6.44-115.53c.15-5.18,1.58-10.05.24-15.29l-4.39.88c2.11,5.06.48,9.8-.09,14.85l4.24-.43ZM59.91,7.82c-2.65.9-5.14,1.72-7.61,2.61-1.32.48-.94,1.75-.78,2.63s2.71-.08,2.71-.08c-.29,3.61-.9,9.06-.9,9.06l2.78-.23c.46-2.77.52-5.35.88-7.96.3-1.57.69-1.82,1.82-2.32,1.53-.69,1.66-1.31,1.09-3.72h0Zm40.16,22.88l-.57.38c.43.85.92,1.66,1.46,2.44,1.19,1.46,2.5,2.83,3.76,4.25.29.32.75.66.77,1.02.17,1.86.21,3.73.11,5.59-.16,1.99-.62,3.95-.95,5.93.61-.04.95-.18,1.01-.4.69-2.55,1.7-5.08,1.89-7.68.15-2.02-.23-4.43-1.28-6.11-1.45-2.31-3.84-3.97-6.22-5.41h0Zm-38.08,157.89c-2.38-.1-4.27-2.15-6.84-1.62-.2,2.6-.4,5.08-.58,7.52,2.02-1.15,3.8-2.36,5.75-3.19,1.3-.55,1.71-1.29,1.67-2.71h0Zm-27.31-7.66c.63-2.09.84-2.24,2.59-1.81.64.16,1.27.37,1.91.48,1.56.26,3.17.13,4.67-.38-3.71-2.19-9.22-1.46-12.05,1.57l2.88.14Z"></path><path d="m42.42,69.04c4.08.46,7.99,1.93,11.35,4.29,4.65,3.32,7.12,7.96,7.68,13.58.32,3.23.44,6.48.6,9.72.06,1.22-.43,2.18-1.8,2.82l-.43-1.81c-1.01-.05-2.1-.16-3.2-.12-.75.06-1.5.18-2.24.37-5.21,1.11-9.63-.78-13.4-4.06-3.59-3.13-5.13-7.41-5.06-12.18.04-2.93.27-5.86.42-8.95l-1.18,1.79c-.22-2.81.8-4.36,3.3-4.96,1.33-.25,2.67-.42,4.02-.51l-.08.02Zm1.13,5.56c1.78,4.47,8.27,8.4,11.41,7.04.56-3.55-7.98-8.71-11.41-7.04h0Zm-3.98,11.28c.34,5.69,7.19,10.07,11.23,9.01-4.31-2.23-8.12-5.29-11.23-9.01h0Z"></path><path d="m106.29,93.96l-.37-3.1c-.46.83-.72,1.21-.9,1.64-1.48,3.66-3.57,7.05-6.19,10.01-3.98,4.39-9.06,5.65-14.67,4.94-2.43-.37-4.66-1.57-6.3-3.39-.78-.83-1.62-1.59-2.53-2.27-1.54-1.13-2.53-.93-3.85.7-.98-1.13-.76-2.32-.03-3.32,2.5-3.42,4.83-7.01,7.69-10.11,5.97-6.47,16.98-7.5,24.79-2.86,3.3,1.97,4.04,4.24,2.36,7.77Zm-7.6-4.63c-3.68-3.46-10.6-3.09-13.23.58,2.36,2.55,10.31,2.27,13.23-.58h0Zm-2.21,11.61c-4.54,2.08-8.82,2.83-13.53,2.21,3.89,3.25,10.12,2.33,13.53-2.21h0Z"></path><path d="m97.6,106.13c-1.35,3.08-2.88,6-6.28,7.46-.59.33-1.15.7-1.7,1.1-1.66.97-4.04.83-4.92-.61-1.56-2.56-4.3-3.71-6.29-5.73-.5-.41-.91-.93-1.17-1.51.52.08,1.04.2,1.54.37,1.45.63,2.87,1.33,4.31,2,2.83,1.42,6.19,1.3,8.91-.32,1.75-.99,3.38-2.2,5.07-3.31l.53.55Z"></path><path d="m69.84,96.75c-.9-3.84,3.27-12.26,8.42-17.03,4.8-4.44,13.16-7.19,18.05-5.64-2.74.63-5.17.97-7.44,1.78-2.29.78-4.46,1.87-6.46,3.22-2.02,1.46-3.84,3.17-5.43,5.08-1.54,1.86-2.9,3.86-4.05,5.98-1.18,2.11-2.06,4.39-3.08,6.61Z"></path><path d="m42.49,69.01c.07-.35.09-.97.22-1,.89-.17,1.79-.25,2.69-.23,3.96.16,7.79,1.43,11.06,3.66,2.84,1.92,4.99,4.56,5.78,7.89.82,3.51,1.17,7.14,1.66,10.72.02.7-.03,1.4-.16,2.08h-.58c-.2-1.68-.36-3.37-.62-5.04-.81-5.17-2.36-9.98-6.42-13.66-3.42-3.11-7.55-4.33-11.99-4.78-.55-.06-1.15.24-1.72.38l.08-.02Z"></path><path d="m102.58,83.72c-3.07-1.08-6.09-2.14-9.41-2.25-4.81-.16-8.99,1.52-12.52,4.52-2.45,2.08-4.42,4.74-6.6,7.14-.34.37-.64.78-1.13,1.38.75-5.07,7.77-11.87,13.79-13.63,5.79-1.69,11.09-.71,15.88,2.84Z"></path><path d="m39.71,95.28c2.91,1.4,5.16,2.8,7.61,3.58,2.47.79,5.13.96,7.87,1.85-.6.47-1.25.89-1.92,1.24-2.07.87-4.32,1.23-6.56,1.04-1.15-.02-2.21-.62-2.82-1.59-.72-1.13-1.77-2.05-2.56-3.15-.6-.96-1.14-1.95-1.61-2.97Z"></path><path d="m37.38,64.09c1.72-2.62,4.32-3.4,7.06-3.6,7.34-.52,14.38,3.87,17.27,9.92.13.29.16.61.08.92-3.11-3.57-6.52-6.72-11-8.33-4.57-1.64-9.04-1.04-13.4,1.09Z"></path><path d="m64.36,113.28c-.28-1.73-1.24-3.29.14-4.8,2.03.9,2.46,2.06,1.65,4.8l-.91-1.35-.87,1.36Z"></path><path d="m60.53,112.01l-1.79-1.15c.48-1.87,2-2.66,4.04-3.16-.04,1.95-1.4,2.99-2.25,4.31Z"></path><path d="m60.05,148.24c-5.98-1.63-8.71-5.88-7.78-11.6.14-.98.35-1.94.62-2.89.58-2.09,2.11-3.77,4.13-4.55,1.07-.39,2.16-.71,3.27-.94,6.04-1.42,9.97,3.3,11.32,7.46.91,2.79.56,5.35-1.53,7.61-.84.91-1.2,2.33-2.12,3.11-1.13,1-2.48,1.7-3.94,2.07-1.38.28-2.91-.18-3.97-.27Zm7.15-4.59l.4.19c.79-.9,1.61-1.77,2.35-2.71,1.61-2.04,1.57-4.16.22-6.32-.24-.38-.53-.74-.75-1.14-2.76-4.98-7.84-6.17-12.71-2.96-.12.08-.09.36-.18.73,1.07-.21,2.13-.49,3.17-.85,2.24-.92,4.12-.56,5.85,1.4l.35,4.36,1.65.2c-.12,2.43-.23,4.76-.34,7.09Z"></path><path d="m40.01,137.44c1.36.1,2.12.71,2.08,2.05-.1,1.19-.29,2.37-.54,3.54,1.14.48,1.47.03,1.56-.93.1-1.02.01-2.19,1.52-2.62l1.83,1.45c.41-.46.88-.86,1.4-1.2.56-.19,1.17-.15,1.69.13-1.81-.11-2.78,3.69-5.21.7-.14.86-.21,1.44-.34,2.01-.32,1.42-1.22,2.14-2.35,1.9-1.11-.24-1.48-1.21-1.07-2.73.2-.73.54-1.5.44-2.19-.11-.76-.67-1.45-1-2.11Z"></path><path d="m52.17,152.73c1.36-.12,1.09-2.75,3-1.99-.51.91-1.08,1.79-1.72,2.61-.45.51-1.26,1.1-1.79,1.01-.5-.09-.96-.99-1.23-1.62-.44-1.03-.72-2.13-1.05-3.16q2.07.12,2.8,3.16Z"></path><path d="m69.01,149.36c2.56.66,3.13,2.82,4.39,4.51l2.3-1.64.27.28c-.4.71-.85,1.39-1.33,2.05-.88,1.1-2.02.96-2.74-.26-.89-1.52-1.78-3.03-2.91-4.94Z"></path><path d="m21.23,162.45c-.75.88-1.5,1.75-2.24,2.63-1.21,1.44-2.79,1.19-3.44-.56-.2-.54-.34-1.1-.52-1.69q1.27.29,2.21,1.77l3.75-2.56.25.4Z"></path><path d="m53.83,166.71c1.01,1.93.75,3.48-.53,4.38-1.33.94-4.15.78-5.06-.28-1.09-1.27-.86-3.3.59-5.02.04,1.33.18,2.65.42,3.96.08.33,1.18.52,1.82.57,1.84.15,2.38-.53,2.75-3.6Z"></path><path d="m33.73,162.83c-.07,2.75-1,4.41-2.45,4.79-1.24.33-2.19-.29-3.39-2.33.29.03.58.1.86.21,2.19,1.27,3.31.93,4.39-1.37.15-.31.29-.63.59-1.31Z"></path><path d="m44.09,194.67l5.76.82c-1.69,1.75-3.17,1.58-5.76-.82Z"></path><path d="m50.24,194.25l-6.14-1.42c1.89-1.27,4.13-.83,6.14,1.42Z"></path><path d="m52.85,182.49c-2.05,1.85-3.55,1.72-5.38-.43l5.38.43Z"></path><path d="m48.82,197.57c-2.7,1.56-2.88,1.52-5.18-1.2.78.36,1.58.67,2.4.92.92.16,1.85.25,2.79.28Z"></path><path d="m19,186.94l4.92.35c-1.36,1.89-2.97,1.79-4.92-.35Z"></path><path d="m72.11,177.95c-1.74.83-3.38.61-4.23-.58-1.21-1.7-1.1-3.09.62-5.06-.22,1.54-.8,3.02.34,3.97.92.76,2.16,1.13,3.26,1.67Z"></path><path d="m70.17,194.71l-5.11-1.18c2.04-1.05,3.9-.69,5.11,1.18Z"></path><path d="m84.66,42.86l.14,3.8-2.23-.77,1.68-3.11.41.08Z"></path><path d="m34.12,42.08l-1.41-3.31c1.62-.11,3.94-.18,5.28-.3.83-.07,1.57.04,1.78.96.23.98-.34,1.64-1.24,1.84-1.45.32-2.5.5-4.42.82Z"></path></svg>