<svg xmlns="http://www.w3.org/2000/svg" viewBox="0 0 177.51 186.24" fil="black" ><path d="m147.2,80.74c1.71-7.03,3.73-14,3.84-21.3-2.51,4.35-3.28,9.57-7.24,13.16,1.83-7.24,3.24-14.48,3.16-22.52-3.34,3.11-3.15,7.92-7.37,10.3l2.47-10.36c-2.4,1.21-7.33,6.16-7.65,7.67-.12.96-.07,1.93.14,2.87.49,3.15,1.51,6.29,1.47,9.43-.15,4.96-.6,9.9-1.32,14.8-.28,1.46-.19,2.96.26,4.38.77,2.24,1.13,4.59,1.08,6.95-.14,5.7-1.69,7.7-7.42,10.43-.93,5.25-1.1,10.6.36,15.94.22.8.7,1.61.67,2.4-.18,4.82,3.17,7.4,6.31,10.07,4.02,3.41,8.13,6.73,12.26,10.01.64.47,1.43.71,2.23.66,1.77-.24,3.52-.58,5.25-1l-5.26,3.52c3.52.36,6.4.65,9.28.94-1.54,3.21-1,4.41,2.67,5.63-1.49,1.78-2.52.89-3.71-.27-.87-.84-.85-2.91-2.9-2.3.28,4.74.87,5.48,4.99,6.39.67.15,1.32.37,1.94.67.41.27.78.59,1.1.96l-4.72-.06c1.38,2.23,2.44,3.93,3.49,5.63l-.35.23-3.52-3.55-.57.4,1.6,2.87-.47.31-4.74-4.69c.06,1.59.1,2.63.13,3.68l-2.6-1.83c.61,2.51,1.02,4.2,1.43,5.9l-.42.2-2.65-4.39c-2.02,1.03-.99,2.77-1.42,4.49-1.46-3.9.14-8.02-2.14-12.49l-2.81,4.73-.54-.27,1.64-4.26-18.09-17.25c-.87.92-1.56,1.54-2.13,2.25-3.57,4.47-7.99,8.19-13,10.94-2.78,1.54-6.36,1.89-9.64,2.23-7.09.74-13.79-.97-20.16-4.06-1.49-.72-2.98-1.41-4.66-2.2-.81,1-1.57,1.79-2.16,2.69-3.49,5.33-6.97,10.65-10.38,16.03-2.45,3.87-1.91,6.98,1.9,11.41-2.18-.35-3.71-3.29-6.23-.99l.76,6.15-.54.14c-.48-1.44-.96-2.88-1.65-4.96l-2.86,3.02c-.03-.74-.06-1.48-.09-2.22-1.38-.69-2.67,1.7-2.84,6.01l-2.01-4.78-2.39,2.87-.67-3.23,2.74-4.23c-3.04,1.13-6.26,1.76-8.21,5.64.04-3.87,2.8-4.48,4.02-6.73l-4.83,1.7c1.26-2.47,3.68-2.69,5.63-2.94l3.23-6.47h-4.7c1.89-1.83,4.24-1.52,6.38-1.14l15.28-23.32c-2.21-3.33-2.94-7.11-2.98-11.28-.04-4.7-.79-9.41-1.45-14.09-.24-1.71-1.11-3.34-1.59-4.72-.75-.22-1.05-.43-1.27-.36-4.64,1.43-7.38.12-8.92-4.48-1.08-2.91-.99-6.13.26-8.97.77-1.7.53-3.03-.38-4.67-.94-1.86-1.61-3.84-1.99-5.89-1.1-4.99-3.5-9.71-3.13-15.02.07-.82-.19-1.64-.73-2.27-2.34-2.03-4.82-3.9-7.26-5.83l-.7.65,3.91,6.71q-1.85.05-8.7-6.06c2.33,5.72,5.19,11.16,9.87,16.44-4.44-1.1-4.94-1.49-12.24-9.01.34,2.61,1.48,4.38,2.36,6.22.9,1.87,1.95,3.68,2.95,5.5,1.11,1.87,2.06,3.84,2.83,5.88-5.67-2.64-8.99-7.46-11.77-12.67-2.84-5.32-3.99-11.14-4.12-17.73-2.62,2.77-2.38,6.07-3.99,8.64-1.24-4.92-.16-9.72.26-14.64-3.98,7.01-6.63,14.51-8.6,22.36-2.52-6.41-.7-12.54.97-18.75-3.27,2.7-4.46,6.52-5.91,10.11-1.49,3.7-2.59,7.55-3.91,11.47-2.19-3.78-2.22-9.09.51-16.38,1.98-5.28,4.64-10.32,7.16-15.83-1.77-1.91-5.26-.31-7.89-2.31,3.8-2.14,7.86-1.26,11.87-2.29-3.14-7.63-4.7-15.1-2.63-23.94,3.29,6,3.25,12.33,7.04,17.45,2.61-9.96,9.33-16.33,16.98-21.84,3.6-2.6,10.47-5.07,18.87-3.61-9.98,4.3-18.41,9.53-23.59,18.77,5.79-4.38,10.85-10.14,19.34-10.14-2.91,3.97-7.77,5.53-9.87,10.08l5.01-.22c-3.49,3.31-7.92,4.47-10.42,8.37,3.62-.94,6.89-1.94,10.24-2.63,5.36-1.1,10.75-1.36,16.09.28,2.08.64,3.88.1,5.88-.81,4.78-2.17,9.63-4.43,14.69-5.71,5.13-1.33,10.49-1.52,15.7-.56,2.07.4,4.02,1.46,6.96,2.56,3.58-.73,7.3-.26,10.58,1.34.83.48,1.78.73,2.74.74,5.56-.51,11.07-1.39,16.52-2.61-4.11-.72-8.19-1.67-12.32-2.07-4.09-.4-8.23-.23-12.36-.62,9.96-5.1,20.18-4,31.42-.87-3.43-4.2-7.59-5.71-11.73-8.15,4.39-1.15,7.59.62,11.03,1.63-5.16-5.57-12.13-8.37-18.66-11.96,5.8-.31,11.19,1.16,16.54,3.57-1.54-3.27-3.17-4.87-8.61-7.91-3.37-1.88-6.88-3.49-10.49-5.31,4.14-.94,12.92,1.48,18.3,5.26,5.46,3.84,8.44,9.8,12.41,15.49,1.32-3.4.6-6.57.49-9.64-.1-2.95-.66-5.88-1.13-9.7,5.54,5.77,4.61,12.95,6.94,19.21,3.38-2.2,5.05-5.95,8.23-9.56.33,4.66-1.6,7.85-2.82,11.42,3.2.77,6.72-.19,10.01,2.4l-9.43,1.61c1.13,1.26,1.75,2.1,2.51,2.78,4.18,3.73,7.92,7.76,10.49,12.84,2.52,4.98,3.41,10.26,3.34,15.76-.05.4-.16.79-.34,1.15-.04.11-.22.16-.56.38-2.24-7.66-5.03-15-11.39-21.12,1.09,3.11,2.23,5.57,2.78,8.16.74,2.96.21,6.09-1.47,8.64-.16-6.52-2.25-11.5-6.59-16.43.58,4.96,3.1,9.16.39,14.3-.98-5.33-2.3-9.64-6.4-12.71.23,1.11.41,2.22.7,3.31,3.06,11.65,2.26,22.86-3.81,33.46-.86,1.34-1.8,2.64-2.8,3.88l-.81-.37Zm-26.37-35.91l-3.86-1.98c.32-.33.62-.61.88-.92.32-.4.6-.82.87-1.2-2.77-3.06-6.27-2.61-10.71-2.3l2.19-2.03c-4.7-3.18-6.68-3.13-9.41.2,1.31,1.29,3.47,1.55,4.46,3.5-6.07,2.96-10,8.22-14.91,12.24l-.71-.62,5.76-8.91-5.76,1.48c1.55-5.18,5.74-8.08,8.1-12.34-11.8-2.85-21.54,1.94-31.64,6.98l4.48,3.28c-.85.26-1.76.25-2.6-.01-.95-.2-1.9-.38-2.86-.53-3.15-.49-3.9-.08-5.9,3.23l3.21,2.8c-1.71.09-2.81-.03-3.8.25-.96.28-2.2.74-2.62,1.51-2.25,4.17-3.96,8.58-4.36,13.37-.05.64.3,1.31.46,1.97,1-1.18,1.33-2.35,1.78-3.47.4-.99.95-1.92,1.43-2.88l.41.21c-.47,2.11-.94,4.23-1.49,6.75l2.46-1.58-1.08,4.12,1.94-.47.67,2.18,5.63-4.06.2.31-3.71,5.48,1.35.98c3.11-1.72,5.82-3.31,8.61-4.74,1.93-.98,3.87-.43,5.54.68,3.04,2.02,5.07,4.7,5.04,8.6-.06,6.78-2.25,12.1-8.59,15.71-2.77,1.58-5.35,2.68-8.43,2.87-3.28.21-5.52-1.08-6.2-4.24-.64-2.84-.92-5.75-.83-8.66.09-2.21-.74-2.95-3.02-3.56-.17,1.74-.58,3.24-.42,4.68.64,5.77-.69,12.27,5.51,16.47l-4.98-.63c-.15,2.5-.54,4.84-.37,7.15.26,3.54,2.89,5.27,6.12,4.03,1.17-.45,2.12-1.71,2.96-2.78,1.3-1.66,2.46-3.65,4.67-3.89,2.48-.27,4.04-1.52,5.53-4.29l3.31,8.68c.4-3.45,2.58-3.09,4.37-2.3,1.38-1.38,2.3-3.03,3.49-3.26,1.06-.21,2.43,1.15,3.52,1.74.95-1.46,1.64-3.28,2.96-4.32,1.62-1.29,3.01.49,4.27,1.71.72-2.73-2.23-5.12.15-7.91.53,2.05.94,3.61,1.18,4.56l7.02,2.18c2.35-2.51,4.53-.07,7.1,2.1.48-2.54.69-4.59,1.27-6.52.74-2.47,2.3-3.3,5.56-2.8-4.07,1.24-4.78,4.08-5.13,7.4,4.13.51,1.43-4.19,3.78-4.75,1.11.83,2.26,2.4,3.25,2.3,2.67-.27,4.16.98,5.58,2.83,1.3,1.69,3.12,2.44,5.15,1.79,2.21-.71,3.94-2.18,4.37-4.62.59-3.38.58-6.66-2.3-9.2l-3.17,2.16c4.68-10.24,3.96-19.91-1.61-23.67l-2,2.85c2.58,5.13,2.91,6.36,2.76,10.1-.19,4.94-3.92,8.39-8.82,7.77-8.35-1.06-15.31-6.61-16.6-15.65-.93-6.49,3.16-12.05,11.19-9.6,1.29.39,2.58.79,4.06,1.24l2.66-4.23-2.4-2.11c1.63-.31,2.93,1.54,4.3-.51l-2.82-3.97,4.09,2.59c1.72-2.77-1.5-3.81-1.42-5.95l3.22,2.68.57-.48-5-7.89,6.16,6.4.69-.53c-1-3.06-2.63-5.84-5.62-7.44-1.35-.72-1.5.59-1.13,1.68Zm-28.18,88.19c-3.36-2.53-3.87-2.46-5.98.71-1.54,2.31-3.09,4.61-4.56,6.97-1.21,1.94-2.31,3.96-3.74,6.43l10.44,3.83.77-2.22,2.09,2.67c.32-.46.46-1.03.39-1.59.13-.67.32-1.32.56-1.96.45,1.2.73,1.93,1.11,2.92l2.34-4.47c.26,2.12.38,3.32.56,4.5.23,1.49,1.2,2.47,2.6,1.78,3.74-1.83,7.62-2.21,11.71-2,1.75.09,2.42-.97,2.08-2.74-.28-1.46-.73-2.88-1.07-4.17l2.85-1.26c.08,1.65.16,3.25.28,5.58,2.96-2.2,5.95-3.3,6.52-6.94.08-.51.72-1,1.2-1.35.75-.44,1.53-.83,2.33-1.16l-14.71-12.75-3.19,3.97-.28-2.26-4.6,3.2c-1.97-1.14-2.41-.95-4.01,2.25l-1.77-2.73c-1.01,1.41-3.83-.81-3.9,2.8h0Zm-22.4,6.51l.5-.07c-.02-1.35-.03-2.71-.03-4.06,0-.07.12-.15.29-.32l1.01,2.16c3.32-3.31,3.36-3.69,2.07-7.59-.67-1.96-1.15-3.98-1.45-6.03-.69-5.1-1.19-10.22-1.82-15.33-.19-.82-.45-1.63-.8-2.4-1.71,4.4.57,8.65-.48,12.94-.62-3.51-1.24-7.01-1.88-10.66l-.63,1.3-1.6-2.17c-.24,3.18-1.04,5.88-.52,8.28,1.45,6.93,2.32,13.98,2.58,21.06,0,.2.31.38.51.6l1.33-.76c.31,1.01.62,2.03.94,3.05h0Zm50.07-38.3l-1.23.06c.43,6.41.86,12.82,1.32,19.69,1.62,1.34,3.2,4.04,6.3,2.08-.19-4.98-.35-9.67-.58-14.36-.05-.68-.28-1.33-.66-1.9-.9-1.34-1.92-2.59-3.13-4.19-.25,4.14,1.07,8,.16,11.81-1.25-4.34-.38-9-2.18-13.19h0Zm-24.9,8.55c-.21-1.7-.03-3.25-.63-4.39-.77-1.47-.98-3.65-3.18-3.96-1.22-.17-2.57,1.98-2.63,4.65-.05,1.83-.69,4.1,1.44,5.24,1.9,1.02,3.35-.42,5-1.54h0Zm-41.7-62.38c-5.54.19-10.34.45-15.04,2.55l11.84,3.07,3.2-5.62Zm-5.31,14.85c.39-1.75.63-2.67.78-3.6.17-1.05.25-2.11.37-3.14-4-1.11-7.18-1.03-10.53.34l9.38,6.4Zm34.96,52.32l4.51-2.44c.04-5.04-.95-6.79-4.38-7.84-1.94,3.23-1.35,6.43-.13,10.28h0Zm18.79-5.46c.48-2.48,0-5.04-1.35-7.18-.45-.72-1.84-1.23-2.75-1.16-.65.05-1.65,1.17-1.74,1.91-.22,1.74.01,3.54.06,5.35.58.28,1.18.5,1.8.67,1.21.18,2.44.26,3.97.41h0Zm5.47.61c.99-5.39.73-6.35-2.18-8.15-2.29,1.98-2.88,4.01-1.81,6.38.81,1.8,2.2,2.25,3.99,1.77h0Zm35.22,37.04c1.32-4.2,1.19-4.44-3.63-7.16l-2.93,4.02c1.29,3.34,4.22,2.21,6.56,3.15h0Zm-19.64-21.51l-3.53-2.95-3.37,4.95c3.39,3.41,4.51,3.13,6.9-1.99h0Zm7.34,13.95c1.46,1.23,2.58,2.21,3.75,3.14.16.13.51.02.77.03,3.4-3.74,3.34-4.16-1.1-7.01l-3.42,3.84Zm-63.87,9.62c-2.47,2.37-3.22,3.69-2.23,4.76.94,1.01,2.43,1.95,3.73,2.02.78.05,1.66-1.61,2.63-2.64l-4.12-4.14Zm62.28-18.18l-3.69,4.05c2.93,3.14,4.31,3.5,5.99,1.63,1.58-1.76,1.19-2.83-2.31-5.68h0Zm-45.91-7.6c-3.19,4.43-2.75,6.03,2.25,7.61l2.14-3.39-4.39-4.22Zm-2.06,13.91l-4.37-2.98c-2.72,3.58-2.59,4.76,1.31,7.46l3.06-4.48Zm18.07-8.38c2.9-3.8,3.55-7.08,1.76-8.74l-3.17,1.37c.05,2.54-.19,4.87,1.41,7.37h0Zm-13.21-9.7c-2.28,3.45-2,4.2,2.63,6.7l2.46-3.7-5.09-3ZM44.68,41.43c0,.22,0,.44-.01.66,3.62.54,7.22,1.15,10.85,1.6,1.66.21,2.42-.89,2.93-2.95l-13.77.69Zm65.36,73.66l-2.75,4.57c.45.53.94,1.03,1.46,1.49.55.36,1.12.68,1.72.94,3.72-3.38,3.7-3.85-.44-7.01h0Zm-15.56,5.99c-.92,1.52-1.78,2.49-2.12,3.62-.3,1.13-.3,2.32,0,3.45.14.54,1.22,1.17,1.84,1.14.61-.03,1.61-.77,1.7-1.32.37-2.24.61-4.55-1.43-6.89h0Zm-32.16,33.54c-2.69,3.56-2.52,4.17,2.27,6.19l2.84-2.9-5.12-3.29Zm48.87-30.8c1.81.78,3.19,1.91,4.09,1.61,1-.33,1.91-1.88,2.22-3.07.47-1.79-.75-2.74-2.7-3.04l-3.61,4.49Zm23.49-70.74l-4.13-2.43-3.47,2.5,5.02,4.16,2.58-4.24Zm-.9-9.59l-.66-.76-7.8-.48,4.32,5.66,4.14-4.42Zm-13.48,88c.74.36,1.37.66,1.99.98.58.31,1.15.65,1.62.92,4.19-2.99,4.24-4.52.38-6.32l-3.99,4.41Zm-48.36,19.64l1.72-2.6-4.07-4.16c-2.54,3.62-2.3,4.28,2.36,6.77h0Zm6.44-44.89c-1.32,3.67-1.08,6.13.34,7.74.77.87,2.22.84,2.3-.13.16-1.63.05-3.27-.32-4.86-.22-.88-1.26-1.55-2.32-2.75h0Zm10.62,8.32c-2.12,2.19-2.29,2.96-.85,4.24,1.86,1.66,3.77,1.28,5.83-1.14l-4.98-3.09Zm-12.31,28.46l-3.58-3.94c-.98,1.68-3.15,2.78-1.6,4.78.72.93,2.24,1.25,3.48,1.88l1.69-2.72Zm-25.12-70.11c3.49,2.84,4.13,2.64,5.94-1.86l-3.17-2.13-2.77,4Zm50.96,41.1l3.28,4.1c3.5-3.1,3.24-4.73-.86-6.23l-2.42,2.13Zm-22.88,14.84c-2.45,3.8-2.22,4.4,2.35,6.65l1.87-3.05-4.22-3.6Zm-30.12-56.87c4.11-3.48,4.03-4.46.01-6.51l-2.79,4.28,2.78,2.23Zm14.57,10.1c2.96-3.37,2.89-3.97-.44-6.06l-3.2,3.57,3.64,2.48Zm48.52,27.54q.45-4.57-1.36-6.43c-1.52,1.62-2.49,3.38-1.63,5.62.48,1.24,1.5,1.54,2.99.81h0Zm11.04-51.42c-.69,1.69-1.69,2.96-1.46,3.95.2.87,1.7,1.71,2.78,2.03,1.72.5,2.31-.92,2.57-1.61l-3.89-4.36Zm-3.44-21.09c1.21,3.63,3.46,2.17,5.31,1.85,2.03-.35,4.03-.88,6.04-1.33l-.16-.84-11.2.33Zm-61,35.59l-3.35,3.61,3.41,2.23c3.14-3.14,3.13-3.36-.06-5.84h0Zm23.06,48.25l-3.36-1.35,1.06,2.51c-2.94,2-3.37,3.23-2.04,6.59l4.33-7.76Zm33.6-50.48c-1.22,2.46-1.07,3.57.57,4.52,1.52.88,2.21.49,3.72-2.14l-4.28-2.38Zm-50.78,4.7c2.48-3.26,5.53-5.04,10.22-4.61-4.19-2.28-10.39-.17-11.27,3.24-.08.29.58.78,1.05,1.36h0Zm65.63-16.9l-3.91-3.74c-1.33,1.32-2.69,2.39-.94,4.16,1.57,1.58,2.91,1.47,4.85-.43h0Zm-8.06,11.01l-4.11-3.51c-1.03,1.48-2.53,2.68-.67,4.36,1.56,1.41,3.07,1.13,4.77-.86h0Zm-6.69-2.2l.07-.93c-4.71-2.63-6.95-2.69-9.75-.28l9.68,1.21Zm-50.46,16.23l3.36,2.11c2.1-4.16,2.06-4.36-.82-6.06-.33.58-.64,1.18-1,1.75-.44.67-.92,1.32-1.54,2.2h0Z"></path><path d="m87.52,72.29l4.25,2.05,1.5-3.2c.44.25.76.32.89.52,1.97,3,3.95,6,5.83,9.05.88,1.4,1.64,2.88,2.28,4.41.95,2.33.22,4.45-1.51,6.07-1.59,1.49-3.59,1.25-5.47.44-.82-.42-1.61-.88-2.37-1.39-.76.62-1.59,1.3-2.41,1.98-1.4,1.25-3.46,1.42-5.06.43-1.67-.84-2.65-2.61-2.48-4.46,0-.56.04-1.11.14-1.66,1.13-4.28,2.28-8.55,3.45-12.82.1-.37.44-.67.96-1.42Zm-.13,1.69c-.05,3.54,1.94,4.17,4.49,4.68l2.05-3.68c-.11-.47-.22-.95-.33-1.42-2.17,3.34-3.9,1.1-6.22.42h0Z"></path><path d="m98.54,135.7l-4.24.52c1.96-1.98,5.96-2.32,11.83-.89-1.23,1.14-3.83.2-3.78,2.62l-6.39.78,2.76-2.41c-.06-.21-.12-.42-.18-.64Z"></path></svg>