<svg width="22" height="31" viewBox="0 0 22 31" fill="#D6292F" xmlns="http://www.w3.org/2000/svg"><path d="M4.93913 14.6048C5.45033 14.555 5.81493 14.5186 6.30481 14.4692C6.51779 13.9932 6.75623 13.4542 6.99853 12.9214C7.30658 12.2446 7.51572 11.4914 7.96445 10.9169C8.56839 10.1344 9.53573 9.68187 9.64833 8.48087C9.74582 7.45698 10.1247 6.4568 10.3981 5.45307C10.6594 4.47835 10.9458 3.50957 11.0365 2.44688C9.57953 3.42184 8.988 5.00963 7.99663 6.44487C7.59501 6.52571 7.11075 6.61898 6.67536 6.70782L4.40736 10.4517L2.94513 10.5912C2.57842 11.472 2.26621 12.3019 1.88588 13.1051C0.810659 15.3708 0.974432 15.7813 3.58372 16.9321C3.82926 16.6338 4.15003 16.332 4.36211 15.9728C4.589 15.5958 4.71342 15.1574 4.94179 14.616L4.93913 14.6048Z"></path><path d="M4.86201 21.3719C7.00993 20.735 8.83915 20.1877 10.7996 19.6022C10.7709 19.1597 10.7549 18.8212 10.7214 18.3085C11.3058 18.0156 11.982 17.739 12.5978 17.3579C13.6427 16.7111 15.2616 16.8317 15.5066 15.0454C15.552 14.6948 16.4734 14.4599 16.9965 14.1792C17.7437 13.7811 18.4949 13.3893 19.2472 12.9925L19.0526 12.4419C16.6115 12.8345 14.1715 13.2221 11.7079 13.6201C11.6528 14.08 11.6161 14.4168 11.5574 14.8918C10.8546 15.1462 10.0646 15.3642 9.34817 15.7216C8.44363 16.1783 7.2604 15.9902 6.71863 17.3665C6.48344 17.9594 5.04105 18.0823 3.87645 18.515C4.18355 19.4003 4.45541 20.1869 4.86823 21.3681L4.86201 21.3719Z"></path><path d="M7.15932 27.1891C8.51967 27.2117 9.77457 27.2307 11.0345 27.2509L10.9504 26.976C11.7477 26.6589 12.5229 26.278 13.3477 26.047C14.48 25.729 15.8492 26.301 16.7363 24.9475C16.944 24.6297 17.8544 24.7802 18.4367 24.6993C19.3759 24.5697 20.3124 24.4287 21.2478 24.2928L21.2777 23.8269C19.9929 23.5511 18.7143 23.1811 17.4123 23.0235C16.1669 22.8739 15.0204 22.2587 13.5904 23.0062C12.6026 23.523 11.1227 23.1056 9.66723 23.1032L9.02864 24.0103C8.24761 24.055 7.44408 24.105 6.56028 24.1574C6.10767 25.2678 6.31614 26.1883 7.16169 27.1791L7.15932 27.1891Z"></path></svg>