<svg xmlns="http://www.w3.org/2000/svg" viewBox="0 0 161.33 225.99" fill="white"><path d="m91.04,99.71c1.92-3.2,4.52-6.15,3.05-10.58-.52-1.56.39-3.82,1.17-5.52,1.18-2.69,3.97-4.29,6.89-3.95,2.98.2,4.44,2.48,5.38,5,.42,1.36.73,2.75.95,4.15,1.73.54,3.99.58,5.04,1.73,1.25,1.37,1.9,3.66,2.05,5.6.33,4.45-3.52,8.76-7.85,8.59-2.62-.1-3.72.88-4.56,3.04-1.56,4.03-3.29,8.01-4.88,12.03-.28.68-.34,1.43-.16,2.14,4,11.78,8.06,23.53,12.14,35.39,4.31-.35,8.37-.76,12.44-.98,1.2-.07,2.42.38,3.64.59-.46,1.23-.89,2.47-1.38,3.68-.11.26-.26.51-.44.73l3.95,3.98-4.33,4.03c1.3,1.35,4.8,1.91,3.64,5.78l-11.3,1.65c.75,2.08,1.58,4.26,2.33,6.46,2.37,7.03,4.64,14.1,7.13,21.09.53,1.35,1.5,2.48,2.74,3.22,3.48,1.94,5.08,5.41,3.88,9.29-1.05,3.43-5.04,5.95-8.58,5.67-1.04.04-2.06.33-2.97.83-1.95.86-3.79,2.34-5.8,2.6-1.55.2-4.2-.63-4.75-1.77-1.04-2.18-.94-4.91-1.28-7.41.02-.22.13-.42.3-.56,4.25-4.13,2.32-8.53.74-13.04-2.7-7.76-5.29-15.57-7.76-23.41-.52-1.65-1.25-2.21-2.92-2.25-8.67-.16-17.34-.37-26.01-.68-1.9-.07-2.94.64-3.76,2.28-4.73,9.37-9.63,18.65-14.24,28.08-.8,1.65-.82,3.86-.66,5.76.34,3.82-.3,7.18-3.52,9.54-2.46,1.8-6.59,1.78-8.82-.27-1.4-1.29-2.17-3.26-3.51-5.39-.26.01-1.21.08-2.15.1-4.28.07-6.61-3.4-5.15-7.52,1.59-4.49,4.78-7.04,9.34-8.11.74-.17,1.75-.55,2.04-1.12,3.63-7.21,7.15-14.48,10.93-22.2-3.19.19-5.96.29-8.72.52-4.75.39-9.49.87-14.24,1.3-3.73.34-5.04-.4-5.53-4.2-1.5-11.61-2.4-23.23-1.76-34.99.87-15.98,2.91-31.76,7.86-46.98,2.23-6.84,5.47-13.42,8.83-19.82,4.22-8.04,9.03-15.76,13.7-23.82-3.31,1.54-6.78,2.9-10,4.71-2.98,1.68-5.68,3.83-8.79,5.37,1.42-5.41,4.9-8.99,8.92-12.24-9.25,4.36-17.55,10.14-25.43,16.69.94-7.59,5.83-12.35,11.35-16.76-11.51,4.1-20.66,11.74-29.91,19.33,3.82-11.48,11.89-19.23,22.18-24.64,10.34-5.44,21.33-8.57,33.76-5.85-5.03-6.67-13.66-5.42-19.19-9.81l.41-1.6,13.72,1.12c-8.42-4.45-17.4-6.27-26.67-7.44,4.88-4.03,10.46-4.22,16.1-4.13l.25-.95c-5.74-1.71-11.44-3.54-17.22-5.07-2.8-.74-5.75-.89-8.61-1.44-.7-.13-1.3-.76-1.95-1.16.53-.44,1.11-.82,1.73-1.11,13.71-4.23,26.11-.85,37.62,6.81,4.65,3.09,8.95,6.7,13.76,10.35V.51l.9-.51c.75,1.07,1.87,2.05,2.18,3.24,1.57,5.81,2.92,11.68,4.31,17.35l6.4-5.17.9.7c-1.21,3.55-2.42,7.11-3.84,11.3,18.42-7.34,35.47-5.08,51.69,4.2,3.55,2.03,6.31,5.44,9.43,8.21l-1.01,1.37c-3.52-2-6.91-4.31-10.61-5.91-3.89-1.64-7.92-2.93-12.04-3.87-4.14-.91-8.37-1.42-12.61-1.52,6.94,3.6,13.95,6.91,18.75,13.66-12.51-3.98-24.88-8.48-38.38-6.25,6.28,1.87,12.14,4.93,17.27,9.01l-.36.98-14.82-2.4c-.13.24-.26.49-.38.73,16.85,8.17,28.05,20.85,32.28,39.1l-1.13.83c-1.54-2.54-2.94-5.18-4.67-7.59-1.91-2.62-3.96-5.13-6.16-7.51-2.19-2.4-4.51-4.7-6.91-6.88-2.41-2.19-5.01-4.15-7.77-5.86,5.42,5.83,5.9,12.84,5.45,20.25-5.11-7.32-9.92-14.78-16.82-20.5.69,4.45,1.36,8.82,2.04,13.19l-1.45.54-9.79-14.31c-1.32,1.21-2.54,1.9-3.15,2.95-4.52,7.75-9.73,15.24-13.13,23.47-3.53,8.55-5.42,17.79-7.78,26.8-4.03,15.21-5.3,31.02-3.73,46.68.33,3.34,1.77,4.31,4.74,4.11,5.06-.35,10.12-.67,14.99-.99,6.71-14.33,13.27-28.47,19.96-42.54,1.31-2.75-.37-4.76-.98-7.08-.7-2.65-1.82-4.42-5.01-4.87-2.76-.38-5.18-1.87-5.92-5.22-.78-3.58.9-6.05,2.97-8.51.2-.24.54-.6.76-.56,3.77.66,5.28-2.41,7.48-4.41,2.39-2.18,5.16-2.05,7.88-.67s4.45,3.46,4.01,6.74c-.31,2.32-.71,4.62-1.07,6.93Zm-5.82-8.29q-3.42,6.61-8.64,3.71c-.19-.11-.38-.21-.58-.3-2.39-1.05-4.14.22-3.86,2.8.36,3.36,2.11,4.98,6.33,5.08,2.34.06,3.53.89,4.23,3.01,3.71,11.2,7.6,22.34,11.18,33.59,3.64,11.44,6.98,22.98,10.49,34.47,3.74,12.21,7.48,24.42,11.33,36.59.7,2.21.31,3.49-1.6,4.91-.99.74-1.63,2.83-1.37,4.1.22,1.06,2.06,2.63,3.01,2.51,1.57-.32,2.94-1.26,3.82-2.6,1.19-1.88,1.58-4.25,2.63-6.25.39-.75,1.65-1.06,2.51-1.56-.12.88-.17,1.76-.15,2.64.11,1.34.38,2.66.58,4,1.43-.38,3.32-.32,4.19-1.23,2.4-2.52.77-6.31-3.22-7.3-2.04-.5-2.77-1.45-3.31-3.32-1.75-6.14-3.51-12.3-5.62-18.32-4.8-13.68-9.81-27.29-14.74-40.92-.06-.16-.27-.26-.43-.41l-2.04,1.61-.76-.32c.13-1.15.39-2.29.78-3.38,1.16-2.22,1.33-4.83.46-7.19-3.48-9.89-6.99-19.78-10.16-29.77-1.13-3.55-3.7-6.9-1.53-11.29.82-1.67-.36-4.6-1.24-6.7-.37-.88-2.89-1.85-3.49-1.43-1.76,1.23-3.04,3.13-4.51,4.78l.77.78,4.94-2.29Zm-26.83,86.92l-1.07-.47c-4.21,8.85-8.49,17.65-12.57,26.55-.95,2.07-1.69,3.16-4.03,1.77-.63-.37-2.33-.22-2.51.16-.81,1.99-1.52,4.02-2.1,6.09,1.59.3,3.37,1.22,4.74.79,3.36-1.06,4.5,1.2,6.79,3.34l-3.7.94c.93,2.48,2.65,3.86,5.2,3.06,2.33-.74,2.95-4.93,1.56-7.47-.99-1.81-1.68-3.79-2.73-6.23l4.07.21,13.63-29.11-1.03-.55-3.66,5.68-.49-.2,1.31-5.06-.69-.31-4.43,6.58-.46-.29,2.18-5.48Zm25.55-57.55l-1.24-.48-17.85,39.16c2.36,0,4.17-.2,5.93.05,2.74.37,4.05-.87,5.01-3.26,2.51-6.2,5.18-12.33,7.82-18.48.85-1.97,1.81-3.88,2.72-5.82l-.49-.23-2.02,2.97-.52-.25,1.73-5.99-4.87,3.57c.79-2.39,1.37-4.19,1.98-5.99.59-1.75,1.2-3.48,1.81-5.22h0Zm12.42-6.28c1.51-3.57,2.78-6.99,4.42-10.21.82-1.34,1.98-2.42,3.36-3.15.61-.36,1.89.62,2.73.43,1.57-.36,3.56-.72,4.42-1.83.98-1.26.91-3.33,1.3-5.05-1.47-.27-2.93-.59-4.41-.79-.85-.12-1.78.1-2.59-.13-2.37-.66-4.17-1.82-3.36-4.9l3.05.44c-.07-.93-.2-1.86-.41-2.77-.67-2.12-1.76-4.84-4.24-3.61-1.61.79-3.24,3.98-2.89,5.68.53,2.04.24,4.21-.79,6.05-3.3,6.04-5.66,12.15-1.31,18.73.17.27.34.54.7,1.12h0Zm-.39,43.78c-2.44-7.67-4.7-14.77-6.96-21.86l-.73.1c-3.07,7.42-6.14,14.84-9.43,22.77l17.12-1Zm-61.71-61.8c-.33,2.66-1.3,5.57-.67,8.09.21.86,4.58,1.44,6.75.91,3.83-.93,2.51-5.07,3.97-7.48l-10.05-1.52Zm6.79,67.33c-1.27,6.79-6.83,8.52-11.43,11.63,3.12.03,6.24-.11,9.34-.4,2.96-.14,5.44-2.32,5.96-5.24.56-2.99-1.37-4.43-3.88-5.99h0Zm29.11-.66c3.24,2.92,3.97,6.07,2.62,9.65,5.62.32,8.16-1.62,8.24-6.16.05-3.19-3.22-4.35-10.86-3.48h0Zm-38.6-56.15c.13,2.6-.63,5.83.64,7.45,1.08,1.38,5.39,2.02,6.69.99,1.73-1.37,1.94-4.68,2.76-7.03l-10.09-1.41Zm7.28-20.68c-.56,1.32-1.22,2.79-1.81,4.27-1.25,3.11-.61,4.27,2.68,4.94,3.54.72,5.06-.16,6.2-3.65.4-1.22.76-2.45,1.08-3.49l-8.15-2.07Zm5.27-10.3c-1.09,1.97-2.25,4.01-3.32,6.1-.22.42-.29,1.36-.08,1.49,1.51.92,3.06,2.16,4.71,2.34,1.08.12,2.77-1.09,3.41-2.16,1-1.68,1.34-3.76,1.97-5.67l-6.68-2.09Zm-16.45,60.4c.65,2.88.68,5.7,1.99,7.66.62.92,4.61.97,5.5-.02,1.53-1.69,1.83-4.49,2.74-7.12l-10.23-.52Zm2.33-19.35c.16,2.46-.43,5.21.64,6.94,1.37,2.23,4.67,1.99,6.45.52,1.52-1.25,1.92-3.87,2.96-6.21l-10.06-1.25Zm-1.71,47.3l.53,7.75c6.36-1.37,9.7-4.87,9.53-9.32l-10.06,1.57Zm34.83,8.65c2.42-1.05,5.49,1.69,7.33-1.64,1.22-2.21.6-4.16-.92-5.88-2-2.28-4.41-3.05-7.64-1.53,2.53,2.7,3.22,5.53,1.23,9.06h0Zm-34.47-45.85c.41,2.22.11,5.22,1.46,6.58,1.18,1.19,5.21,1.5,6.2.47,1.48-1.52,1.41-4.57,2.02-7.05h-9.69Zm-.88,28.32c.58,2.13.74,5.62,1.75,5.88,2.45.54,5,.15,7.18-1.09,1.01-.61.5-3.72.66-5.61l-9.59.82Zm22.3-90.37c-1.11,2.19-2.04,4.25-3.18,6.18-.77,1.31-1.62,2.56.24,3.47,1.71.83,3.72,1.92,5.19-.29,1.09-1.81,2.09-3.67,2.98-5.59l-5.23-3.77Zm31.88,106.82l.64,1.04c1.89-.84,4.62-1.2,5.46-2.66.93-1.59.77-4.5-.08-6.28-1.1-2.28-3.76-2.2-6.77-1.67,3.74,3.22,1.44,6.41.75,9.56h0Zm-26.96-7.68v9.64c4.07-.12,7.2-2.5,6.92-5.57-.26-2.76-3.84-4.7-6.92-4.07Zm35.85-2.46c.15,3.44.29,6.52.44,9.87l8.35-.67-.04-.95-3.02-.72,2.29-1.9-3.85-.83.1-.57,2.85-.56.1-.68-7.22-2.98Zm-53.76-15.05h-9.44c.59,2.23.53,5.21,1.77,5.92,1.55.89,4.66.6,6.17-.48,1.22-.87,1.07-3.66,1.49-5.43h0Zm21.84-84.49l-.98-.15c-.13-1.08-.14-2.17-.03-3.25.51-2.6,1.22-5.17,1.85-7.75-2.27,2.58-4.27,5.38-5.98,8.36-2.23,3.6-1.59,5.36,2.65,6.83l2.48-4.05Zm-11.57,101.83c-.29,4.03-.52,7.11-.76,10.43,1.77.21,3.79.16,5.39-2.07,1.58-2.22,1.47-4.54-.05-6.26-1.1-1.25-3.29-1.55-4.59-2.1h0Zm70.97,2.74l5.21-2.58c-1.89-1.44-5.82.12-5.23-4.14l-3.32.47c1.17,2.2,2.17,4.08,3.34,6.25h0Zm-3.59,5.2c1.52-4.91.33-8.37-3.7-11.42l3.7,11.42Z"></path><path d="m141,87.57c-8.84.07-14.88-5.06-14.73-12.94.12-6.21,5.68-16.52,13.19-16.24,6.9.26,15.91,3.91,15.38,12.47-.59,9.41-5.13,16.4-13.83,16.71Zm-1.13-2.85c5.31.21,11.48-5.3,11.74-10.48.31-6.26-4.51-11.89-10.4-12.12-6.07-.24-11.82,5.51-12.02,12.03-.18,5.99,4.18,10.31,10.68,10.57h0Z"></path><path d="m20.62,87.47l-11.25,6.27c-1.68-3.97-4.98-5.16-9.36-4,3.52-3.36,5.48-3.52,8.55-.62,1.54,1.45,2.78,1.49,4.53.63,1.86-.85,3.76-1.6,5.7-2.26.61-.08,1.23-.08,1.84-.02Z"></path><path d="m113.73,117.31c3.09-2.83,5.13-2.61,9.5.66l6.15-2.77.09.54c-1.69,1.81-3.29,3.71-5.12,5.36-.47.43-2.27.34-2.43,0-1.53-3.34-4.02-3.89-7.21-2.85-.14.05-.4-.14-.55-.28-.17-.21-.32-.43-.44-.66Z"></path><path d="m161.33,95.49c-.47.34-.98.63-1.51.86-1.44.46-3.06.57-4.35,1.28-3.12,1.73-6.06,3.64-8.96-.33-.26-.35-1.22-.17-1.85-.28-.58-.09-1.14-.23-2.49-.5,2.61-2.28,4.86-1.75,6.47-.32,1.86,1.64,3.15,1.24,5.14.38,2.28-.98,4.88-1.21,7.34-1.76l.22.67Z"></path></svg>